<mxfile host="65bd71144e">
    <diagram id="bO-3dc23lSHyMGZe_4mI" name="Page-1">
        <mxGraphModel dx="1059" dy="662" grid="1" gridSize="10" guides="1" tooltips="1" connect="1" arrows="1" fold="1" page="1" pageScale="1" pageWidth="850" pageHeight="1100" math="0" shadow="0">
            <root>
                <mxCell id="0"/>
                <mxCell id="1" parent="0"/>
                <mxCell id="3" value="" style="shape=internalStorage;whiteSpace=wrap;html=1;backgroundOutline=1;dx=0;dy=20;" vertex="1" parent="1">
                    <mxGeometry x="140" y="230" width="200" height="290" as="geometry"/>
                </mxCell>
                <mxCell id="4" value="Logo" style="rounded=0;whiteSpace=wrap;html=1;" vertex="1" parent="1">
                    <mxGeometry x="140" y="250" width="200" height="30" as="geometry"/>
                </mxCell>
                <mxCell id="5" value="" style="shape=process;whiteSpace=wrap;html=1;backgroundOutline=1;size=0.1;" vertex="1" parent="1">
                    <mxGeometry x="140" y="280" width="200" height="220" as="geometry"/>
                </mxCell>
                <mxCell id="6" value="" style="rounded=0;whiteSpace=wrap;html=1;" vertex="1" parent="1">
                    <mxGeometry x="140" y="490" width="200" height="30" as="geometry"/>
                </mxCell>
                <mxCell id="7" value="" style="ellipse;whiteSpace=wrap;html=1;aspect=fixed;" vertex="1" parent="1">
                    <mxGeometry x="230" y="495" width="20" height="20" as="geometry"/>
                </mxCell>
                <mxCell id="9" value="" style="rounded=1;whiteSpace=wrap;html=1;" vertex="1" parent="1">
                    <mxGeometry x="326" y="234" width="10" height="10" as="geometry"/>
                </mxCell>
                <mxCell id="11" value="&lt;h1 style=&quot;&quot;&gt;&lt;font style=&quot;font-size: 16px;&quot;&gt;Sabor X&lt;br&gt;&lt;/font&gt;&lt;font style=&quot;font-size: 10px;&quot;&gt;Ingredientes ....................Preço&lt;/font&gt;&lt;/h1&gt;" style="text;html=1;strokeColor=none;fillColor=none;spacing=5;spacingTop=-20;whiteSpace=wrap;overflow=hidden;rounded=0;" vertex="1" parent="1">
                    <mxGeometry x="160" y="280" width="160" height="60" as="geometry"/>
                </mxCell>
                <mxCell id="12" value="&lt;h1 style=&quot;&quot;&gt;&lt;font style=&quot;font-size: 16px;&quot;&gt;Sabor X&lt;br&gt;&lt;/font&gt;&lt;font style=&quot;font-size: 10px;&quot;&gt;Ingredientes ....................Preço&lt;/font&gt;&lt;/h1&gt;" style="text;html=1;strokeColor=none;fillColor=none;spacing=5;spacingTop=-20;whiteSpace=wrap;overflow=hidden;rounded=0;" vertex="1" parent="1">
                    <mxGeometry x="160" y="340" width="160" height="60" as="geometry"/>
                </mxCell>
                <mxCell id="13" value="&lt;h1 style=&quot;&quot;&gt;&lt;font style=&quot;font-size: 16px;&quot;&gt;Sabor X&lt;br&gt;&lt;/font&gt;&lt;font style=&quot;font-size: 10px;&quot;&gt;Ingredientes ....................Preço&lt;/font&gt;&lt;/h1&gt;" style="text;html=1;strokeColor=none;fillColor=none;spacing=5;spacingTop=-20;whiteSpace=wrap;overflow=hidden;rounded=0;" vertex="1" parent="1">
                    <mxGeometry x="160" y="400" width="160" height="60" as="geometry"/>
                </mxCell>
                <mxCell id="14" value="" style="shape=internalStorage;whiteSpace=wrap;html=1;backgroundOutline=1;dx=0;dy=20;" vertex="1" parent="1">
                    <mxGeometry x="390" y="230" width="200" height="290" as="geometry"/>
                </mxCell>
                <mxCell id="15" value="Logo" style="rounded=0;whiteSpace=wrap;html=1;" vertex="1" parent="1">
                    <mxGeometry x="390" y="250" width="200" height="30" as="geometry"/>
                </mxCell>
                <mxCell id="16" value="" style="shape=process;whiteSpace=wrap;html=1;backgroundOutline=1;size=0.1;" vertex="1" parent="1">
                    <mxGeometry x="390" y="280" width="200" height="220" as="geometry"/>
                </mxCell>
                <mxCell id="17" value="" style="rounded=0;whiteSpace=wrap;html=1;" vertex="1" parent="1">
                    <mxGeometry x="390" y="490" width="200" height="30" as="geometry"/>
                </mxCell>
                <mxCell id="18" value="" style="ellipse;whiteSpace=wrap;html=1;aspect=fixed;" vertex="1" parent="1">
                    <mxGeometry x="480" y="495" width="20" height="20" as="geometry"/>
                </mxCell>
                <mxCell id="19" value="" style="rounded=1;whiteSpace=wrap;html=1;" vertex="1" parent="1">
                    <mxGeometry x="576" y="234" width="10" height="10" as="geometry"/>
                </mxCell>
                <mxCell id="20" value="&lt;h1 style=&quot;&quot;&gt;&lt;font style=&quot;font-size: 16px;&quot;&gt;Sabor X&lt;br&gt;&lt;/font&gt;&lt;font style=&quot;font-size: 10px;&quot;&gt;Ingredientes ....................Preço&lt;/font&gt;&lt;/h1&gt;" style="text;html=1;strokeColor=none;fillColor=none;spacing=5;spacingTop=-20;whiteSpace=wrap;overflow=hidden;rounded=0;" vertex="1" parent="1">
                    <mxGeometry x="410" y="280" width="160" height="60" as="geometry"/>
                </mxCell>
                <mxCell id="21" value="&lt;h1 style=&quot;&quot;&gt;&lt;font style=&quot;font-size: 16px;&quot;&gt;Sabor X&lt;br&gt;&lt;/font&gt;&lt;font style=&quot;font-size: 10px;&quot;&gt;Ingredientes ....................Preço&lt;/font&gt;&lt;/h1&gt;" style="text;html=1;strokeColor=none;fillColor=none;spacing=5;spacingTop=-20;whiteSpace=wrap;overflow=hidden;rounded=0;" vertex="1" parent="1">
                    <mxGeometry x="410" y="340" width="160" height="60" as="geometry"/>
                </mxCell>
                <mxCell id="22" value="&lt;h1 style=&quot;&quot;&gt;&lt;font style=&quot;font-size: 16px;&quot;&gt;Sabor X&lt;br&gt;&lt;/font&gt;&lt;font style=&quot;font-size: 10px;&quot;&gt;Ingredientes ....................Preço&lt;/font&gt;&lt;/h1&gt;" style="text;html=1;strokeColor=none;fillColor=none;spacing=5;spacingTop=-20;whiteSpace=wrap;overflow=hidden;rounded=0;" vertex="1" parent="1">
                    <mxGeometry x="410" y="400" width="160" height="60" as="geometry"/>
                </mxCell>
                <mxCell id="26" value="" style="swimlane;startSize=0;fontSize=10;fillColor=#000000;gradientColor=none;swimlaneFillColor=default;" vertex="1" parent="1">
                    <mxGeometry x="400" y="280" width="180" height="200" as="geometry"/>
                </mxCell>
                <mxCell id="27" value="&lt;h1 style=&quot;&quot;&gt;&lt;font style=&quot;font-size: 16px;&quot;&gt;Sabor X&lt;br&gt;&lt;br&gt;&lt;br&gt;&lt;br&gt;&lt;/font&gt;&lt;font style=&quot;font-size: 10px;&quot;&gt;Ingredientes ........................Preço&lt;br&gt;Deseja inserir um comentario?...&lt;/font&gt;&lt;/h1&gt;" style="text;html=1;strokeColor=none;fillColor=none;spacing=5;spacingTop=-20;whiteSpace=wrap;overflow=hidden;rounded=0;" vertex="1" parent="26">
                    <mxGeometry y="5" width="170" height="175" as="geometry"/>
                </mxCell>
                <mxCell id="28" value="Fotinho" style="whiteSpace=wrap;html=1;aspect=fixed;fontSize=10;fillColor=#000000;gradientColor=none;" vertex="1" parent="26">
                    <mxGeometry x="45" y="42.5" width="90" height="90" as="geometry"/>
                </mxCell>
                <mxCell id="30" value="&lt;font style=&quot;font-size: 8px;&quot;&gt;adicionar&lt;/font&gt;" style="rounded=1;whiteSpace=wrap;html=1;fontSize=10;fillColor=#000000;gradientColor=none;" vertex="1" parent="26">
                    <mxGeometry x="140" y="180" width="40" height="20" as="geometry"/>
                </mxCell>
                <mxCell id="32" value="" style="shape=image;verticalLabelPosition=bottom;labelBackgroundColor=default;verticalAlign=top;aspect=fixed;imageAspect=0;image=data:image/png,iVBORw0KGgoAAAANSUhEUgAAAgAAAAIACAYAAAD0eNT6AAAAAXNSR0IArs4c6QAAIABJREFUeAHsvQl4VNeV74uTdJKbpO34dift252+92bo++537ZCkk3ff12n3fe4myWu34xhJiEHzPJcEEqg0AC6DHcdDMIMxBjFpBIlRCAQGHDCj5hGNpRFhQHXOKUYPCKP9+jC4MUZYOv8adlX9+b71SRzV2mv9f3udvU+V9t6aNIn/SIAESIAESIAESIAESIAESIAESIAESIAESIAESIAESIAESIAESIAESIAESIAESIAESIAESIAESIAESIAESIAESIAESIAESIAESIAESIAESIAESIAESIAESIAESIAESIAESIAESIAESIAESIAESIAESIAESIAESIAESIAESIAESIAESIAESIAESIAESIAESIAESIAESIAESIAESIAESIAESIAESIAESIAESIAESIAESIAESIAESIAESIAESIAESIAESIAESIAESIAESIAESIAESIAESIAESIAESIAESIAESIAESIAESIAESIAESIAESIAESIAESIAESIAESIAESIAESIAESIAESIAESIAESIAESIAESIAESIAESIAESIAESIAESIAESIAESIAESIAESIAESIAESIAESIAESIAESIAESIAESIAESIAESIAESIAESIAESIAESIAESIAESIAESIAESIAESIAESIAESIAESIAESIAESIAESIAESIAESMBDCFz9t8DHPnpuZtCHzwUt++C5oHc+fG6m9cPnZtk/fG7WyIfPzRI0hzLQmdo/eG5W20fPzdrzwdRZv/9g6qyp9sDARzykXJgmCZAACZCAJxO47Bf2Fx8+F5T64XNBtR8+FyRobmcw8uFzQQc/mhoUKp6N+4Yn1xZzJwESIAESkJDAh/7B37s6NWjpB88Ff/DBc8GCJiUD5YPfBc3Xng5+WMISYkokQAIkQAKeREDExf3ZVb/grA+mBl/9YGqwoHkAg+eCz12dGhQhJk16yJNqjbmSAAmQAAlIQuDy70L+rw+mhjR9MDVE0DySwZ6rgRGPSVJOTIMESIAESMATCHw4NSTgg6mhVz6YGiponswg7P0Pp4b9b0+oOeZIAiRAAiTgZgIf+IUmfDA19BNO/J488X8m9w8/mBr2tJvLiuFJgARIgARkJqBP/lenhgma1zG49sFzof8mc+0xNxIgARIgATcRuDI1PODq1PBPrk4NFzSvZHD1g9+F/sJN5cWwJEACJEACMhK49LuQH12dGn6JE79XTvx3P9ANXX521l/KWIPMiQRIgARIwMUERGDgV6/6RTRd9YsQNO9ncMUvYqeLS4zhSIAESIAEZCRw2S8q64pfpKD5EAP/yGky1iJzIgESIAEScBGBDwPD/uaqf+RVTv4+NPnrD3tTIwfF06avuajMGIYESIAESEA2Alf8Ipde8YsSNN9jcHVqdJps9ch8SIAESIAEXEBA/8M+V/yiP7jiFy1ovsfgql90vwgM/LILSo0hSIAESIAEZCJwxT/KxInf9yb+u/v88nPRz8pUk8yFBEiABEjABQQu+8fUXvaPEQ6xgJiWSwGxaVcCYh8/Hxr6TRekD4VANUPBDTjbApO+ddUv6ieX/WLNl/1j+tD87/hf8YspMZAOXUiABEiABDyVwAf+cf/lsn/s6GX/WAHax1cC4hKFxfIlT2IBahbu1Kpv27zkH7Posn/sDVTHZf/Yy1wM6M7eZGwSIAEScDGBSwExsxwweXx8xT/un12cukPCododkgTYyCX/2FBHPMRdnRY/BUyF7iRAAiRAAp5C4EpA3LLL/nECsSt+8QmeovfePBHduu+97bnr/5cD4l9DtVz2i3vVXfkzLgmQAAmQgIsJXPKLf+eSf7wwahcD4ls87WP/uxEb1X3H7+623Pm9vjbgkn/88J28jHzV+9KdGhibBEiABEjAhQQu+cf3GpksPvUJiPfoPeSf6jD4EOTCrvrCUBf9E14H9Yx+GJjwN18YiC8gARIgARLwfAKX/BO0S/4JwqhdCYz/X55MwajuO34yab/sF/fknbyMfr3sHx8tkybmQgIkQAIk4CQClwISr10KSBRGTf/o2UmpuaRZo7rv+LkkyXEGEU9ZvnIpIPHCndyMfL0ckFg2znB8GQmQAAmQgCcTQB8AlN9F/bmH6zf88KNPsLJpvxyQuNXIxH+XzwX9QUI2XcyHBEiABEjAwQQuBiRrFwOShFHz9F8BGNV9x8/B3QE3d3Facsyd3Ix+veyf8o9wImyABEiABEhAbgIXA5J7LgYkC6N2ISDFoxcBGtV9x0+23tX8Td+7k5vRrxf8UxbJpov5kAAJkAAJOJjAxYDkfUYnilt+Ka2e/IdkMO3J0v0KQC+PiwEpraCuGgeXGZsjARIgARKQjcCFgORlFwNSBGKXApKTZdM13nwQ3brveOO48nUXpyW/Duq6cSXQ9B1X5sxYJEACJEACLiZgDzDNuhCQIkC7dnFaskceIwvqlvMBwN/0K1SXfZop2MWlyHAkQAIkQAKuJGALTHrswjTT6IVpJgHaNXugKcXTfh0AapbyAUD/oz4XppmuQtoCTAWurEPGIgESIAEScAOBC4GpNRempQrHmOnUhYC0OXa/1Cc84YwAVLMbumtcIS9MS60AtZ335COexwWJLyIBEiABXydwYVqqCZwsHPTw4KiHELe2c/3CtFT7xWmpHRenpVXap6W+cmGayf9S4Jz/7Mo6swempaB9ejEw9eeuzJmxSIAESIAEXEzgsl/yX1yYlnb1wrQ0QXMag+sXpqUduhAwO8oVn4xcCpzzI7Qv7YGzc11cigxHAiRAAiTgagLatNlv2KfNFjSXMLigTZu96GJQ4qPO7Gf7tNlWsD+PODM/tk0CJEACJCABATVwzt/Yp82+Ck4YfICY2EOUag+Yk+Cs37Xbp81+E+zP6/ZA8yMSlCdTIAESIAEScCYB+7TZmfbAOYLmWgZa4Jx3tZnpf+vovrVPS/8t2pfa9PQAR+fF9kiABEiABCQjIOLi/swemN5gD0wXNJczsNmnzfknR5bE+dC537QHpn8M9eW09DWOzIltkQAJkAAJSEpAmZH+P7TA9MtaYLqguZzBNXVahr8jS0MLzDgA9uNpR+bDtkiABEiABCQmoAbO9dMCMz7RAjMEzeUMrjvyY3dtevpcuA8D5jwucbkyNRIgARIgAUcS0AIz4rTAuYLmFgYf2afNc8ivA+wz5j4B9+G0jAxH1hbbIgESIAESkJyAGjgvQgucex2eQPggYeRBaliZmfnXjigRLXDuaawP5+13RB5sgwRIgARIwIMIqNMzp2qB8y5rgfMEzeUMDopJkx5Cy0ULzFwL9t1H+oJCNA/6kwAJkAAJeBgBW8C8v1MDMxvU6ZmC5loG2vR5UWi5aIGZ09B+UwLNz6B50J8ESIAESMADCYinLF/RAuelqdMzL6OTCf3H/xChTM9UtGDTw0jJXJg6+9vq9MzrGHfzciQH+pIACZAACXg4AcU/578o081L1Onmq+p0s6A5n4E2PXMBWjbKdPNRqK9mmLvRHOhPAiRAAiTgBQQu+2X/hRqYlaIGZlWp07NG1elZguY0BsPWp01fQ8pGnW6ej/bP8Ix5P0RyoC8JkAAJkICXETjvN/e7tsCsGcp08xvK9Ky9yvSsTmV6tqZMz7qmTM8SNAcwmJEVjJSNMjPzF2g/qNPNyUgO9CUBEiABEiABryVw8/jdGTlPKNNzMpQZWd3K9GzhGMvajUDT/+CQMj17GMslaxeSA31JgARIgARIwCcI6Asn1RnZWcqMnE+UGTkCtGtasAVaDKjMzCkEc7iC/irCJzqeIkmABEiABEhAJ6DOzPVzxEOAOiMb+jsB6vScEPABQKgzc6awV0mABEiABEiABMZJQJmRu1CZkStAyxtnuPu+7Hyo5bvKjNwbWA7zX71v47xIAiRAAiRAAiTweQL6R+fKjPkDthnzhWGbPn8IPRnQNmN+reH4t3Jv+bw6XiEBEiABEiABEhiTgP4pADj5iuFZOZPHDDCOH9hmLlgM5jCqBub+zThC8SUkQAIkQAIkQAI6geFZlsm2GQsEYsPTF2QiNG0zF/wTEv+m78yF0UgO9CUBEiABEiABnyNgm7HwtG3GQmHcFhxCoOk7E2wzFl4wHv9m7mVIDvQlARIgARIgAZ8jYJvxfN7wzIUCsBF7oPkRBNzwjIVbgfhieMbCC/qDBJIDfUmABEiABEjApwgMz7D4D898XkA2wwJtBzw/c2EsFF/Pf/qCf/SpjqNYEiABEiABEkAI6If5DM+0jAzPtAijZpthgbYDasGW7xmNfZffIoQDfUmABEiABEjA5wicn2k5fNdEauRBYEhMEg8h4IZnWk4hOdhmPl+DxKcvCZAACZAACfgcgXMzXzCfn/mCgCx40Y8RcOdmvPA6FH/mCzf0g4WQHOhLAiRAAiRAAj5FQN8OeH7mIoHYuVmLoO2Aw7Ne+DUSX/cdnvEC9BcKfarTKZYESIAESIAEdALnZy46DU7A0HZA69PLv3Z+5qIrSA7nZi4uYG+SAAmQAAmQAAlMgMD5WS/mnZ+1WAA2Yg/8A7Qd8PysRbuB+HruNv3PDE9ANl9KAiRAAiRAAr5NYDhosf/5WS8KxPQ2EIrnZy02IfF137NBi36O5EBfEiABEiABEvApAvp2wHOzXhw5N+tFYdTOznoR2g5oC1r8d0Zj3/E7O+ulXJ/qOIolARIgARIgAZTAuVkvHT436yUBGLwd8Nysl3qA+HruR1AO9CcBEiABEiABnyJwLuhl87lZvxeInQ/+A7YdMOj3byLxz836/fX+CMu3farjKJYESIAESIAEEALDs16aDE6++sMDtB3w/KwXn0VzODvr5QCEA31JgARIgARIwOcInA16+fTZoJeFYZv1MrQd8Hzoa988G/Tyx4bj67nP+sMan+s4CiYBEiABEiABhMDZoFfyzgb9QQAGbwc8F/SHg0B8PfchhAF9SYAESIAESMDnCJwNesUfnHyF3gYC7tysl+ehOZyb9YfHkRzoSwIkQAIkQAI+RUALXv7w2aBXRs4GvaJP5EYN2g6oLyQEYt/M+VzwKxk+1XEUSwIkQAIkQAIogbNBrx4+G/SqAAzeDng26NVBIL6e+36UA/1JgARIgARIwKcIvB/0ivn9oFcFYkPgdsD3g17NQ+K/H/Tqx7ZAy7d8quMolgRIgARIgAQQAkOzXpv8ftBrArLgV6HtgGeCX58GxQ96TZyZ+dozCAf6kgAJkAAJkIDPEXg/+PXT7we/Loza2eDXoe2AN9ciBL8+YjT+bb/lPtdxFEwCJEACJEACCIH3g17PQybfs8Gvj/SCfx3w/ZDXjyI5vB/8ejfCgL4kQAIkQAIk4HMEhoJe9z8T/EeBmN4GAu5M0JL5SHzd9/SMV3+I5EBfEiABEiABEvApAvpH8GeCl4ycCV4ijNr7QX+EtgOeDl3yC6Ox7/i9H/xGsk91HMWSAAmQAAmQAErgTPCSQ3cmUoNfoe2AwmL50pngJcMGYxt+cGE84w99ZEd2rAH31cBQ8JJLZ4KXtJwJeuOPp0OXPYHOAfT3YQLvB7+ReSb4DYHY0KylkxGEZ4KXFCLx6Yv1H/mRH2vAY2vgk/eDlyyzPr38a8gYTF8fJTAUtnTymZClArGhkKVmBN9Q8NIQJD59sf4jP/JjDXh8DVT2R2z4OjIO09dHCQyFLj09FLJUAAZtBzw76/W/HApZegOIj+ROX6zvyY/8WAMS1MDpkKVLfHQKo2yEwFDIsryhkGUCsBFr8PKHsRyW1gLxkdzpi/U9+ZEfa0COGvhkMHwJ/0AaMhH5ou9Q6HJ/ePINXY5tBwxeuhjOQY6bkIMh+4E1wBpwSw2cCV3+ui/OYdQMENDfvQ+FLB8ZClkuAIO2Aw6GLn0SiI3kTV+s38mP/FgD8tRAEzAV0NVXCZwOWXHodMgKARi2HfApy1dOh6y4AMRHcqcv1vfkR36sAQlqYDDkzcu+OodRN0BgMORNMzr5DgWv+DGQwqShkDe3oDnQH3qI4yAuwSDOGmYNG66B0BUaMgbT10cJDIW9Nfl06JsCMf0hAsE3FPJmDBKfvlj/kR/5sQY8vgbakTGYvj5M4HToytOnQ1cK4/YWtB3wTPDy750OXTlqPD6SO33JnTXAGvD0Gnhrkw9PYZSOEBgMeysPHABGegNXP4LkcDp0ZSuYA/AA4+k3P/Nn7bAGfLoGQlbORcZf+vowgYHQlf6DoW8JxAbCVvkhCE+HvfUaEp++WP+RH/mxBjy3BgbCVv4zMv7S14cJ6NsBB0NXjQyGrhKArUEQDoa99SsgNpI3fbF+Jz/yYw24twZG+yPe+DYy/tLXxwkMhK46DE7A0HbAtsCyrw6GrroC5sCByL0DEfmTP2vA1TUQtqrbx6cvykcJDIa8bR4MfVsgNhS8GtoOOBj6dgUSn75Y/5Ef+bEGPK8GBkJXcwEgOgH6un9fWN7kgbDVArHB0NWZCMeBsNUpSHzddzA87+dIDs72HQx9+/egxqPOztFZ7Q+ErPklqL3TWbnJ3u5A2OozCLu+kLd/IrvGsfIbCF3di2gfCF8j9QK5gbDVPd6sb6x+5XXJCAyGrT4NFWLoGmg74EBo3veh+PoDTOjqXMmwfiadwdDVgaDGy8Ji+dJnGvWQ/zigfy95iFSHpqn390DY6utI3Vgj13/HoUm5qLHBoLceHQhbPYpoHwhbLe0Cud641Y94sz4XlQnDOILAQFhe3kDYGgHYiF7QSC4DYWusQHzRH77mCBLf2b5DEW//HaJP99XbcHaezmhf/7vlqPazcau/4YzcZG6zP2LlYyC3EU99aBwMW/MrUPtof8QGaRfIDYa/PcWb9cl8XzG3ewgMhOb5D4TlCczWQNsBB8LWrMDi512X+YYXk8RDA2FrLiEaB0PXBt7TdR7z34HQvIuQ9qj1P/AYsQ5KdCBs7c8gZmF5px2UisubGQxbY0a094etlXqB3GDo2kxv1ufygmFA4wSswUUPD4TljSAFORC2FtwOuOa3WPw8MRC+JsA4Bed7DoStPYpoHAxd83vnZ+mcCANheR2Idn0dgXMyk7fVgfC1z0DMwtZWyavuwZkNhOeVQdrD10q9QK4/LK/Um/U9uHf5U+kI9IflHe4PWyuM2kDYWmg74PnQgm/2h6392Gh83Q99CHF2pwyE5S1H9PWHrt3r7Byd1X5/6NpDiPaB8HVSP9w5g1tf6LpYhFl/+NodzsjLFW32h67tRbT3ha+VegFgf9jaHm/W54oaYQwHEugPW2vuD18nEOuN2ABtBxwIX3cAiT8Qvm7IgUgc3tRAxNooRF9/+Lphhyflogb7w9dtQrQPhK9LdlGq0oTpD1+/EGHWF7FupTRiJpCIvgCwP3zdKKJ9IGyd1AsAvVnfBLqaL5WFgL4dELnhbvmuh7YD6k/taA6D4Wsel4XpvXnov9NF9fVHbHjs3nY94f/94WuXINoHwtcv9gSdjsyxP3zdKoRZX/ja+Y7Mx1VtDYavnYLovjm5Sr0A0Lv1uapOGMfBBPrD15/uD18vAIO2A/aErn0CiH0z74HwdRkOxuKw5vRTD/vD119DNA6ErXvaYQm5sKH+8PWZkO7w9XkuTFeKUP3h68shZhEboqQQMsEk+sM2mBHd/eHrpV4AiN4LsuubYHfz5bIQ6AvfmNcXvkEABm8H7AvfMAjE13PfLwvP++XRF76hEdIXtiHnfu3Kfq0vfGMYpDt8w27ZNTo6v77wDTUIs4GwfI98WOwL31CG6O4N3yD1AsC+8PWl3qzP0fcB23MRgd6IDf5IYeq+A2H50HZABzyEfNwWuPJbLkI24TD94RvXg4zLJhxUAoe+8I2/AXXXSSDDpSn0hm84AzGLWueRpwD2hW/ohXSHr5d7AWD4hh5v1ufSm4TBHEdA3w7YF75xpC98ozBsYfnQdsC+sPxphmPfzrs3fOMzjqPi2Jb6wzemgvqsjs3INa3pC0QR3b3hG8+4JlM5ougH+PSFb7yOMOsJLfiuHGrGn8VgUPGjfeEbRxHdA2H50i4A1M8q8WZ94+9pvlJKAn0R+Yf7wvMFYNB2wFsPIfkjQHzRF5a/XEq4kyZN6oso/CdIW3j+KHrqojvY6EfSgrqve+qpdkZ464s9QV4eeQpgb/jGKaBuqU8A9HZ9RmqdPhIR6I/IN/dF5AvE0O2AfeH5R5H4fRH50i4CuvmAE5F/A9NX+E8Slcy4UtFPQuyLyB9BdHviO9pxwbnPiwbC8n+GsOqLyPfIUwAdMP5Ie+/r3dwfXpAJ9qvU+u5TyrzkSQT6wvIn90YUCMR6wgug7YA9kQXzkfi6rzV84w9l5d4bXmBF9PWEF6TKqu1BefWGFwwhuvXafFD73vSz3vDCZxBWvREFHnkKYG9EQRmoW+oFgD2R+aXerM+b7kGf1dIbUXC6N6JQGLW+iEJoO2BvVMEvjMa+49cXXiDtwTG9EUVld/I09DW8cL0nFue/T2q1hvTersW+8KLfeKJuIzn3RRTFIqx6Iwo98hTAvojCXkR3X2Sh1AsAeyMKe7xZn5Fap49kBHrCC/OQIu2NKBzpjSsz/NcB9d/19kYUDoM57JIM66fp9EUU5oDaGj9tzIO+6Q0vqEB090QWhXuQXCjV3vCihQir3ohCjzsFUF8A2BtROIro7gkrlnYBoLfrgwqezvIQ6I0o9u+NKBKI9YQVQdsBe8OLCpH4vRFFV62myq/JQ/U/MukJK3oa1HZNVm3/ofLz3/VEFK3BdBebP9+qd17pjShahbDqiSz2uFMAe8OLpiCaeyOKJF8A6N36vPNO9EFV+kK1nojikZ6IYmHcSqDtgNbIkhDjsW/lrQ8oMnZfX0zJX6HarGGbfiajtgfl1BNRvAjRbY0oeeNB7XvTz3oiS8ohVuHF0Z7Gozei2Ixo7okolnqBXE94UaY36/O0emO+DyDQE1l8uCeyWAAGbQfsiiv5y57I4htAfNETUfTqAyS69Uc9kUXnEG29kSWRbhVgILg1oiQJ0dwTVSz1Ai8DSMZ06YksrsFYFXncKYC9UcVlmGa566MnsqjUm/WNWcz8gecRuPk0HlkiegDrjSiC/jpgT2RJLRK/J7KkRVbyPVEleyFtUSXSnnUwFnP9V0uQ5sgSaHHpWHnJeL0nsuQMwqovarPHnQLYE1nSi2juidwk9QLAnsiSHm/WJ+N9xJwMEugLK5ncE7lJYFYCbgfctBiLfzP/vzWIwKluvZGbfg9qO+rUBJ3QuDWq5B8wzSWdTkhLuib1RbA9kZuuQ6w87BRAfYFcT+SmUUhzVKnUCwC9WZ90NxETwgn0RG46Dd2QkZugd2y9USVPgvGFNWqTlL8LtUZsDsS0lVz2tJPxOmPKvo9p3nQRr2r5W+iPKHsM5ORxpwD2hm+aAmqWfAGgd+uT/65ihhMmYI3cnGeN3CwAw7YDBpZ92Rq5WQPiC2vUZin/eE5PdNmPIF2Rm4XexoQ71Y0O/REbvo5qPhtX8Q03SnBJaGv0pp+BnDzuFMDuyNJMULPUCwC9XZ9LbgwGcS2B7ojN/tbIUoFYT1QZtB3QGlm6BYlvjSy9cMhy6CuuJffF0fSjca2RpZcgbRGbA784klyv0PsD0dwdte0HcilyfDbd0WXPIIyskWUedwqgNbK0FNHcHVUq9QJRb9fn+LuALbqdgL4d0BpZOoLcmNaoUnA74OYYKH5kqegJL/1Ht8O8TwLdkaVHQW2/v0+zUl+yRm7uQDT3RG76pdQCHZBcT0RpLMLIGlXqcacAWiM39yKaeyJLpV4AaI0s7fFmfQ4oezYhIwFrVNlha1SZAAzaDmiN2fY9a1TZKBBf9ERtWSQj2+6o0uWILmtUWaWMuh6UkzWy7BCiuTtmi/+D2veGn1kjyxYijKxRpR51CuBgYvGj+D0u8QJAL9fnDfccNYxBwBq9xdwdtUUg1hFRBm0H7I4qa0Xid0eV1Ywhz62XuyO3RGK6tpx3qwADwbujtpQgmruitkr7Nx4M4LivS3fUllUIo+7oLR51CmBX9JYpkN6oLaP9ETu+fV+YElz0dn0SIGYKziLQGbN1Mnhziu7ILdB2wO7ILa+BOdzoCd3+XWcxMtquNXrrz0BdQl8xbjS+O/y6orcsATVL+WmOI1l2R20pRxhZo8qk3PkyFiN9fED0dkdtkXwBoHfrG6tfed1LCHRHbh3sjtoqDFvkVmg7YHfUtl8Zjn07b2vUlmDZuqMtsOyr3VFbryHauqK2eNSJb92R2zIRvdbobXmy9aOj87FGba1FGHlaTXRFbS1F9HZHbZN6AaC363N0/bM9yQjog2531DYBGLQd8NZEue0KEF90RW0rkAzrzXS6o7c2grpyZNQ1Vk5dUdvDEL3dUVsrxmrbW653R207AzGK2PFTT2LRHbWtF9IbvV3qBYDd0dt6vFmfJ9UaczVAoDtmuz9UwFHb9AkY2g6oD/xgDjYZD87pjtq2HtQl5TkHY5VZd8z2XyN6rVHbasdq2xuu6zXaHbXtOsJIxl93jdU3g4m7H+2O2jYK6Y3aJu8JgF6ub6x+5XUvImANrny4K3r7SFf0dgEYtB2wK3pHChD7Zt4dMTt+Llu3dMdsT8V0bbPKpulB+XRE7PwxpDdm+5kHte/pP2uLKHsM4hO93aNOAeyK3jEF1Cv5AkDv1ufp9xvzHyeBzpgdh7uidwjAoO2AnTG7vg/Evpl3d8z23HHKddnLumJ2/hOoa7Q3ruwRlyUMBrJGln0H1Htdxk9yQCyfulsjt/09yMejTgHsjN6Riejtjt4h9QJAb9f3aeHyG+8m0Bm904zcqLqv/u4PodQVvcMK5nAEie8M31ufruy4AemK2flPzsjNGW3qJyB2Re+4hujVHyKckZsMbXZHb3sGYdMVvaNaBh3jzaErZkcppnen3AsAvVzfePuZr/NwAp0x5ZO7oncKxPSnYQRDV/SOFUj8ruid12XcL9wVvdOK6OqO2mFCuLqFD1A4AAAgAElEQVTatyt65xCiF32QdLXeicTriiqPRdh0Re/0qFMAu6LLexG93dE7pV4A2BW9s8eb9U2ktvlaDyfQGV0+2BldLozbLmg7YEfsrt8aj30r746oXQGydUNndHkZpCtq13rZND0on87o8lpEb0dUxW8e1L4n/6wreudChE1n9E6POQWwJXH3o53R5aOQ3qhyaRcAers+T77PmLsBAp3Ru/KgmzW6HNoO2Bz6zjc7o8s/RnLoiC6HFiMawPaFLh1Ru3IQTZ3R5Y1fGESiF3RG79qF6O2K2hkmkRyHptIZU74KYdMZXe4xpwB2RVdMAbVKvgDQu/U5tPDZmPwEOmLK/TujdwnEuqIqoO2AHTEVB5D4ndHlQ7KR7ora9TSmadc1/awE2XSNlY/+EIbpLYd+lTRWXjJc74yuKIfYRO3ymFMAO6PLMyGt0bskXwDo3fpkuF+YgwsJ6AvWOmMqRjpjKoRR64iugN6Bd0Tvmms09h2/tthdj7sQ2xeGao0p/6s7uRn92h27x2MOf+mMqVhkVKfu1xG7e8kXQvXQF3TG7KpF2HTF7vKYkyE7Y3aXIlo7oiukXgDo7fo89BZj2giBzpiKw8hN2xlTAW0HbI/e/QQYX3TE7M5AGDjDtzOm4hyoK9IZeTmjza7YXUmIVtkHfoRZZ0zFGYSNhz0I9iBa9TcDCGtn+3bGVHi1PmfzY/sSEmiP3W3uiNmtT6LGLW4PtB2wI2b3IBQ/Zvd+2dC2R1dUgpqWy6ZprHzaYyv8QK3QYtKx8nL3df18g46Y3dcRNj0J70j3R6/ux1VfINcRs3sU0doRU/HU/dqW4Zoj9HVG7ZZ2gaMMjJmDGwh0xuyd3BGzRyDWHl0J/Q63M2ZPHhK/I2bPx21Jh77lBnxjhuyI3fN7RFNnzB7pzjgYS2xHVMU/IFo7YvZ0jNW2J19vi9jzGMjFY04BbIveOwXUOtoo8Z8A9nZ9nnyfMXeQQEfMnkHs5q2E3sF1xlROw+LvEe3Ru58BMTjUvTN6dyCkKXbPJU85IU8/1RHSGrPnokPhS9JYe9yuv0e4dMbs8ZhTAPU3AYjWjug9Ui8A9HZ9ktwyTMMdBDpj9uZ1xFQKwEZ64w4YPr5WX4zYEVM5AsTXc5fqI/O26H0/AvUIvQ131MNEY/ZHHPo6qrUuruIbE40r++vbo/c9g3Bpj9njMacAtsfsLUW0dkRXSr0A0Nv1yX4vMT8nEuiI2evfHlMpIIvdC20HbI+uPArFj66U6h2EfkRue2zlJURTW/TeQCd2u0Obbo+pvIBo7Yx55/sOTUiCxjpiK2MRJu2xlR5zCmB7TGUPorUtulLqBYDerk+C24UpuIuA1VT5cHvs3pH22L3CuO2DtgO2x+6dbzz2rbxb4yp/6C6G94vbHrv3KKKpI67ypfu1K+O1tti9HZDW+L3/IKMuJKeO2MqFCJP2mH1vIfFd5asvkGuP3TuKaO2I2Sv1AkBUX2fcPi4AdFVBMs7ECbTHvnO4PXafMGodsfug7YCd8ft/YTT2p34x+5Inrtx5Hh2xe5d/mpsxtpXOy86xLbfF7vsTolX/FMqxGbm/tfbYfasQJu1x+xa4X8UXZ9AWv3cKpDN232hjxKFvf3Ek97zC2/W5hyqjSkWgPXafGbyJRQewHfDmlqnYfcNoDvQ3/hBHdmTHGnBKDUj160mpJh4mIwcBfTtge+w7ArK4/dB2wPa4dwqh+Gj+9Mf6n/zIjzVwvxqQeoGjHDMQs3A7gbbY/YNtsfuFUWuP3Q9tB2yL2R9iNDb9jPcb2ZEda8CZNXBA6gWObp94mIAcBE7F7M8DBwJoO2BX3KG/bIvdfwPMwfADDOM6cxBk26wv36yBU1wAKMcExyweTKA1/oB/W9wBgVh77H5sO2DcgVokPn2x/iM/8mMNOLQGpF7g+OAZgT/1KQL6dsC2uIMjbXEHhVFrj38X2g54KvbdxUZj0894v5Ed2bEGnFIDXADoU7Ooh4tti3v38Km4gwIwaDtgW9yBJ4HYSN70xfqd/MiPNfD5GuACQA+fE30q/VPx75pPxb0rEGuJO2D4rwOWBZZ9+VTcuxoSn75Y/5Ef+bEGHFMDrbHvcgGgT82gHi62Nebg5FNxfxKgQdsBT8W+uwWMj+ZPf7wGyJAMWQNxB3kCoIfPiT6X/qm4Pw1CE3Dsn6DtgKfiDsVA8TnwcuBlDbAG3F8DXADoc7OnFwg+FXco71TcIQHYSB3w1wGbYw5971TcoVEgPpI7fbG+Jz/yYw3cqgEuAPSC+dDnJLTGv+ffGn9YQJZwGNoO2Bp/uBWKj+ZPf6z/yY/8fL0G4g5zAaDPzZ5eINhqqnq4Nf7wCDIBt8QfhrYDtsa/9xoSn77gA5yvD97UzwcYuAYOcQGgF8yHPimhNeG9w63x7wnAoO2ALbGHfgXERvKmL9bv5Ed+rIH498SpuMNcAOiTs6cXiG6JP2pujT8iEGuJe8/wdsC2wLavtsYfuYLEpy/Wf+RHfqwBwzXABYBeMA/6rITWxCOTW+KPCMgSjkDbAZvjj1RA8dH86Y/1P/mRn4/WQGv8ES4A9NnZ00uEt8QfHWyJPyoAg7YDtiQcSwFi38o78ejPZeiOlrijgaCWS8IiviSDlrFyaI557/ugxotjte1J11vjjjwDcqiSXW9L/NFSRGNr3FGpF8h5uz7Z64v5SUCgNeFYXkvCMQHYSF1c3SNGpdycULD4ojnheK7R+I70a0s68SOA480+0NtwZE6Obqs/4tDXUY11cXXfcHRerm6vOfFYDMQh/vgOV+c80XgtCcd6EI2t8cekXiDn7fom2t98vQ8SaI0/5o/c5Lpva8JRaDtgS8IxK5jDERm6TkwSD7UkHLsEaUk8GiiDlgfl0BJ/7AKo8QcPat8TftYSf2whwqA14fhKmXW2JB59tCXh2Cii8VTSMWkXyHm7Pplri7lJREDfDtiScHykJeG4AAzaDtiScGIFEFvP+3rj7EPflgFra+Lxo4iW1oTjL8mg40E5tCQc74A0Jp345YPa94SfNSeeWIUwaEk8Pl9mnc3xJ6ZA+hKOj8pyT96Ps7fru59mXiOB+xJoTjhxuDnhhAAM2g7YlHDit0Ds23kfD7ivOBdfbEk8vhzUUunilCccrjn+5J8wjXL01YSF3+XQnHBiJ8Qg/kT0Xc1J921LwslMSF/CCakXyHm7PukKignJS6Al8bgZvNlFS9wJw9sBm0Obv9mccOJjLIeT0KcQjuqdlsTjkZiOE+cdlYuz2mlOOFGCaGxJPJHsrNxc1W5LwokajMHJp12Vq5E4LQknShF9zQkn5V4A6OX6jPQ5fXyUQGti1eTmhJMCMf2JGsHXnHDyABK/OeHkEBLfUb6NScd/CuoQbUk1jzkqH2e005RwcgmisSn+5GJn5OXKNpsTTp5BGJyKr/6JK/OdaKzmhJM9iL7m+CqpFwB6u76J9jdf7+MEmhNODjYnVAmj1pJQBW0H1AcMo7Hv+DUl1zzu7m7UDzdqTqi6dicnQ1/jT/yru3U8KH5LQnWmIV2f1ld13oPal/1n+lbN5oSq6xiD49+VVae+QK45oWoU0deUVCX1AkBv1idrXTEviQk0JlbnNSVWCcCw7YAJtU8AsW/lnVCVIQPipsSqRkRLc2JVtgw6xsqhOak6DNHXlHiyYqy2PeF6a0zVX2H6q0ZkPu+hOblmCqhvtHF2oxSLcu9XT96u736aeY0EHkigKanGvymxWkCWUA1tB2xOrB6E4ifV7H+gSBf9sCmxZj2iozmxusxFqRoK0xhf9WtEX2NidZ2hwJI4NSXU/gzR35RYfVoSKfdNozGpOhPUJ/UCQG/Xd99O5UUSeBCBKlPVw02JNSNNiTXCqDUn1EAL8RoTa/KMxr7t93FbUtu3HqTTFT9rSqw2gTqkHkBbUup+DOo744p+cFaMxsTqZzD91VKfAtiUVFOK6auRegGgt+tzVt2zXS8n0JxYcxi68RNqoO2AzUm106D4iTVCH5zd3U1NSXVPgjpG9Qcyd+sYK35dXN1fgvquy/wR+Fi671xvTqyOwfTXSn0KYGNiTQ+irzmpRuoFgN6u706d8isJTIhAU2KduTGxViCmvzucUNC7XqxPeo2JtSNI/KbE2uV3NemWbzujjv15Y2LtDUhHUt2Tbkl+HEH1Ew8bE2uvIfqaE5qlXQT3RQgaEmsWItobE+qkPQWwJbHl0cbE2lFEX1NSncQLAL1b3xfVLn9OAmMSqE+sn9yYWCcgS6qFtgM2JtYdheIn1knx8XljYp0V0dGQWGcas6Mk+EFjQt0Qok+vNQlkGEqhKbFuFaK9KbFO2lMAG5IbpiDaGhPrpF4A6O36DBU0nUjgDoHGxLpBcACAtgPqgyMYX9TF1f3wjh53fW1MrCvDdNSud1fu44nbmFRbi+hrSqr7zXjiyPiaxoS6nYj2hqRaaU8BbEyqzUS0NUryAD5W3Xi7vrF08zoJjItAY2JDXmNSvQAM2g7YkNLwCyD2rbwT691+0lxjYl02qKNhXB3mphc1JNXvgvQl1oW7KXU4bGNSfQ2ivSGxQdpTABuT6ksRbU2J9VIvAPR2fXBxswHfJtCUVO/fmNQgEGtKrje8HVBfHNaY1DCMxG9Iatjl7l7UB3lEQ2NywzX9UCF36xgrfmNS/RpEX1Nig3mstmW/3pjUcAbR3mBqkPYUwMbEhh5EW2NSo+QLAL1bn+z3DvOTnIC+EK8hqWGkIalBGLX6pHpsO2BSY6HR2Lf9rlpN1q+5E3VrWutfgRpEY1LjT92p4UGxG5IaFiH6GhMb33hQ+7L+TH9AbUhquI5ol3UBpL4AsCGpYRTR1pjS+JSsfecIfU1JTdIucJSVO/PyMAINSY2HG5IaBWDQdsD6xKYQIPatvJMbprgbe0NS0zlER31iU6S7NYwVvzGpMQnR1pDYJPVHxWPpvvVgB90b0p4CqC+Qg/o0qVH6BYDerG+smuV1EpgQgYbEJnNDUpNArC6lxfB2QH2feUNS0w0kfn1i86sTEu2EFzckNVYiGhqSmpY5IS2HNFmf3OSHaWs+7JBEXNxIU0LTzzDdTdKeAlif1JgJapNiB85YJeHt+sbSzeskMCEC9Ymtk8GBQOg324SC3vPihqTmWjCHlnuadPl/6xMbXwI1HHF50uMM2JDc8A+Itvqkps5xhpLqZY2Jjc8guhuTmqQ9BbAxqakU0Sb7pzrerk+qG4XJeDaB+uTmwfrkZmHUGpJboO2AdclNi43GvuNXk9T6t+7shbqUlsA7uRj72nJJ1hPzmlOav29M06c1ddGdfWM0dl1ycwykO6lJ2lMA65ObexBtdSnNUi8A9HZ9RmuafiTwOQINya159cktAjBoO2BdUtOTQOybeTektLp1v3V9UtuPUA16G5/rHAkuHIro/zqqrS6u7hsSSJlQCnXJLQsh3SmtUp4CqC+Qq09uGUW01aa0Sr0AENVXl3SKCwAndLfwxR5LoD6p1R8ZDG75threDlgWWPblhuQWDcmhIbnFrX9VTz8ytz655SKiQf8UQdYiqk9uuYBoq01s+YGs2sbKqy6peRWiuSG5RcpTABuSm6cguvTJVeY/Aezt+saqV14nAUMEqkzWh+uTW0fqk1uFYUtpgbYD1iW3bDEc+1beFw5ZDn3FEAAHOdUnnToCanjJQak4vJn65NYORFtjUusvHZ6UkxusSz61E9Hs7k+lxsJTn3IqE9FVn9Qq9wJAL9c3Vr/yOgkYJlCf0na4PvmUMGp1yaeg7YB1yadijMa+41ebcuofDQNwgGNDctuyO7kY+pp0qtIBaTiliYbkU4cMabpTU0mt/k5JzImN1iefqkE0N6S0SXkKYH1yWymiqz75lNTbOr1dnxNLnk37KoG65FPmuuRTAjJgO2CVqfl7dcmnRrH4pxa5s//qU9oiofyTT513Z/4Pil2XcqoE0VaffMrtRzY/SN/9fvbvD6VnEM0NplNSngJYl3yqB9FVl9Iq9QJAb9d3v1rlNRKACOjbAeuS2wRitSnt0HbAupS2ViR+fXJbDQQBdK5Javspkr/uW5PU9hiYhlPc61Pal2DaTi12SmJOalTfkVGX3HYd0SzjKYD6AsC65LZRRJfsCwBRfVwA6KSbis3KTaAupX2wLqVdAIZtB0zpeA2Ired9w52Dbpul7at1Ke0fIxpqJf3YWH+4Q3TVmdrz5K7+z2anP4hBelPapTwFsCG5bQqoS/IFgN6t77NVyv+RgAMJ6IM0ODiM1MX1PmI0pVpT+6/A+KLe1BZsNL4j/OpS2hsgDckd2Y7Iw9Ft1JrawyBdKe0Vjs7Jme3Vmtp+BuqV8hRA+EEupV3qBYDers+ZNc+2fZxAjanDvzalQyBWndxueDug/g66NqXjChK/1tRZ4M5urE1uXwfln9Lh1u2MY7GrTW7/NaKrJrmjbqy2ZbxeZ2p/BtFbm9Ih5SmAdab2UlCX1AsAvV2fjPcKc/ISAvp2wNqUzpHalE5h1OpSOqDtgDUpXRVGY9/2s7nzRL26lA4Tln+XVcZyqkvp+DGiqy6l84yMusbKqS65KwbRW5vSKeUpgLUpnT2IrpqUDqkXAHq7vrHqlddJwCEEalM6DyMDRG1KJ7QdsNbUkQLGF/WpHT93CAwDjdQldT0J5j+qP4gZCO1UlwaT9TugruvufDCbKJya5K6FiN66lE7pTgHUFwDWpnSOIrpqUzqkPgEQ1VeX2skTACd6s/D13kOgLrnTXJvSJRDT3y0aJVKd0vl9JPYt3+5co/FRv7aktm/VpnTdQDToDxFoHo721086rE3pGkF06Q8Rjs7LWe3VpnSuQrTWmbqlOwWwJrlrCqKpNqVrtHF2/7edxRxt19v1oXzoTwJfSKA+rXNyralbQJbSDW0HrDV1W5H4NaZut/5lvTpTdzeSf11qt+kLO8oNL6g1dQ8huvTackPahkLWmrrLEa21JmuUocBOdKpN6c5ENOl17cT04Ka9XR8MiA2QwHgI1Ji6B2tM3QIwaDtgtcm6Aoit533dne9UakxdpVD+qd3rx9NPrn5Njclai+iqMll/4+qcjcarMXXXIFprU7qkOwUQrsuUbqkXAHq7PqO1TD8SmBCBGpM1r8ZkFYBB2wGrk7t/C8S+mXdtSnfAhEQ78MU1qdZsKP8Ua6MD03FYUzUm6y5EV3VqT7jDknFyQzUp1jOQVlOXdKcA1pisPYimmtQeqRcAers+J5c8myeBWwRqTN3+0EBhsorq1B7D2wGb5zZ/s8Zk/RjMAdqNgNRCTWrPv4K5X9O3RCI5OMO3xmRdg+iqNlnNzsjL0W3qixVrTNbriNbjCT3fdXReSHtHEwcfrTFZRxFNtSlWaRcAOkJfVWoPFwAiRUZf7yCgr0KvMfWM1Jh6BGDQBFxj6jkAxNbzHnJXb+iDP5i7qJnd/VN35T9W3JrUnkWYLusbY7Ut0/WapP7HMJ090p0CWJPaOwXUJPcCQC/XJ9P9wVx8gEC1qedwtalXAAZtB6xK7ZsLxL6Zd02y9XF3dVW1qfcskn9VSm+ku3IfK25NSm8SoqkmpVfq3yHf0V1rsv4M0Vlt6pXuFMDqlJ5MUJPUCwC9Xd+d2uRXEnAJgWpTrxkcMMSJlF7D2wFrU3ueQOPXmPoyXALrPkGqU3r3QPmn9C2/T7NuvVRj6vVHNNWY+qDFoa4SX23qfQbRWZ3SK90pgNWmnlJIk6m3xFX8jcRB9XnKw6kRNvQhgQkTqErrm1yd2icw64e2A1an9g0i8WtS+/ZPWLiDHKpNfS8huVen9rl1K+P9MFTPHvgHUFPn/dqV7Vp1al8MpNPUK90pgNWpfb2Ippo09z1Mj6c+UH36J47jicPXkIDPEKhO7R+sTu0XRq3G1A+946tOHcgzGvu238eHktq+5Y4OqzL1TQNzvyTbyXnVKQPfBzVddEdfTDRmlal/IaKzKrVPqlMA9QVy1an9o4imk7P7pV4AiOqrSh3gAsCJ3ih8vXcTcMAEDG0HdMAkKqpNA8+4o5fqTKd/iAy4uu+JOT0/ckfuY8U8FNH/dVRTXdzZb4zVvizXq1P7VyE6a0x9Up0CWJM6OAXRo0+u7jxX44vqwtv1fZF+/pwEnELgpGnAvyp1QCBWnTpgeDugvhuhKnVgBIzvlt+l60fnVqUOXIRyTxsMdErHAo1WpQ5cQDTVzhn8ARDeJa5Vpv5yRGOVaUCqUwCrUwczIT2p/XIvAPRyfS4pegYhgXsJ3JqAB0eqUgeFYTMNQtsBq1IHjxqOfStvtw1eVamD7yG5nzQNvHRvn7j7/1Wpgx2IphOpA790t4Yvin8ydbAG0XgyZUCqUwCrUwdLET1VaQNyLwBE9aUOeMTulC+qW/6cBBxOoDp14DA0eKQOQtsBT5oG5oPxxXHT6R86HMw4GqxKG1wG5Z52unIcYVz6kirT6UOIJv1TJZcmbCBYVergGURjtalPqlMAq1IHexE9VWkDbttNM57ug/WlDnAB4HhA8zW+R+CkadBclXpaIHYiZcjwdsDqlNO/QGLf9k12R8+dNJ2OAHM/7468HxSzKu10CajJLX3xIE13/0xfeFmVevo6olGmUwD1BYBVqadHET0nZw9JvQAQ1VeVeoYLAO++Cfg9CdwhUJU2NPlk2pCALHXI8HZAfUA+mTY0DMVH86c/1v/kR37y1sDoIYn/xPGdcZhfScBtBE6mDQ2CEzC0HfBk2lAhGJ8DsLwDMPuGfePOGnDbGiG3DegMTAITIXAy9f28k2lnBGAjdebeRyYS8+7XVqUNhQCxkbzpi/U7+ZGf7DXABYB3D7b8ngTuJXBy9ln/k2nvC8ROpJ41vB2wLuPsX55Me/8GEp++WP+RH/l5Yw1Upb7PBYD3Dvj8PwncTaDKpD18Mu3sCDgAQNsBT6S9XwvGhx5gGJsTIGvA+2qACwDvHun5PQmMQeDE7LOHT6SdFYBh2wHTzi4GYiN50xfrd/IjP1lrgAsAxxjveZkEPkPgeNo584nZ5wRkc84b3g5YlXr2SSg2mjv9sb4nP/KTrgbOcgHgZ0Z5/ocExiBQlTY8GZ2AT84+Z3g7YFmg+PKJ2ec0NAf6gw9x0g3i1MOaNlYDJ9POcQHgGOM9L5PA5wicmH1+8MTs8wIwaDvgidnDW4DYSN70xfqd/MhPwhoY5gLAz43yvEACYxA4PtuWd3z2sABspM5sN7wd8Njs8zFAbCRv+mL9Tn7kJ10NHEs/xxMAxxjreZkEPkfg2Oxhf3QCPjFn2PB2wCqT9r3js4dH0RzoDz3ESTeQsz/ZnwZqYPTQ7Avf/twgxwskQAL3J6BvBzw+2zZyfLZNGLY5w9B2wOOzba2GYyN509d4n5Md2clXA1wAeP9hnldJYGwCx2crh4/PVgRg0HbAY7OV14DYSN70xfqd/MhPnhpIU7gAcOxhnj8hgfsTOJ6umo/PUQRkqfYn7t/6F189OUf9FRQbzZ3+WN+TH/lJUAMnZitcAPjFwy1fQQKfJXAkzT752BxVIHZ8tmp4O2CbRXz12Bz1ChKfvlj/kR/5eXwNpCtcAPjZoZ3/I4HxETg2Rxs8NkcTxs0ObQc8PketMB4byZu+5M4a8IIa4ALA8Q31fBUJfJ7AsXQtDxwEsO2Ac9QUML44mqH8/PPKnHfl+LyLP0RzPjHH9iPnZTj+lk/MGfpPqJa6uLPfGH9E17zy2Gx7Oagr2jWZPjjK8dn2TETH8Tma1AvkvF3fg3uXPyUBNxM4lqH6H03XBGRzVMPbAd+be/H7UOybuau5rsQoJomHjqZrF8G8A12Z84NiHU3XLiFa9D58UPvu+NnRdK0W0XQsw/60O/K+N+bRDK0U0XE0Q5N6gZy367u3P/l/EpCKgL4d8Ei6NnIkXROAQdsBj6TbrUBs/eHliKuhHknX3kNyPjLH/pKrcx4r3pEMrRPR8l669sux2nbX9ffStTOIpuOzL/zUXbnfHfdIutqD6HgvXZN6gZy367u7L/k9CUhJ4L109fB76ZowbHM0aDvge+n2FYZj38r7uqsPAnkvXVsG5TxHq5SlGOD+z1D9ZdGi5yEs4kvvpWvXkf45Pvf8d92t6WjWxUffS9dGER2HJV4g5+363F0/jE8C4yLw3ly7+XCGJhA7NNf4dsBD6fbfIrF13z+lawHjEuugFx1KVyPAnM87KBW4mcMZ2iZEy3vpajKchAMbODTP9hii53CGNqI/RDgwJUNN/SldnQLqkHqBnLfrM9TpdCIBVxM4Mtc+GRxoxOEMu+HtgO/MPf/Nwxnqx1AO6Rr0a4iJMv9T+oWfQPlmaEKfqCYa1xmvfy9dewPSMldb5Iy8jLZ5ZJ7y95CeDO200diO9NPvKVCH1AsAvV2fI2uBbZGAUwkcTtcGD+mTkmHDtgMeytAOGI99M+8hpwK6p/G6OPFnhzLUj5GcD0uy0OzQXLsZ0XEoQ8u7B49b//unufZnQD1VbhVwO/jhDK0U1CH1AkBv1ydDDTEHEhgXgXfnaXl/mqsJwEYOAH8d8N152lwg9q28zdrj4xLroBe9O1dtwHJWsx2UCtTMoQw1HNHxboZaASXgYOd352qxkJ559h0OTslQc3+aq/ZgOuReAOjt+gx1Op1IwB0E/pSh+r87VxOYGd8OqK8hwGJr4mCGluFKdgcztHVgzmWuzHesWO/O034D6qgbq213XD+YoS1E9Bycq650R953x9QXtb47VxuFdGTKe0KevgDQm/Xd3Zf8ngSkJ1Bp0h4+OFcbOThXE0bt3bnY7+EPztUGjca+6TdP2+9K0O/OVVOQfA/MtVtdme9YsQ7OtU9GdBycq50Zq213XD8wT12F6DmQoc53R953x9yfrk5BNBycq0m9ANDb9d3dl/yeBDyCwLvz1MMH52kCMGg74MF5Wh4QWxycp358yGL7lqtgHzDbn8Ty1Ub1By9X5TtWnHfmnv8uqOO6RYJV83f0HZhnL0f0HJinRd1pyzd8xXwAACAASURBVF1fD86zZyIaDs6T+wRAb9fnrrphXBIwTGB/pt18YJ4mEHsH2A54MFObhsS+6TvX/oxhABN01B82DszTbkA5m+1PTjCsw1+uT94H5mkjiI7K7CvfcXhiBhs8ME+rRbS8K8HizAOZWimiYX+m3CcAers+g6VLNxJwHwH9o+D9mZqAzGx8O6D+bnh/pjaCxH/HbF/uSoL7M7VuJN8D81STK/MdK9Z+s3YG0aHXzlhtu/o6qmWf+cJPXJ3zvfHeyVR7kP44YJZ7AaC367u3P/l/EvAIAu9kaoPvZGrCqO2fh20H3JepHTUa+7afS/c+78/USpF892dq62UojHfmaXWQjnnab2TQoX+a8U6mdh3R4u5PM/TdNO9kaqOIhn0SLwDcnXXxUW/WJ8N9wBxIwBCBfZla3r5MTQAGbQfcO0+dD8S+mXflvIs/NCTegNPeTDUby1dtMBDW4S77MtUKRMc7mWq4w5My0OCeebbHEB37MrURd69neCdL/RdQg9QLAPdmqlO8WZ+BsqULCchBYG+m6r/PrAnE9mYZ3w64P1P5BRL7lq/rjqbdl6X9K5jvtTKL+Kq7e//mgx/S71l2s7s16PH3zVP+HuyPQXfr2Ge2Z2Ia5NhdMhZHXJ/cCxzH0s3rJCA9gUqL9vBeszay16wJo7bPbHw7oP7ua69ZGzYaW/erzHLdwTT6O04kV913zzz3/+W5vWZtMaJjn1l7Q4bi3ptt/zdEx16zVu1uHfsytc2ghlJ3aijPVP78gNn+X/W1FHuzlKf0NwSVWVrUviwtY1+W/cW9Zq0F0afzcac+xiYBryZQmaUertQnUuMGbQfcY1YLgdh63lcrTeJrruqkSrN2Fsl3T6YW6apcx4qzx6wmIxoqzXKsOq80a7Ggju1jMXLV9Uqz2oNo2Jtln4fmWjZn6D/tz1T+ep9Ze3yv2f5kpdn+bKVZDdtj1tL2ZGmWPVnasr1Z9gL9YbsyUztWadbabt8H15Dcx+kr9Z84RtnTnwTcSmB3lt28J0sTiO3OMf7XAXeb7SFIbN13b446xVUQd2dpe5B8K7Ndu3Phflx2Z6v+iIY9Werh+7Xr6mu7zdpCSEe2/U1X53x3PH0B4J4sbRTRUJml/ovepj6Jl3/BJL4ny16wJ0ut2JOlHduTpbXtydLO7snSriHxne27O0feEw7v7kt+TwIeSWCP2f5j9CauzAa2A2Zf+c6eLO0GkkOlWXvNVfB3Z9tfQnLdk6UdcVWuY8XZbdZ+CWroHKttV17fk6WugnSY3XsKoD65QfnrD+5m7cKeLO063A74JsBJ8Ud3WC5825U1xVgk4FMExCTx0O4sbWh3liaMG7YdcHe2Vms89s28W13VaRXZ2jQw10s6c1fle784u7Mu/gDUcPF+7br62u4s+05Qh8NPAdR/J77LbP+vFeYLP6nIUp6qyFL9dmdpUbuztIzdWfYXd2epK3dnaSW7s7S9u7PsVjB/4J5F7ndX+cq9wNHV9c54JOAUAhU5Wl5FtiYAg7YDVmRri4HYN/Pemav9rVPg3NNo5fyLP0RzLc+y/eieZl36X/3jYlRDheXsN1ya9H2C7crWahEde7K0f71Ps59+nL7LrD2+y2x/siLX/mxFjhpWkaOlVeRolopsbVlFtr2gIlut2J2tHdudrbVVZGtnK7K1a0g+9P3cGCT1nzi+X+3wGgl4HIHybNV/V7YmENPbMCq8PNv+j0js277RRuNPxE9/974rW7uE5FuepQVOJKYzXrsrW7uIaNA/RXBGXhNpszxbG0I07MrW3t2Vre3dla1VlWdrXbuyVduubO062CZ0HzH2f4xDFTn4AseJ1BNfSwI+SUDfDlierY2UZ2sCsDVG4R2yiK+UZ2sXgNh63luMxp+oX3m2dgTJdWe2/aWJxnT068uztE5IQ672S0fndG97el3uyb3w33bkXPhpeY7yz7cfVKN3ZWtzdYbl2Vpzebb2CaKDvtA9j4wXX+i76/YCx3vrgv8nARJwMIHyHPVweY4mAIO2A5bnaFuA2HreF/QHCQdjuW9zu7K1ZWCulfdt2IUXd2XbDyEaduVqAeNJ987q9F0LtMd35dqf3Jlrf3Znjhr27/2VVp6jWXSWO3PtBeW5akV5jnasPEdrK8/RzpbnaNeQ/OgL3cvIOOAoXy4AHM8NxteQgCMI7Mi2Z+7M0QRkC+w/NprLjmwtGoqtP7xk2//RaPyJ+O3IUSPAXM9OJJ4zXrszR9uEaCjPUQt36u/Ec+0vleeob91ub9/OHK16R47WvTNHU3bmaJ8gMegL3o/o/exefyl2mjjj3mObJCAdgZ0L7D/ekasJzIxvB9xm0b6Hxb6Z+2JXgNU/kkZzLbPYHnNFrndi3Fmdvn3BhZ/smK88tSNXrUA10B+9X+g/Vg3tzNWW3aldfiUBEnABgR3ztcHtuZowbth2wO25Wqvx2JrYnqPVuADTJP08/+256sdIrjty7E9PNNebH6dblL/eukB7fPvtj9O356hhO+Zradvma5btudqyHbn2gu25asX2+dqx7bla2/Zc7ez2XO0akit9kXuCvgbqZ3Q7cLjYRO8rvp4ESGDSpEnbcpW8bbmqAGykyKI9bBTm1lztNSC2nveN7Zbz3zUafyJ+23LVBiTX7Tnq0i3zlae25ap+W3O0qG05Ssb2+eqL23LVldtztZJtucrebTlq1bZctWtbrmrblqteR+LRF6pr5J6g78THlBUTuRf5WhIgAQcQ2D5f9d82XxWI6W0YTWXLQnUKElv33Z6rBBuNP14//eP07fOVUjRX+mO1Rn7ex297rnpwg6X/6+O9F/k6EiABBxHQ371vna+ObJ2vCuNm/K8DVpqsX9s6X71qPPbNvAvHg0OfxMuet//X7QuGf/LpO/EFWtS2+UrG1tvvxLfO10q2zFf2bp2vVm1doHZtna/ats5Xr4P5AWyRfqEv+03qGrixNVddwcl/PKMXX0MCTiKwZb56aMt8VQA2hKS2Zb5aAcTW87ZtuT2Jb8lVV265PYlvuT2J3/q5eh2MgfChL1Zf5Oc9/K5tma+e2rJAXaava0HGDfqSAAk4gEDpfNVctkAViG22GP/rgGUL1BQkNn2xviM/8jNQAx+VLVDPli1Q28oWKMfKFqgVZfPVAn1iL12oWMrma2lbFqhhpQuVZ8ty7U/qk/0mi/LXFov4kgOGLDZBAiTgKAIlFvvk0gWqAC3TaD5l8y9+H4yN5k5/vP/J0PMYflS6QD1bukBtK709iW+erxaU3jWJb75rEi/hJG50iKMfCchNoHSBOohMwmUL1EOIwtIFqhWJT1/4AY4TuOdN4HqfcRJHBh76kgAJTJq0+Xklb/NCVQA2Uma2P2KU5ebn1RVAbCRv+mL9Tn44v49KF6pnNy9U2zYvVI5tXqBWbF6oFpQ+ry7btFCxbF6opX36Tvx5+5N8J250lKEfCZDAfQlstqj+mxaqAjS/+zY+joubLcpvwdho7vTH+9+XGX60aaF6tmSh2rZpoXJs0wK1YtNCtWDTPZN4yULl2RJO4uMYEfgSEiABlxHQtwOWWNSRkudVYdgsxrcDFsw9/80Si/qx4dhI3vQ13ufew+56iUW1lTyvdpVY1KqS55W9JRatpOR5dWWJRX2xZKGSscmiRW1aqPptsihPbV4w/BN9S+m6TOXPXXaTMhAJkAAJOItAyfPqoeLnVQFYG5Jb8fPqASA2kjd9sX6Xhd/1YotqK35e7SqyqFVFzyt7iyxaSdHz6soii/pi0UIlo8iiRRUtVP0KLcpThQuGf5LPSRy5ZelLAiTgLQSKF6pmaAK2qB8iLIotylwovndMYrJMpu7M46Nii3q2+Hm1rdiiHCt+Xq0otqgFxc+ry4otiqV4oZZWbFHD+HE6crfRlwRIgATuIqBvByyyqAKxu5qb8LcFFvsTSGz6Yn3nYH4fFVnUs0UWta3IohwrsqgVRRa1oMiiLiu0KJbCF7S0Qn0Sf+H278QXcZ/4hG8YOpAACZCAowgIIR4qtKgCMTQXJDZ9sb67h9/1QotqK7SoXYUWtarQouwttGglhRZ1ZYH+cfoLtz9Of+H2x+mLbn+c/gp/J47eA/QnARIgAbcQKLCoAjE0aSQ2fe/bdx8VWNSzBRa1rdCiHCuwqBUFFrWgwKIuy7/rnXjBC8qz+c/bn9zId+JoCdOfBEiABDyTQP4LqkAMVY3E9mLfj/JfUM9ufEFty39BOZa/SK3If+H2JP6CYsl/QUvbuEgNu3sSX8djV9FSpD8JkAAJ+BYBdBJFaaHxJfbnJI4WB/1JgARIgAScR2DjC6pADM0Mie0C34823n4nvvEF5djG2+/EN1rUZRvueie+4a6P0/lOHK0I+pMACZAACbiEwIZFqkAMTRKJPU7fjzYsUs9uWKS2bVh0axLfsFgtWL/o1iS+YfGtj9P1SXzdi7d+J85JHO1V+pMACZAACUhPYP0iVSCGCkRi677rFisZGxZpUeteUP02LFaeWsfV6WiX0J8ESIAESMAXCKxbrE+ixg1lhMTWfdH49CcBEiABEiABnyTg7gnY3fF9stMpmgRIgARIgATWLlYFYihBJLbui8anPwmQAAmQAAn4JIG8F1WBGAoNia37ovHpTwIkQAIkQAI+SWDNi6pADIWGxNZ90fj0JwESIAESIAGfJLD6RVUghkJDYuu+aHz6kwAJkAAJkIBPElj9kioQQ6EhsXVfND79SYAESIAESMAnCbz9kioQQ6EhsXVfND79SYAESIAESMAnCax6SRWIodCQ2LovGp/+JEACJEACJOCTBN76vSoQQ6EhsXVfND79SYAESIAESMAnCbh7AnZ3fJ/sdIomARIgARIggZUvqwIxlCASW/dF49OfBEiABEiABHySwJsvqwIxFBoSW/dF49OfBEiABEiABHySwIqXVYEYCg2Jrfui8elPAiRAAiRAAj5JYPkfVIEYCg2Jrfui8elPAiRAAiRAAj5JwN0TsLvj+2SnUzQJkAAJkAAJLPuDKhBDCSKxdV80Pv1JgARIgARIwCcJLH1FFYih0JDYui8an/4kQAIkQAIk4JME3nhFFYih0JDYui8an/4kQAIkQAIk4JMElryiCsRQaEhs3ReNT38SIAESIAES8EkCS15VBWIoNCS27ovGpz8JkAAJkAAJ+CSBP76qCsRQaEhs3ReNT38SIAESIAES8EkCr7+qCsRQaEhs3ReNT38SIAESIAES8EkCr72mCsRQaEhs3ReNT38SIAESIAES8EkCr76mCsRQaEhs3ReNT38SIAESIAES8EkCr76uCsRQaEhs3ReNT38SIAESIAES8EkCr7yuCsRQaEhs3ReNT38SIAESIAES8EkCf3hdFYih0JDYui8an/4kQAIkQAIk4JMEXv6jKhBDoSGxdV80Pv1JgARIgARIwCcJ/P6PqkAMhYbE1n3R+PQnARIgARIgAZ8k4O4J2N3xfbLTKZoESIAESIAEXlqiCsRQgkhs3ReNT38SIAESIAES8EkCLy5RBWIoNCQ2fbG+Iz/y84IauP7iG6r9xTfUnheXqO+8uERd9tISZablFeWv0bGJ/iTg9QQWL1EFYiggJDZ9sb4jP/Lz4hoYXbxEPfniH7XZljcufBsdp+hPAl5JYNEbqkAMhYLEpi/Wd+RHfj5SA1dfeENd/tLS4b9Cxyv6k4BXEUAHABQGGp/+nMRYA6yBcdbAlcVvqNkWi/gKOm7RnwS8gsALSxWBGAoBiU1frO/Ij/x8tAbqLCvU/4mOXfQnAY8nYFmqCMRQAEhs+mJ9R37k58M1cMmyVPkdOn7RnwQ8msDzSxWBGCoeiU1frO/Ij/x8uQYsS5VRy1I1BR3D6E8CHktg4TJFIIYKR2LTF+s78iM/1oAyunC5Eo+OY/QnAY8kgA4AqOiFy5TLaA7050TGGmANADXwieUNdSo6ltGfBDyOwIJlikAMFbxgmdKGxKcv1n/kR36sgZs1cHn+MtvfoeMZ/UnAowjMX64IxFCx85epS5H49MX6j/zIjzXwaQ3Uxa0Wf4aOafQnAY8hkLtcEYihQnOW2Z/IXa58guRAX6wPyY/8WAO3a2CZMhcd0+hPAh5DIGe5IhBzhNCc5bY3kRzoi/Uh+ZEfa+DTGrg8b6XtMUeMa2yDBKQnkLNCEYg5QqDFIr6as1w5iORBX6wfyY/8WAO3a+BN5XVHjGtsgwSkJ5C9QhGIOUqg/hCQvcK2InuF8gmSD32x/iQ/8mMNKFf5B4QcNbKzHakJZL2pCMQcLc78pvZ41gplSdYKW2vWm8oVJDf6Yn1LfuTnszWwQklw9NjG9khAOgLmNxWBmHSCmBAJkIDPEJj72vlv6m8azCtsaZkrbK3IWHa3b+abthM+A5FCfZfA3UVv5HvfJUflJEACMhEILBNfNr+pJpvfVK4ZGcvu8bmR/eblv5BJH3MhAYcTyFypCMQcnhAbJAESIAGAQNYq9V8y31SuIeOa7jvvLVsgkAZdSUB+AvP0QgdMfoXMkARIwNcIZK5UU5Bx7bbvK77GjXp9jMDclYpAzMdwUS4JkIAHENB/HZCxUjmFjG1zVyp7PUAqUyQB4wQy3lIEYsYj05MESIAEnEcgY6UyBxnbMt5S2pyXHVsmAQkIgDeIkEACUyABEiCBzxGYu8r+BDi+KZ9rlBdIwJsIpL+lCMS8iQW1kAAJeA+BzHXKnyNjW/pbyofeQ4NKSOA+BOasUgRi92mSl0iABEjA7QRMy7WHkbFtzlvKVbeLYAIk4EwCs1cpAjFn5sa2SYAESMAogdRV9ieQsW32KptqNDb9SMAjCKS9rQjEPEIkkyQBEvA5ArPfVtKRsS3tbVurz0GjYN8igN0gChcB+la5UC0JeAQBfRtg2ttKGzS+rVIqPUIskyQBowRS31YEYkbj0o8ESIAEnEXAtNqWioxrN31XKzwIyFkdxHblIGBarQjE5FDBLEiABEjgFgHTGvVXptXKCDKu6b6pa2zTyZQEvJpAympFIObVcCiOBEjAYwjoH/vr7/xTVisjyJh22/eTZP4xII/peyZqkEDyakUgZjAs3UiABEgAJpC00vathFX2J5LfVtKTVyttyFj2Gd81yjE4OTZAArITSF6jCBoZsAZYA6yBu2ogT4mTfexmfiQAE0haowgaGbAGWAOsgU9r4Ercavsj8ODKBkhAdgKJaxRBIwPWAGuANXCrBpLybC/LPm4zPxJwCIGEPEXQyIA1wBpgDSgiYY1yybT+3HccMriyERKQnUB8niJoZMAaYA2wBhQRl6fMln3MZn4kgBMQ4qGENcMBvOk58LMGWAOsgZufANVYLOIr+ODKFkhAYgKx69Vfxa1VauPWKoJGBqwB1gBrQLkSu0b5HxIP20yNBDACMXnKz2PXKkdi1yqCRgasAdYAa+BmDVyPXWd7Ghtd6U0CkhLQD8uIXassiVmnfBKzThE0MmANsAZYAzdrYDRmnS1a0qGbaZEARiB6rfJM9DplIHqdImhkwBpgDbAGPq2BT6LW2SKwEZbeJCAhgYgN/V+PXmdbyZv905udD0B8CGQNsAbu1MBF/c2RhEM3UyIBjEDEBtvfRa1XGqLWK4JGBqwB1gBr4DM1UBObzwV/2CxDbykJRK0bDohcr1yKXK8IGhmwBlgDrIFPa+BS1DplHrf6STl1MSmUQMQGJT1ivXIjYr0iaGTAGmANsAZu1sDliA3KG5E84Q+dYugvIwGLRXwpYoO6NHyDImhkwBpgDbAGlBvhG5Wj4RvV5OAi7WEZx23mRAIwgbjV4s/CN6hlvOE56LMGWAOsgU9roGiSEA/BAywbIAFZCQSWiS/rk3/YBkW4yYbDN9j2h69XXgnbYIsKXT/8/wWv1/6X/lFbUPHFR/UbMLBMfFX/Pmr98A/C8ocnh2zQfh26UU0O22hbofuGbVQUN+WuM1vDQULW6mZeem2GbVTy3Hh/ePT9Hb7B9ibvb95HXklA/9g/ZKNSGLpRES60D0M3KDtvTuAOWkV7U8e64Z+EblTmhG5UKkI3Kh+5UI8I2aD80SsLhKI8nkDYBnWpK++F0I2K193fofnqcj4EePytQAGfISDEQyEblbUhGxXhArsRslHZG5yvhkStU/78M3k44T+Bq+2PhOQrMSEblSMhG5VRF+gTwRuVhU6QwiZJwDCB0I3qi66o/ZCNitff3yEb1JcMdwQdSUA2AqEb1eyQfEU42a7oT89BG2x/5y79IYW2H4XmK2tC8pVrTtaqs4x3l07GJYG7CQTnq0kuqHefur9DC3ji3901xu89lEDIRuV3wfnKjeB8RTjJPgzKV/4YKNGWmeAi7XtB+erS4HzlIydp1lmOzMq3PemhZcG0vYTArALl/9Vr0Yl17qv39zWdrZeUCWX4IoHQAvsTQfnK5aB8RTjH1DJ9spWV7YyNwz8MylcqnaP95gPVOZn1y9ovzMsxBGZuOPffg/IVm7PqOyjft+/voHxF0xk7prfYCgm4kEBowflvzspXumcVKMIJNjAj33P+HGZQgeo/q0AZcgIHnW3108utX3Nh1zIUCUzSa25WgdLgpJrm/f3puGk78dQh8RWWHAl4FIGZBcqamQWKcLgVqltubtnzKBqTJgWW2R+ZWahucTgPnXG+7Q8ehoPpejiBWYXKq06pZd7fnx8z87ko0MNvF99Kf2ah8jsnDA4fzyi0RXo0SSEempGvpM8sUEYczOeTWfnaP3g0GybvMQT0303PLFBuOLiGeX+P/YbpxqwC9V88pkCYqO8S0BfjzShUbDMKFeEom16oDM8sHP6lt1CdXmz7PzMKlQuO4nO7na5nV5/9hrcwog45CejH1M4oVAYcWbu8v8c1VvYGlg39JzmrglmRwG0CMwqVtdMLFeFA6/HGhTCBRed/PL1Qed+BnPQHLh4SxDvRqQSmFypLHFmz0wsV3t/jHi/5qwCnFjcbxwjMKFL/78BC5UZgoSIcYgVKR2C++jdYVvJ66w82gYWK1SGsbjEfCShR/6e8ipmZJxMILNL+V2ChMuKweuX9PdFx8preB55cQ8zdSwnoR+ROK1KqphXZhIPMOqtk+K+8FNensmZuOvffpxXZ3ncQM519xaeN8xsScCCBwCLlgAPrlPe3kbGyePhdB3YpmyIBxxAILB4OdeDgMBxYaPuRYzKTvxX91wHTimwXHMUvsHD41/KrZoaeRCCgRHnWUfU5rcjG+9vI5H/bx794+FeeVDvM1csJ6H/lL6DY1h1QbBMOsI8Ci9X/7eXIPifPv9j2fwKKbSMO4CcCSmxN/IMin0PMC0YJCPFQQLGt3iG1WWzj/Y2Ok0VKFe9vo8VMP4cTCCgZDvEvtgmHWIkS4/AEPaRB/yIlwyEMbw0w/+Yhspmm5AT0d/+Oqkt/3t8OGSf9is8/J3nZMD1fIKC/+/crtnX4FduEAyzfFcz88s/8hX+RbYZfse0l/2Jlh3+xzepXbLPftst+xbaLfiW2Jr+S4XK/4uEl/kXDfvpBPk7PTYiHbsV0CMv3nJ4vA/gEganFtloH3Nv6+OCy+/u5EuVZvyLby37Ftndu3svFtiG/YtuHfsXD127f511+Rba9U0tsb9wcCwrOf9fpnenA+9tf/xSA/0jA3QSmlgwHTC2xCdiKhwd/58Q/3/tM8cVHpxYrcVNLbPunltiuG8j3+nObbMeeKxlO+k3B+W86i3tg2aX/PLXENmQgv8/1gV/JMA8HclZH+Ui7vytW/tkRtTjVyfd3YJntW36bbFFTS2zHp5bYRg3kPPrcJttJ/f7Wxwpnda8j7+/nNp3/f5yVJ9slgXERuD2hfm7ymegN6Fdi+9dxBZzgi25O/JuGF00tsV2aaE4PeL3db5PtD/6Fyn+ZYDrjermjHqr8SmxbxhWQLyKBMQhMLbZtfsB9MO773ln3t/5p3tQS29KpJbbLjsjzdhtXppYMvy77/T21eLh4jG7jZRJwPoFn///2zjy6qfvK4ySdpG3abMY2OxhsjDG2WRwDBgM2NmCDDVmaZjrNdElO0oSkyTTpnC6ncyaZ7k3atJ2kS9KezMmZeJFkLZYteZH3lDaUNltpmpImnSyge58NJgSMIfhNf4ALobYkv/uTF+n7xz229X73d+/9/O73+Ul6y1PB+Tsq+dSOSjYltr2SKnVnq76a2PE0f2lHJfdJcgvj26feMahLIHXnv6OS/WFiR8CcBtQOUndumC8+CFz3VDB5RyUNSPswGvq+/efmJduf5nt3VFKvNL8Q/keurTTuj8bDeHTpO1oHKfHR4ahSRGBHFX9zexWbQuu/tkrvIy/VfNuruFuYV8R17ajiXdttxiIRzAuct9s4bXsV94trqOa7L5gaf4JARAR2VPOXxf1XxVHRd0U179GQW0QaV7GurabUiKBFOEifvo37IgyJYSCgj4B611tRxW9VVLEpse2Vxvf0ZTVlSkUlXVtRxYclOVn0Pbi9xijSWks1/9hiLufWpJr36MwJc8UPgfJqflHaf9r1Xc1lFVXUK83Lgv/h8kqjQufqV+jQdxXv1pkT5gKBiAhUVAdXl1exKbRjZbYDSREFjGDQtkq6ubyKTwpzEtREA9sq+dMRpBrRkB1VvXPKq2hAWs+26p7FEQXEIBA4S2BrtZEu7bvyKtar72rj9vIqPqUhL6saP1lRxbfqahJd+lafJujKCfOAQEQEyqv52+XVbMrM+ElEwSIYtE3tHKr5lCwfaT2n/Qe31eg7CCiv5iekNVVU0RcjQIghIPB3AuXV/GVp35VX69N3RRX960TRt86DAB363lbFX/37wuEXEBgLAtuq+Y/bqtkU2CldR65l1Vy2rZpPCXKR1DGMLw1s0/R1gHontq2aB4W1tY1FTyBG7BDYVs2/FfacNn1X1NC126r5pDCfYXRqef91srxGz9cBWvRdxd2x03moZMITKHfwwq01bMpMz0MtSqsOpGytoV5ZLtJahvU/qMStnO4t4gAAGQ1JREFUYzG31vAzsvpoYLvHuFxHLpgj9glssR1O2FrDp4Q9p+WhNWf0zX2yXIbVp3D/xX1lmk4MlOubT0Dfsa/LCVNhWQ3fUlbDpsiq6VPSgnJ/bl5SWsN7RHlI6wjhX2rjX+m4RLDUZtwur5GulfKGf3wQKLUZ28X9pkHf6lLeshruFucSQqOSudW+R8clgjr0vbXaKI+P7kSV406gtIafKK1hU2BHC238UWkhW2x8ryAHSf4R+26poTukdaqbGZXWcL+k1rIa47vSPOAfHwTKauhhSa+V1rAWfZfV8JeEeUSsU8txbPLL8HToe0sNPxIf3Ykqx51Aqc34Q6mNTYHVS4sodr41tdRGvYIcJPmPxrdvq42nS+vdYmOfsFacByBdhDjxL7XRs8JeE+v79D9FG/cJ8xiNTq2OfWeC6BvnAcSJPse1zELXoau22PjUFhublq2G75IWscXGP7QcX5K7Bd/NNfwtab2ba+iLwnoP6/g6QloH/Cc2AfWx+xYb94t6TYe+7fRfohws6NRqvFK78ZB0VXXoG48Ilq4C/MMSKLFxwWYbmxLb5OCFYQOFGKC+Pths43ckOYytL/VWePdfFqKksJu2VBsrxDk7ejLCBsKAuCZQajMWSftMqm/17n+zjQ9L8xhD/yMqZ0nj6ND3FtwPQLIE8I2EQImdP7vJzqbAeqRHqpsdfIsgviR3674O2bkA6t37Jjv1iuq20XWRrDHGxC+BEjtdL+oxO4v1XeIwbhPmYF2nFvdtJTa6U9I1OvRd4qAbJDnAFwTCEthk52+V2Nm0bDZuDBskzIBNdv6V5fj/mPuLm2x8b5HjwBL1mN9825sf3uzoydjk4LtK7PyCrjjFNu4MU1bYzSV2IyDKx2F8IWwQDIhrAsV24z9EPaZH382iHM7TeLGNn1f/nItsxqIbbeal6qx9pe8SG99dYucXdcUpsfMuaeOI9W3HDb+kawD/MAQ22dkuEU2xnb8TJkTIzYWV+xNL7DwoyeGs73G1Ywj1vbjapsaU2LlfQ7wTZf/be0XI4sJsLLHzY5I8Ntn5R2FCYHOcEyi28xOSHpPqW53cW2Lnk5Iczvr2F9uNz4X6tPH0u24H3aFJ34PS25pD33EuvslQfrGDdxc72LRstcbtkjo3OowKy7HP5X28uDbyB/eoscUOPiaNW2IP7pDUXuzge2Q5GG5JfPjGPoFiB3tFPSbUd3Et3ySKf0bj/Rb03S+Nu9HON0o6RKxvOzsl8eELAmEJbHTwvo0ONq1acS2VhA0SYsBGB3/bauxzfqP/Pn6jg+4852+xfjs9HKK0sJuKnVwqyaHYwb8NGwQD4prARgfvFvWYXN/fkMRXvqff+Y9yFYvstFMat8hB3x9l2PcNh77fhwN/TEQCRbVsFDnYtGqFwjPRC+3cbDW28tvo4BdDfew/EnPlo3wlsQuFR+iFNl4miV/k4D+NVB9eBwFFoMjBb0h6TKrvIofhlsQvcvDzoT72H2mVdei7yM6i+x9I9b3RwX8eqT68DgJyAqZ5UWEtnyysZdOqras1ZkgSKazl563GPu3n4Hutxi908N2S2Btq+XdWYyu/4lpaIIlfWMtvSeLDN/YJFNbyIUmPadD3nyXxNzisn42vQd+vSDoE+pbQg2/UCajr7yXiVL7qLHtJooW1/KYkh2Jbb6bV+MpXEruwlnusxlZ+hd79icL4hyTx4Rv7BApr+V1Jj2nQN0viq7P9ra6SBn2z1djKT4O+D0riwxcEQhJY6zEu3+BkU2JTHjAvDhkkzMYNTj4mia9qCBNixM2bm4IfkcTe4OTDI04ewYYy374PCuOfiCAMhsQxgQ1OGpD0mAZ9H5LEVxqxuny53v2XSWJvcPJxq7GVnwZ9i+JLcodvHBBQR/frnWxKLNNmXipBtd5JA5L4knco6gBAEnu9U/YJgHr6oTD+MQl7+MY+gfVOHpT0mFzffFQSv/DJ1z9kdZVW+XqvkMRe7+SjVmMrPw367pfEhy8IhCSgbqKxzsmmxNRRdsggYTauc3KPJP56Z8/iMCFG3LzO3Zspib3OyftHnDyCDSW2g1cK4+Mjwgg4x/OQdU4+IekxDfo+JIkvOQlxvTuYLYm9zslvSHpHg77xFZ9kAeAbhoBpXrTOxabEij00LUyUkJvXuXifJP56p/UHEa1z8eclsQvc/HLI4sJsVCdYSeKvc8kOQMKkh80xQGCdi3skPaZB389L4kv0XeA07pPEXufi30taQKxvNx+QxIcvCIQlUODiowUuNq2aOsoOGyTEgAI3+63GPu3n5BcsfU/5gHlxgYtfEsV2cW2I0sJuWuMMZgnjvxY2CAbENYECF78m6TGpvte6DLckfoGLX7Sib/UUxAIX7RXFdrNf0jxSfa918euS+PAFgbAE1rr41bUuNq3aOlewOGyQEAPWuvgRq7GH/Na4Rn+pUIGT7xryt/zTTQ+GKC3spgInl1qOfWbN9oQNggFxTWCti5+T9JhY3076gSS+8rWi7zVOvkcat8DN35A0j1Tfa1yyy4wlucM3Tgis8XD3Gjebls1j3CZBtdbNN1mOfS7v/rWeyG8FrMaucfNxDXE/Jql9jce4TZSDC7cClvCPB981Lm4W9ZhQ3/luuk4U/4zGj41G36vdVLLGzSekcde6eaukR8T6dpNHEh++IBCWQL6Ha/LdbFo3+kHYICEGrHEGk/PdPGg9/t9zP7ZafRIQ6rLEB8yL8918V76bj2uId6KgXvbM8NUeeliYx6Mh0GITCExZ7abHZT0m03eu7eCV+W4+KcvhtMb717hpZyh9q4/98z18b76bT2iINzje+l7t5sfQwiAQVQL5Lv6hUCzixwHnu43fCHM4/wDmxXwP373K3Zt5+kZH7a9/SP2+2sWfz3fzSxrj6Kg7IMzny1FtDkw+6Qnke/grwh7T0Of8jDCHYfWtrlBQ9wHJdwez17iM+/PdtFdjnC7p4ue7DZG+V7v5q9Ic4A8CIQms9tAdqz1sWrY66rVyr+7zk1pVRzstx5fkLvKVffWh6l/t4R5J3fl1xifO54jfQeBCAqs8xj9Lemx1nOo7302fupDlaP+W6nt1HX98tDExHgRGRWC1h9au8rApsby6A0tGFfSCwfm2wwmrPHxEksMY+/ZJPx5Un0qIc3Zbvw3yBUuAP2OUwCqXkSvtM6m+c5qCH1nl4YPSPMbQv096/wMd+s739mTEaFuirIlCQN0ta2UdD66sY9OyeUf/ON4L61/lpYctx5fkbsXXQw9cmP9o/87z8j3Ceo+q7zxHGxfj44uAupPfyjo+Luo1DfpeWcffEeVgRacWfdS+SNol0LeUIPzHjEBeHb+eV8emVVtZxw3SZHNrjRkr6/iI1RzG0O+gOrFJWm9eHXuFOf9amgP844NAXh09K+k1XfrOq+M+SR5j5GtIP91TXSXXNz0bH92JKsedwEoP24XiOi55KM8QgDyPcb8wD8sHMRHH9Rj3D+Vr9ac6gMir4/6IYw53cOY1fmI1Pvzii0Cehx8V9Vod69F3He0U5hF1fV/j4bul3aFF33W4AkC6DvCPkECul+64xsumxPK8xicjDDfiMPVsgmu8vEeSR5R920NdhjRiYRdsyPPyZ6V55uEEoQuo4s+RCOTV083iftOgb6Wda7y8S5pLFP13q33QSBwjfV2Lvuvp+kjjYRwIiAis8HBarpdNobWJkjjrnOuj1FwvHxbmIq1lOP9DuXUH5+qo8RqvERDW915+4+EEHblgjtgnkOMMJud6+ZSw57To+xqPsSjXyweFuQynT+lrxkTSd7bwHiOx39WoUCuBFfX8+govmwIbXOblhTqSWuE1KlZ4+aQgF0kdw/meWFFnlOuobbm7N3OFlwcltS334vtBHWsRT3Os8PJuSc+pntWl79x6o2iFlwaE+QynU6uvvbe8nkp09IMOfa+o49/qyAVzgEDEBFbU0+PL69kU2o8jDhhm4PJ6vnV5PQ8K85HWo/zfW+Hlm8KkG/Hm5Q3GT8U1efnrEQfEQBCYMmXK8np6UNx39axN38vq+dMTRd/LGvgzupoE+tZFEvOMKQF1BKxhB3Esr4Gn60r87EHASQ15WT0QeE/nzkGxWV7PR6X1rKg3cnUxxjzxQWBZXU+etO+W17NWfZ85CKABDXlZ1fcJnQf3uvSdUx/Mio+uRJUThoC6pnxZPe9fVs+mzIyHdBaV4zUqltVznywnSzUZuj4WHOKxvJ7/W14H7R2aDz9BYDQEltbzy/L+06vvpfVG0bJ6PijPa9QaP7S0Qc/XekNroEff/NLQfPgJAmNKIMfHjyxtYFNo/Tl1wfk6E8/yUerSBt4jzGs0de3WdULQEIdl/gMpSxv4uIYacP//Iaj4OSoCOQ38FQ39p13fSxuM9KUN/CsNuUWmcR+3T2B9f21Ui4rBIKCLwDJ/T15OA5sarFZXTkPzqMtzljYY9+U08Dsa8hu+Rh/3ZDfwXTouBRrKe+jn0gbDpSHvU1lNvXOG5sRPEBgNAdU7OQ18SkMfate3ukQwx0d35jRwn4b8htd3Ax9c6vvbfTxCPTF0NEDPG6tL37rfPJ2XIn4FgfAEsn28O9vHpgYrCx9t9CMyG3h6js94KNvHRzTkOFRnX46PHo7WpTdZDUa5llz97B89MXiAwDkCWT5u1NKLPo6avrMb+NvZPurVlKfSeF9OAz2wzHXoqnMk9P2mTd8+8ujLCjOBgAUCOX7jE5qE91a0/qGqstTcOX7ame3jXdk+HrSQ82B2A3fl+OhT0gd/hMKsdjrZPvo/C/kNHZyc+9mo51KlUPliW2wTyPLRZi296OOo6ltpMquB7sj2cWe2j09YyPnEmYMd47Zo7od06jvH17MxtrsP1U14Aurj7ywfv5HlY1NqS3z09FgUvNx3ICnbzzcu8dP3s3zckOXjP2X52Mjy8fEsHx89W89z2X72Zzfw17P9vDWaO4Xza872sV3K8az/c+fPi99BwCqBLB8/p6Mnx0rfizzG5dkNwR1ZPno4y8fOLB//LsvHlOXjg2ctmOWjvVk+dizx0YNLfPyxSajvF6yuJ/xAQCuBLB99cYmfTT1GO7UmN4kmy/Qbn9PDkM1Mn/xWy5MIHVKNIgHVS7r6cokf+tbBMstPN0dxyTE1CEROQD2/O9PPBzL9bGqwE5l+Log8emyMzPAZGzL9NKCBn1qDv+TuMS+JDTKoYrwJqF7K9PM+Tb0JfYv3k8YfpuDR3uMtC8Q/n0BmI92x2M+mDsvwM2U0GOnnzx/Lvy9p5LTFfu7RwU7NkennG2OZF2obewLqY3Jd/Ql9C/eTPrp27DsAEUEgFAGb+YHFjfzHxY1s6rCMRn5zccP+eaFCxsI2danV4kZ+TQezs3PsmmKaF8UCG9QwsQgsbuRuXX0KfVvbT2Y08m7oe2LpAtmcJbDYT9dlNJKpz4Ivp/l6Z8cq4HRvz6zFjfSqPl40mN54YGWs8kJd40sgw0/5GY00qK9foe9RsjyV2RRcNb5dgOggEILAIj/XLWokU6P9NRa/Dkhv6slY1Eiva+Rkpvvpf0IsDTaBgJjAosbgL3X27KJGgr4j3F9mNNKj4gXEBCAQTQLprT2z0puoL72JTI1Gi5ppbTTzHsu5M5poTXoT9Wjko1i/PVaXMo0lK8SaWARS2g9dpXpNc+9C3+H3l2+n+XqvmFjdgGxAYBgC6Y3B2xY2kanZBtKa6M5hwk2ql9Ib+e6FTXRcMxtzYVOwfFKBQLKTlkBac3C7/v4l6DvEPjO9CSf+TVrBxF3ipnnRwmZqXNhMpnZroqfn1vddPdmYqndOaS1crZ3HGcZPTjYeyHdyE0hvpqei0svQ93D7zJ9N7m5B9nFHIL19f2JaM7+R1kxmFOyt1Kbo3Fs8Ggul3jGlNdPbUeCg2L6yoOXgldHIG3OCwEgEMtv5o2nNtDdKPQ19n9tvvjR715sfHmkd8DoITFgCaS3B1anNNJDaTGaUrHZRk95HCeuEmdZKqQuayR6l2s3UFnonLXAgU2fOmAsEIiWwsGX/4tRmOhK1/m6m+NZ3Mx1NazywJNL1wDgQmHAEUlv48wtayIyi9acG6OGUdp4+UYqfH6BpC1r4kQUtNBDFugcXtND1E6Vm5BGfBFIDwZsWtJDqxWhpPF71fWpBC90Qn12FqmOKwPwAPTq/hcwoW//pOG3GovGCl9rIaQua6WfzW6g/yrWa81v46+NVJ+KCwPkE5rcEvxb9fqc40zf9+/mM8TsITF4CD5gXz28m+xjsJNRBxuD8lmDH/Ga6eSy+G1/0jHF5SjN/ZkELt81voVNjUmOAn8DdwCavHGIx8wUt9NMx6f140HcLPR6LPYKa4phASvvrH0ppDXakBMgcQxtICZB/XoB2pjYFs7T80zTNi1KaejJSAnxPSoAaUwLUP4b1KHY2PAgkjoU0UUu3mR9ICZBrjLUQe/puDdaoR6xP1GVGXiBgmYB6Rz4vQN3zAmSOk/XODVDj3BZ+ZG4geHtKC22ZH6CceY3GjLndfVcP3WhD5Zna9PacuW0HlqgxKS1057wAfW9eKwXmBejQOOVuqtwzbXsvtbwAcASBKBJI8+374NwAucdLH/MCNKn1PS9A9in45x/FDsXU405gWlPwI3MD1DI3QOofGixCBnMC5FSfooz7AiIBEAhBQD06eG6Aq6Ht0e3b5rRSLR7hHaKxsCl2CJx+p9BKnrmtZMIiYcBP4GP/2On/mK/EZn5gbis9CW1Hou3TBwo/xzv/mFcFCjyfgDranROgx+a0kgkLxYC/oeXchfPh43cQiDYB07xoTmvwa3NaaRD6HlHfg3Nb+UvRXgrMDwITlsCstuDts1tpYHYrmbD3MXh3dlvwXybswiExEIiAwOw2un52K70Lbb9P22pfd3RWG388AoQYAgKxTWBmOxfMaqPgrDYyYacZvDKnPZgV26uO6uKFwKx2XjarjV6Bts/s32a30d7puINnvLQ/6oyEwLSmYPLMNvLMbCMzvi1YMxb3L4hkTTAGBHQRUCf/zmzjX8S3tsmc2UpPzvTuv0wXV8wDAjFFYGZ78NaZ7fTOzHYy48o6iGa188diajFRDAhcQGBGG90ws5164krbZ/Zl+6HvC5oBf4LAcASmdQbnz2wP1s9oJzMurI0qZ7bvTxyOBV4DgVgjoHp9Rjv/YkY7DcaBvgdntNHj6nHgsbaOqAcEokpgegeXTW+nP01vJzNG7ffTWoMbowoRk4PABCWQ3EprZrTT8zGqbbXP+o06v2mC4kdaIDAJCOwxL0nuoPumdRBP6yAzFiy5g96c3smfnmKaF0+CFUCKIBA9AqZ5cXInfXJ6B70SC9pWNahapquv80zzouiBw8wgEEcEZu7Zf9m0zuC9SR38RnIHmZPU9iV30M7Zu978cBwtHUoFgfAE2s1/SmrnzyR30KuTVNtqn/SHpE6+Zcoe85LwBWMECIDAqAlk7t176bTO4K3JncE9k2hH8evkNroB7/hHvdxwiDcCpnlxYpuxLbmD/MkddGoSaHwwuYOak9q5FO/4461ZUe+4EkjupqVJncEfJXdSb1InmRPM3krsou9Ow/X849ojCD55CSR18sKkjuC3kjrpLxNM22ZSF72a2En/mdxKqZOXMDIHgRggoJ4tkNTBZUmd9FhiF/31b8I0x8n2qRwSOmgT7t0fA42FEiYMgakdB/ISO+mhxM7gy+OkbbVPeSGxg76X3EVr8W5/wrQGEgGB9xO4ujOYndAV/EJCB1cldtJrUzvJjIINTj39LiBYM7WDduKdwPvXAH+BQLQIJD5jzPyb9m6e2hn85dRO2ju1k05GQd8n1T98FSOhk29RMaNVD+YFARCIIoGPdh1ISujm0qndfE9CFz+S0EnOqV30+6ldxAlddCShi8wR7FhCF+1P6KJnE7qpNqGbf5jQFfy3xI4DRVfhut4orhimBoHICajHZCd2G7kJ3fzZqZ30nau76KmELmpN6OI/JnRRb0IXvTuMvo8kdFPw6i7al9BNXWd9Hkzo5lsSOigfJ+pGzh8jQWDSE0h8xrj8il1vJlzZ3Xe1uuJg0heEAkAABP6BAA7c/wEJXgABEAABEAABEAABEAABEAABEAABEAABEAABEAABEAABEAABEAABEAABEAABEAABEAABEAABEAABEAABEAABEAABEAABEAABEAABEAABEAABEAABEAABEAABEAABEAABEAABEAABEAABEAABEAABEAABEAABEAABEAABEAABEAABEAABEAABEAABEAABEAABEAABEAABEAABEAABEAABEAABEAABEAABEAABEAABEAABEAABEAABEAABEAABEAABEAABEAABEAABEAABEAABEAABEAABEAABEAABEAABEAABEAABEAABEAABEAABEAABEAABEAABEAABEAABEAABEAABEAABEAABEAABEAABEAABEAABEAABEAABEAABEAABEAABEAABEAABEAABEAABEAABEAABEAABEAABEAABEAABEAABEAABEAABEAABEAABEAABEAABEAABEAABEAABEAABEAABEAABEAABEAABEAABKYH/Bw/QBadLT9xmAAAAAElFTkSuQmCC;" vertex="1" parent="1">
                    <mxGeometry x="150" y="255" width="20" height="20" as="geometry"/>
                </mxCell>
                <mxCell id="33" value="" style="shape=internalStorage;whiteSpace=wrap;html=1;backgroundOutline=1;dx=0;dy=20;" vertex="1" parent="1">
                    <mxGeometry x="140" y="560" width="200" height="290" as="geometry"/>
                </mxCell>
                <mxCell id="34" value="Logo" style="rounded=0;whiteSpace=wrap;html=1;" vertex="1" parent="1">
                    <mxGeometry x="140" y="580" width="200" height="30" as="geometry"/>
                </mxCell>
                <mxCell id="35" value="" style="shape=process;whiteSpace=wrap;html=1;backgroundOutline=1;size=0.1;" vertex="1" parent="1">
                    <mxGeometry x="140" y="610" width="200" height="220" as="geometry"/>
                </mxCell>
                <mxCell id="36" value="" style="rounded=0;whiteSpace=wrap;html=1;" vertex="1" parent="1">
                    <mxGeometry x="140" y="820" width="200" height="30" as="geometry"/>
                </mxCell>
                <mxCell id="37" value="" style="ellipse;whiteSpace=wrap;html=1;aspect=fixed;" vertex="1" parent="1">
                    <mxGeometry x="230" y="825" width="20" height="20" as="geometry"/>
                </mxCell>
                <mxCell id="38" value="" style="rounded=1;whiteSpace=wrap;html=1;" vertex="1" parent="1">
                    <mxGeometry x="326" y="564" width="10" height="10" as="geometry"/>
                </mxCell>
                <mxCell id="39" value="&lt;h1 style=&quot;&quot;&gt;&lt;font style=&quot;font-size: 16px;&quot;&gt;Sabor X&lt;br&gt;&lt;/font&gt;&lt;font style=&quot;font-size: 10px;&quot;&gt;Ingredientes ....................Preço&lt;/font&gt;&lt;/h1&gt;" style="text;html=1;strokeColor=none;fillColor=none;spacing=5;spacingTop=-20;whiteSpace=wrap;overflow=hidden;rounded=0;" vertex="1" parent="1">
                    <mxGeometry x="160" y="610" width="160" height="60" as="geometry"/>
                </mxCell>
                <mxCell id="40" value="&lt;h1 style=&quot;&quot;&gt;&lt;font style=&quot;font-size: 16px;&quot;&gt;Sabor X&lt;br&gt;&lt;/font&gt;&lt;font style=&quot;font-size: 10px;&quot;&gt;Ingredientes ....................Preço&lt;/font&gt;&lt;/h1&gt;" style="text;html=1;strokeColor=none;fillColor=none;spacing=5;spacingTop=-20;whiteSpace=wrap;overflow=hidden;rounded=0;" vertex="1" parent="1">
                    <mxGeometry x="160" y="670" width="160" height="60" as="geometry"/>
                </mxCell>
                <mxCell id="41" value="&lt;h1 style=&quot;&quot;&gt;&lt;font style=&quot;font-size: 16px;&quot;&gt;Sabor X&lt;br&gt;&lt;/font&gt;&lt;font style=&quot;font-size: 10px;&quot;&gt;Ingredientes ....................Preço&lt;/font&gt;&lt;/h1&gt;" style="text;html=1;strokeColor=none;fillColor=none;spacing=5;spacingTop=-20;whiteSpace=wrap;overflow=hidden;rounded=0;" vertex="1" parent="1">
                    <mxGeometry x="160" y="730" width="160" height="60" as="geometry"/>
                </mxCell>
                <mxCell id="42" value="" style="shape=image;verticalLabelPosition=bottom;labelBackgroundColor=default;verticalAlign=top;aspect=fixed;imageAspect=0;image=data:image/png,iVBORw0KGgoAAAANSUhEUgAAAgAAAAIACAYAAAD0eNT6AAAAAXNSR0IArs4c6QAAIABJREFUeAHsvQl4VNeV74uTdJKbpO34dift252+92bo++537ZCkk3ff12n3fe4myWu34xhJiEHzPJcEEqg0AC6DHcdDMIMxBjFpBIlRCAQGHDCj5hGNpRFhQHXOKUYPCKP9+jC4MUZYOv8adlX9+b71SRzV2mv9f3udvU+V9t6aNIn/SIAESIAESIAESIAESIAESIAESIAESIAESIAESIAESIAESIAESIAESIAESIAESIAESIAESIAESIAESIAESIAESIAESIAESIAESIAESIAESIAESIAESIAESIAESIAESIAESIAESIAESIAESIAESIAESIAESIAESIAESIAESIAESIAESIAESIAESIAESIAESIAESIAESIAESIAESIAESIAESIAESIAESIAESIAESIAESIAESIAESIAESIAESIAESIAESIAESIAESIAESIAESIAESIAESIAESIAESIAESIAESIAESIAESIAESIAESIAESIAESIAESIAESIAESIAESIAESIAESIAESIAESIAESIAESIAESIAESIAESIAESIAESIAESIAESIAESIAESIAESIAESIAESIAESIAESIAESIAESIAESIAESIAESIAESIAESIAESIAESIAESIAESIAESIAESIAESIAESIAESIAESIAESIAESIAESIAESIAESMBDCFz9t8DHPnpuZtCHzwUt++C5oHc+fG6m9cPnZtk/fG7WyIfPzRI0hzLQmdo/eG5W20fPzdrzwdRZv/9g6qyp9sDARzykXJgmCZAACZCAJxO47Bf2Fx8+F5T64XNBtR8+FyRobmcw8uFzQQc/mhoUKp6N+4Yn1xZzJwESIAESkJDAh/7B37s6NWjpB88Ff/DBc8GCJiUD5YPfBc3Xng5+WMISYkokQAIkQAKeREDExf3ZVb/grA+mBl/9YGqwoHkAg+eCz12dGhQhJk16yJNqjbmSAAmQAAlIQuDy70L+rw+mhjR9MDVE0DySwZ6rgRGPSVJOTIMESIAESMATCHw4NSTgg6mhVz6YGiponswg7P0Pp4b9b0+oOeZIAiRAAiTgZgIf+IUmfDA19BNO/J488X8m9w8/mBr2tJvLiuFJgARIgARkJqBP/lenhgma1zG49sFzof8mc+0xNxIgARIgATcRuDI1PODq1PBPrk4NFzSvZHD1g9+F/sJN5cWwJEACJEACMhK49LuQH12dGn6JE79XTvx3P9ANXX521l/KWIPMiQRIgARIwMUERGDgV6/6RTRd9YsQNO9ncMUvYqeLS4zhSIAESIAEZCRw2S8q64pfpKD5EAP/yGky1iJzIgESIAEScBGBDwPD/uaqf+RVTv4+NPnrD3tTIwfF06avuajMGIYESIAESEA2Alf8Ipde8YsSNN9jcHVqdJps9ch8SIAESIAEXEBA/8M+V/yiP7jiFy1ovsfgql90vwgM/LILSo0hSIAESIAEZCJwxT/KxInf9yb+u/v88nPRz8pUk8yFBEiABEjABQQu+8fUXvaPEQ6xgJiWSwGxaVcCYh8/Hxr6TRekD4VANUPBDTjbApO+ddUv6ieX/WLNl/1j+tD87/hf8YspMZAOXUiABEiABDyVwAf+cf/lsn/s6GX/WAHax1cC4hKFxfIlT2IBahbu1Kpv27zkH7Posn/sDVTHZf/Yy1wM6M7eZGwSIAEScDGBSwExsxwweXx8xT/un12cukPCododkgTYyCX/2FBHPMRdnRY/BUyF7iRAAiRAAp5C4EpA3LLL/nECsSt+8QmeovfePBHduu+97bnr/5cD4l9DtVz2i3vVXfkzLgmQAAmQgIsJXPKLf+eSf7wwahcD4ls87WP/uxEb1X3H7+623Pm9vjbgkn/88J28jHzV+9KdGhibBEiABEjAhQQu+cf3GpksPvUJiPfoPeSf6jD4EOTCrvrCUBf9E14H9Yx+GJjwN18YiC8gARIgARLwfAKX/BO0S/4JwqhdCYz/X55MwajuO34yab/sF/fknbyMfr3sHx8tkybmQgIkQAIk4CQClwISr10KSBRGTf/o2UmpuaRZo7rv+LkkyXEGEU9ZvnIpIPHCndyMfL0ckFg2znB8GQmQAAmQgCcTQB8AlN9F/bmH6zf88KNPsLJpvxyQuNXIxH+XzwX9QUI2XcyHBEiABEjAwQQuBiRrFwOShFHz9F8BGNV9x8/B3QE3d3Facsyd3Ix+veyf8o9wImyABEiABEhAbgIXA5J7LgYkC6N2ISDFoxcBGtV9x0+23tX8Td+7k5vRrxf8UxbJpov5kAAJkAAJOJjAxYDkfUYnilt+Ka2e/IdkMO3J0v0KQC+PiwEpraCuGgeXGZsjARIgARKQjcCFgORlFwNSBGKXApKTZdM13nwQ3brveOO48nUXpyW/Duq6cSXQ9B1X5sxYJEACJEACLiZgDzDNuhCQIkC7dnFaskceIwvqlvMBwN/0K1SXfZop2MWlyHAkQAIkQAKuJGALTHrswjTT6IVpJgHaNXugKcXTfh0AapbyAUD/oz4XppmuQtoCTAWurEPGIgESIAEScAOBC4GpNRempQrHmOnUhYC0OXa/1Cc84YwAVLMbumtcIS9MS60AtZ335COexwWJLyIBEiABXydwYVqqCZwsHPTw4KiHELe2c/3CtFT7xWmpHRenpVXap6W+cmGayf9S4Jz/7Mo6swempaB9ejEw9eeuzJmxSIAESIAEXEzgsl/yX1yYlnb1wrQ0QXMag+sXpqUduhAwO8oVn4xcCpzzI7Qv7YGzc11cigxHAiRAAiTgagLatNlv2KfNFjSXMLigTZu96GJQ4qPO7Gf7tNlWsD+PODM/tk0CJEACJCABATVwzt/Yp82+Ck4YfICY2EOUag+Yk+Cs37Xbp81+E+zP6/ZA8yMSlCdTIAESIAEScCYB+7TZmfbAOYLmWgZa4Jx3tZnpf+vovrVPS/8t2pfa9PQAR+fF9kiABEiABCQjIOLi/swemN5gD0wXNJczsNmnzfknR5bE+dC537QHpn8M9eW09DWOzIltkQAJkAAJSEpAmZH+P7TA9MtaYLqguZzBNXVahr8jS0MLzDgA9uNpR+bDtkiABEiABCQmoAbO9dMCMz7RAjMEzeUMrjvyY3dtevpcuA8D5jwucbkyNRIgARIgAUcS0AIz4rTAuYLmFgYf2afNc8ivA+wz5j4B9+G0jAxH1hbbIgESIAESkJyAGjgvQgucex2eQPggYeRBaliZmfnXjigRLXDuaawP5+13RB5sgwRIgARIwIMIqNMzp2qB8y5rgfMEzeUMDopJkx5Cy0ULzFwL9t1H+oJCNA/6kwAJkAAJeBgBW8C8v1MDMxvU6ZmC5loG2vR5UWi5aIGZ09B+UwLNz6B50J8ESIAESMADCYinLF/RAuelqdMzL6OTCf3H/xChTM9UtGDTw0jJXJg6+9vq9MzrGHfzciQH+pIACZAACXg4AcU/578o081L1Onmq+p0s6A5n4E2PXMBWjbKdPNRqK9mmLvRHOhPAiRAAiTgBQQu+2X/hRqYlaIGZlWp07NG1elZguY0BsPWp01fQ8pGnW6ej/bP8Ix5P0RyoC8JkAAJkICXETjvN/e7tsCsGcp08xvK9Ky9yvSsTmV6tqZMz7qmTM8SNAcwmJEVjJSNMjPzF2g/qNPNyUgO9CUBEiABEiABryVw8/jdGTlPKNNzMpQZWd3K9GzhGMvajUDT/+CQMj17GMslaxeSA31JgARIgARIwCcI6Asn1RnZWcqMnE+UGTkCtGtasAVaDKjMzCkEc7iC/irCJzqeIkmABEiABEhAJ6DOzPVzxEOAOiMb+jsB6vScEPABQKgzc6awV0mABEiABEiABMZJQJmRu1CZkStAyxtnuPu+7Hyo5bvKjNwbWA7zX71v47xIAiRAAiRAAiTweQL6R+fKjPkDthnzhWGbPn8IPRnQNmN+reH4t3Jv+bw6XiEBEiABEiABEhiTgP4pADj5iuFZOZPHDDCOH9hmLlgM5jCqBub+zThC8SUkQAIkQAIkQAI6geFZlsm2GQsEYsPTF2QiNG0zF/wTEv+m78yF0UgO9CUBEiABEiABnyNgm7HwtG3GQmHcFhxCoOk7E2wzFl4wHv9m7mVIDvQlARIgARIgAZ8jYJvxfN7wzIUCsBF7oPkRBNzwjIVbgfhieMbCC/qDBJIDfUmABEiABEjApwgMz7D4D898XkA2wwJtBzw/c2EsFF/Pf/qCf/SpjqNYEiABEiABEkAI6If5DM+0jAzPtAijZpthgbYDasGW7xmNfZffIoQDfUmABEiABEjA5wicn2k5fNdEauRBYEhMEg8h4IZnWk4hOdhmPl+DxKcvCZAACZAACfgcgXMzXzCfn/mCgCx40Y8RcOdmvPA6FH/mCzf0g4WQHOhLAiRAAiRAAj5FQN8OeH7mIoHYuVmLoO2Aw7Ne+DUSX/cdnvEC9BcKfarTKZYESIAESIAEdALnZy46DU7A0HZA69PLv3Z+5qIrSA7nZi4uYG+SAAmQAAmQAAlMgMD5WS/mnZ+1WAA2Yg/8A7Qd8PysRbuB+HruNv3PDE9ANl9KAiRAAiRAAr5NYDhosf/5WS8KxPQ2EIrnZy02IfF137NBi36O5EBfEiABEiABEvApAvp2wHOzXhw5N+tFYdTOznoR2g5oC1r8d0Zj3/E7O+ulXJ/qOIolARIgARIgAZTAuVkvHT436yUBGLwd8Nysl3qA+HruR1AO9CcBEiABEiABnyJwLuhl87lZvxeInQ/+A7YdMOj3byLxz836/fX+CMu3farjKJYESIAESIAEEALDs16aDE6++sMDtB3w/KwXn0VzODvr5QCEA31JgARIgARIwOcInA16+fTZoJeFYZv1MrQd8Hzoa988G/Tyx4bj67nP+sMan+s4CiYBEiABEiABhMDZoFfyzgb9QQAGbwc8F/SHg0B8PfchhAF9SYAESIAESMDnCJwNesUfnHyF3gYC7tysl+ehOZyb9YfHkRzoSwIkQAIkQAI+RUALXv7w2aBXRs4GvaJP5EYN2g6oLyQEYt/M+VzwKxk+1XEUSwIkQAIkQAIogbNBrx4+G/SqAAzeDng26NVBIL6e+36UA/1JgARIgARIwKcIvB/0ivn9oFcFYkPgdsD3g17NQ+K/H/Tqx7ZAy7d8quMolgRIgARIgAQQAkOzXpv8ftBrArLgV6HtgGeCX58GxQ96TZyZ+dozCAf6kgAJkAAJkIDPEXg/+PXT7we/Loza2eDXoe2AN9ciBL8+YjT+bb/lPtdxFEwCJEACJEACCIH3g17PQybfs8Gvj/SCfx3w/ZDXjyI5vB/8ejfCgL4kQAIkQAIk4HMEhoJe9z8T/EeBmN4GAu5M0JL5SHzd9/SMV3+I5EBfEiABEiABEvApAvpH8GeCl4ycCV4ijNr7QX+EtgOeDl3yC6Ox7/i9H/xGsk91HMWSAAmQAAmQAErgTPCSQ3cmUoNfoe2AwmL50pngJcMGYxt+cGE84w99ZEd2rAH31cBQ8JJLZ4KXtJwJeuOPp0OXPYHOAfT3YQLvB7+ReSb4DYHY0KylkxGEZ4KXFCLx6Yv1H/mRH2vAY2vgk/eDlyyzPr38a8gYTF8fJTAUtnTymZClArGhkKVmBN9Q8NIQJD59sf4jP/JjDXh8DVT2R2z4OjIO09dHCQyFLj09FLJUAAZtBzw76/W/HApZegOIj+ROX6zvyY/8WAMS1MDpkKVLfHQKo2yEwFDIsryhkGUCsBFr8PKHsRyW1gLxkdzpi/U9+ZEfa0COGvhkMHwJ/0AaMhH5ou9Q6HJ/ePINXY5tBwxeuhjOQY6bkIMh+4E1wBpwSw2cCV3+ui/OYdQMENDfvQ+FLB8ZClkuAIO2Aw6GLn0SiI3kTV+s38mP/FgD8tRAEzAV0NVXCZwOWXHodMgKARi2HfApy1dOh6y4AMRHcqcv1vfkR36sAQlqYDDkzcu+OodRN0BgMORNMzr5DgWv+DGQwqShkDe3oDnQH3qI4yAuwSDOGmYNG66B0BUaMgbT10cJDIW9Nfl06JsCMf0hAsE3FPJmDBKfvlj/kR/5sQY8vgbakTGYvj5M4HToytOnQ1cK4/YWtB3wTPDy750OXTlqPD6SO33JnTXAGvD0Gnhrkw9PYZSOEBgMeysPHABGegNXP4LkcDp0ZSuYA/AA4+k3P/Nn7bAGfLoGQlbORcZf+vowgYHQlf6DoW8JxAbCVvkhCE+HvfUaEp++WP+RH/mxBjy3BgbCVv4zMv7S14cJ6NsBB0NXjQyGrhKArUEQDoa99SsgNpI3fbF+Jz/yYw24twZG+yPe+DYy/tLXxwkMhK46DE7A0HbAtsCyrw6GrroC5sCByL0DEfmTP2vA1TUQtqrbx6cvykcJDIa8bR4MfVsgNhS8GtoOOBj6dgUSn75Y/5Ef+bEGPK8GBkJXcwEgOgH6un9fWN7kgbDVArHB0NWZCMeBsNUpSHzddzA87+dIDs72HQx9+/egxqPOztFZ7Q+ErPklqL3TWbnJ3u5A2OozCLu+kLd/IrvGsfIbCF3di2gfCF8j9QK5gbDVPd6sb6x+5XXJCAyGrT4NFWLoGmg74EBo3veh+PoDTOjqXMmwfiadwdDVgaDGy8Ji+dJnGvWQ/zigfy95iFSHpqn390DY6utI3Vgj13/HoUm5qLHBoLceHQhbPYpoHwhbLe0Cud641Y94sz4XlQnDOILAQFhe3kDYGgHYiF7QSC4DYWusQHzRH77mCBLf2b5DEW//HaJP99XbcHaezmhf/7vlqPazcau/4YzcZG6zP2LlYyC3EU99aBwMW/MrUPtof8QGaRfIDYa/PcWb9cl8XzG3ewgMhOb5D4TlCczWQNsBB8LWrMDi512X+YYXk8RDA2FrLiEaB0PXBt7TdR7z34HQvIuQ9qj1P/AYsQ5KdCBs7c8gZmF5px2UisubGQxbY0a094etlXqB3GDo2kxv1ufygmFA4wSswUUPD4TljSAFORC2FtwOuOa3WPw8MRC+JsA4Bed7DoStPYpoHAxd83vnZ+mcCANheR2Idn0dgXMyk7fVgfC1z0DMwtZWyavuwZkNhOeVQdrD10q9QK4/LK/Um/U9uHf5U+kI9IflHe4PWyuM2kDYWmg74PnQgm/2h6392Gh83Q99CHF2pwyE5S1H9PWHrt3r7Byd1X5/6NpDiPaB8HVSP9w5g1tf6LpYhFl/+NodzsjLFW32h67tRbT3ha+VegFgf9jaHm/W54oaYQwHEugPW2vuD18nEOuN2ABtBxwIX3cAiT8Qvm7IgUgc3tRAxNooRF9/+Lphhyflogb7w9dtQrQPhK9LdlGq0oTpD1+/EGHWF7FupTRiJpCIvgCwP3zdKKJ9IGyd1AsAvVnfBLqaL5WFgL4dELnhbvmuh7YD6k/taA6D4Wsel4XpvXnov9NF9fVHbHjs3nY94f/94WuXINoHwtcv9gSdjsyxP3zdKoRZX/ja+Y7Mx1VtDYavnYLovjm5Sr0A0Lv1uapOGMfBBPrD15/uD18vAIO2A/aErn0CiH0z74HwdRkOxuKw5vRTD/vD119DNA6ErXvaYQm5sKH+8PWZkO7w9XkuTFeKUP3h68shZhEboqQQMsEk+sM2mBHd/eHrpV4AiN4LsuubYHfz5bIQ6AvfmNcXvkEABm8H7AvfMAjE13PfLwvP++XRF76hEdIXtiHnfu3Kfq0vfGMYpDt8w27ZNTo6v77wDTUIs4GwfI98WOwL31CG6O4N3yD1AsC+8PWl3qzP0fcB23MRgd6IDf5IYeq+A2H50HZABzyEfNwWuPJbLkI24TD94RvXg4zLJhxUAoe+8I2/AXXXSSDDpSn0hm84AzGLWueRpwD2hW/ohXSHr5d7AWD4hh5v1ufSm4TBHEdA3w7YF75xpC98ozBsYfnQdsC+sPxphmPfzrs3fOMzjqPi2Jb6wzemgvqsjs3INa3pC0QR3b3hG8+4JlM5ougH+PSFb7yOMOsJLfiuHGrGn8VgUPGjfeEbRxHdA2H50i4A1M8q8WZ94+9pvlJKAn0R+Yf7wvMFYNB2wFsPIfkjQHzRF5a/XEq4kyZN6oso/CdIW3j+KHrqojvY6EfSgrqve+qpdkZ464s9QV4eeQpgb/jGKaBuqU8A9HZ9RmqdPhIR6I/IN/dF5AvE0O2AfeH5R5H4fRH50i4CuvmAE5F/A9NX+E8Slcy4UtFPQuyLyB9BdHviO9pxwbnPiwbC8n+GsOqLyPfIUwAdMP5Ie+/r3dwfXpAJ9qvU+u5TyrzkSQT6wvIn90YUCMR6wgug7YA9kQXzkfi6rzV84w9l5d4bXmBF9PWEF6TKqu1BefWGFwwhuvXafFD73vSz3vDCZxBWvREFHnkKYG9EQRmoW+oFgD2R+aXerM+b7kGf1dIbUXC6N6JQGLW+iEJoO2BvVMEvjMa+49cXXiDtwTG9EUVld/I09DW8cL0nFue/T2q1hvTersW+8KLfeKJuIzn3RRTFIqx6Iwo98hTAvojCXkR3X2Sh1AsAeyMKe7xZn5Fap49kBHrCC/OQIu2NKBzpjSsz/NcB9d/19kYUDoM57JIM66fp9EUU5oDaGj9tzIO+6Q0vqEB090QWhXuQXCjV3vCihQir3ohCjzsFUF8A2BtROIro7gkrlnYBoLfrgwqezvIQ6I0o9u+NKBKI9YQVQdsBe8OLCpH4vRFFV62myq/JQ/U/MukJK3oa1HZNVm3/ofLz3/VEFK3BdBebP9+qd17pjShahbDqiSz2uFMAe8OLpiCaeyOKJF8A6N36vPNO9EFV+kK1nojikZ6IYmHcSqDtgNbIkhDjsW/lrQ8oMnZfX0zJX6HarGGbfiajtgfl1BNRvAjRbY0oeeNB7XvTz3oiS8ohVuHF0Z7Gozei2Ixo7okolnqBXE94UaY36/O0emO+DyDQE1l8uCeyWAAGbQfsiiv5y57I4htAfNETUfTqAyS69Uc9kUXnEG29kSWRbhVgILg1oiQJ0dwTVSz1Ai8DSMZ06YksrsFYFXncKYC9UcVlmGa566MnsqjUm/WNWcz8gecRuPk0HlkiegDrjSiC/jpgT2RJLRK/J7KkRVbyPVEleyFtUSXSnnUwFnP9V0uQ5sgSaHHpWHnJeL0nsuQMwqovarPHnQLYE1nSi2juidwk9QLAnsiSHm/WJ+N9xJwMEugLK5ncE7lJYFYCbgfctBiLfzP/vzWIwKluvZGbfg9qO+rUBJ3QuDWq5B8wzSWdTkhLuib1RbA9kZuuQ6w87BRAfYFcT+SmUUhzVKnUCwC9WZ90NxETwgn0RG46Dd2QkZugd2y9USVPgvGFNWqTlL8LtUZsDsS0lVz2tJPxOmPKvo9p3nQRr2r5W+iPKHsM5ORxpwD2hm+aAmqWfAGgd+uT/65ihhMmYI3cnGeN3CwAw7YDBpZ92Rq5WQPiC2vUZin/eE5PdNmPIF2Rm4XexoQ71Y0O/REbvo5qPhtX8Q03SnBJaGv0pp+BnDzuFMDuyNJMULPUCwC9XZ9LbgwGcS2B7ojN/tbIUoFYT1QZtB3QGlm6BYlvjSy9cMhy6CuuJffF0fSjca2RpZcgbRGbA784klyv0PsD0dwdte0HcilyfDbd0WXPIIyskWUedwqgNbK0FNHcHVUq9QJRb9fn+LuALbqdgL4d0BpZOoLcmNaoUnA74OYYKH5kqegJL/1Ht8O8TwLdkaVHQW2/v0+zUl+yRm7uQDT3RG76pdQCHZBcT0RpLMLIGlXqcacAWiM39yKaeyJLpV4AaI0s7fFmfQ4oezYhIwFrVNlha1SZAAzaDmiN2fY9a1TZKBBf9ERtWSQj2+6o0uWILmtUWaWMuh6UkzWy7BCiuTtmi/+D2veGn1kjyxYijKxRpR51CuBgYvGj+D0u8QJAL9fnDfccNYxBwBq9xdwdtUUg1hFRBm0H7I4qa0Xid0eV1Ywhz62XuyO3RGK6tpx3qwADwbujtpQgmruitkr7Nx4M4LivS3fUllUIo+7oLR51CmBX9JYpkN6oLaP9ETu+fV+YElz0dn0SIGYKziLQGbN1Mnhziu7ILdB2wO7ILa+BOdzoCd3+XWcxMtquNXrrz0BdQl8xbjS+O/y6orcsATVL+WmOI1l2R20pRxhZo8qk3PkyFiN9fED0dkdtkXwBoHfrG6tfed1LCHRHbh3sjtoqDFvkVmg7YHfUtl8Zjn07b2vUlmDZuqMtsOyr3VFbryHauqK2eNSJb92R2zIRvdbobXmy9aOj87FGba1FGHlaTXRFbS1F9HZHbZN6AaC363N0/bM9yQjog2531DYBGLQd8NZEue0KEF90RW0rkAzrzXS6o7c2grpyZNQ1Vk5dUdvDEL3dUVsrxmrbW653R207AzGK2PFTT2LRHbWtF9IbvV3qBYDd0dt6vFmfJ9UaczVAoDtmuz9UwFHb9AkY2g6oD/xgDjYZD87pjtq2HtQl5TkHY5VZd8z2XyN6rVHbasdq2xuu6zXaHbXtOsJIxl93jdU3g4m7H+2O2jYK6Y3aJu8JgF6ub6x+5XUvImANrny4K3r7SFf0dgEYtB2wK3pHChD7Zt4dMTt+Llu3dMdsT8V0bbPKpulB+XRE7PwxpDdm+5kHte/pP2uLKHsM4hO93aNOAeyK3jEF1Cv5AkDv1ufp9xvzHyeBzpgdh7uidwjAoO2AnTG7vg/Evpl3d8z23HHKddnLumJ2/hOoa7Q3ruwRlyUMBrJGln0H1Htdxk9yQCyfulsjt/09yMejTgHsjN6Riejtjt4h9QJAb9f3aeHyG+8m0Bm904zcqLqv/u4PodQVvcMK5nAEie8M31ufruy4AemK2flPzsjNGW3qJyB2Re+4hujVHyKckZsMbXZHb3sGYdMVvaNaBh3jzaErZkcppnen3AsAvVzfePuZr/NwAp0x5ZO7oncKxPSnYQRDV/SOFUj8ruid12XcL9wVvdOK6OqO2mFCuLqFD1A4AAAgAElEQVTatyt65xCiF32QdLXeicTriiqPRdh0Re/0qFMAu6LLexG93dE7pV4A2BW9s8eb9U2ktvlaDyfQGV0+2BldLozbLmg7YEfsrt8aj30r746oXQGydUNndHkZpCtq13rZND0on87o8lpEb0dUxW8e1L4n/6wreudChE1n9E6POQWwJXH3o53R5aOQ3qhyaRcAers+T77PmLsBAp3Ru/KgmzW6HNoO2Bz6zjc7o8s/RnLoiC6HFiMawPaFLh1Ru3IQTZ3R5Y1fGESiF3RG79qF6O2K2hkmkRyHptIZU74KYdMZXe4xpwB2RVdMAbVKvgDQu/U5tPDZmPwEOmLK/TujdwnEuqIqoO2AHTEVB5D4ndHlQ7KR7ora9TSmadc1/awE2XSNlY/+EIbpLYd+lTRWXjJc74yuKIfYRO3ymFMAO6PLMyGt0bskXwDo3fpkuF+YgwsJ6AvWOmMqRjpjKoRR64iugN6Bd0Tvmms09h2/tthdj7sQ2xeGao0p/6s7uRn92h27x2MOf+mMqVhkVKfu1xG7e8kXQvXQF3TG7KpF2HTF7vKYkyE7Y3aXIlo7oiukXgDo7fo89BZj2giBzpiKw8hN2xlTAW0HbI/e/QQYX3TE7M5AGDjDtzOm4hyoK9IZeTmjza7YXUmIVtkHfoRZZ0zFGYSNhz0I9iBa9TcDCGtn+3bGVHi1PmfzY/sSEmiP3W3uiNmtT6LGLW4PtB2wI2b3IBQ/Zvd+2dC2R1dUgpqWy6ZprHzaYyv8QK3QYtKx8nL3df18g46Y3dcRNj0J70j3R6/ux1VfINcRs3sU0doRU/HU/dqW4Zoj9HVG7ZZ2gaMMjJmDGwh0xuyd3BGzRyDWHl0J/Q63M2ZPHhK/I2bPx21Jh77lBnxjhuyI3fN7RFNnzB7pzjgYS2xHVMU/IFo7YvZ0jNW2J19vi9jzGMjFY04BbIveOwXUOtoo8Z8A9nZ9nnyfMXeQQEfMnkHs5q2E3sF1xlROw+LvEe3Ru58BMTjUvTN6dyCkKXbPJU85IU8/1RHSGrPnokPhS9JYe9yuv0e4dMbs8ZhTAPU3AYjWjug9Ui8A9HZ9ktwyTMMdBDpj9uZ1xFQKwEZ64w4YPr5WX4zYEVM5AsTXc5fqI/O26H0/AvUIvQ131MNEY/ZHHPo6qrUuruIbE40r++vbo/c9g3Bpj9njMacAtsfsLUW0dkRXSr0A0Nv1yX4vMT8nEuiI2evfHlMpIIvdC20HbI+uPArFj66U6h2EfkRue2zlJURTW/TeQCd2u0Obbo+pvIBo7Yx55/sOTUiCxjpiK2MRJu2xlR5zCmB7TGUPorUtulLqBYDerk+C24UpuIuA1VT5cHvs3pH22L3CuO2DtgO2x+6dbzz2rbxb4yp/6C6G94vbHrv3KKKpI67ypfu1K+O1tti9HZDW+L3/IKMuJKeO2MqFCJP2mH1vIfFd5asvkGuP3TuKaO2I2Sv1AkBUX2fcPi4AdFVBMs7ECbTHvnO4PXafMGodsfug7YCd8ft/YTT2p34x+5Inrtx5Hh2xe5d/mpsxtpXOy86xLbfF7vsTolX/FMqxGbm/tfbYfasQJu1x+xa4X8UXZ9AWv3cKpDN232hjxKFvf3Ek97zC2/W5hyqjSkWgPXafGbyJRQewHfDmlqnYfcNoDvQ3/hBHdmTHGnBKDUj160mpJh4mIwcBfTtge+w7ArK4/dB2wPa4dwqh+Gj+9Mf6n/zIjzVwvxqQeoGjHDMQs3A7gbbY/YNtsfuFUWuP3Q9tB2yL2R9iNDb9jPcb2ZEda8CZNXBA6gWObp94mIAcBE7F7M8DBwJoO2BX3KG/bIvdfwPMwfADDOM6cxBk26wv36yBU1wAKMcExyweTKA1/oB/W9wBgVh77H5sO2DcgVokPn2x/iM/8mMNOLQGpF7g+OAZgT/1KQL6dsC2uIMjbXEHhVFrj38X2g54KvbdxUZj0894v5Ed2bEGnFIDXADoU7Ooh4tti3v38Km4gwIwaDtgW9yBJ4HYSN70xfqd/MiPNfD5GuACQA+fE30q/VPx75pPxb0rEGuJO2D4rwOWBZZ9+VTcuxoSn75Y/5Ef+bEGHFMDrbHvcgGgT82gHi62Nebg5FNxfxKgQdsBT8W+uwWMj+ZPf7wGyJAMWQNxB3kCoIfPiT6X/qm4Pw1CE3Dsn6DtgKfiDsVA8TnwcuBlDbAG3F8DXADoc7OnFwg+FXco71TcIQHYSB3w1wGbYw5971TcoVEgPpI7fbG+Jz/yYw3cqgEuAPSC+dDnJLTGv+ffGn9YQJZwGNoO2Bp/uBWKj+ZPf6z/yY/8fL0G4g5zAaDPzZ5eINhqqnq4Nf7wCDIBt8QfhrYDtsa/9xoSn77gA5yvD97UzwcYuAYOcQGgF8yHPimhNeG9w63x7wnAoO2ALbGHfgXERvKmL9bv5Ed+rIH498SpuMNcAOiTs6cXiG6JP2pujT8iEGuJe8/wdsC2wLavtsYfuYLEpy/Wf+RHfqwBwzXABYBeMA/6rITWxCOTW+KPCMgSjkDbAZvjj1RA8dH86Y/1P/mRn4/WQGv8ES4A9NnZ00uEt8QfHWyJPyoAg7YDtiQcSwFi38o78ejPZeiOlrijgaCWS8IiviSDlrFyaI557/ugxotjte1J11vjjjwDcqiSXW9L/NFSRGNr3FGpF8h5uz7Z64v5SUCgNeFYXkvCMQHYSF1c3SNGpdycULD4ojnheK7R+I70a0s68SOA480+0NtwZE6Obqs/4tDXUY11cXXfcHRerm6vOfFYDMQh/vgOV+c80XgtCcd6EI2t8cekXiDn7fom2t98vQ8SaI0/5o/c5Lpva8JRaDtgS8IxK5jDERm6TkwSD7UkHLsEaUk8GiiDlgfl0BJ/7AKo8QcPat8TftYSf2whwqA14fhKmXW2JB59tCXh2Cii8VTSMWkXyHm7Pplri7lJREDfDtiScHykJeG4AAzaDtiScGIFEFvP+3rj7EPflgFra+Lxo4iW1oTjL8mg40E5tCQc74A0Jp345YPa94SfNSeeWIUwaEk8Pl9mnc3xJ6ZA+hKOj8pyT96Ps7fru59mXiOB+xJoTjhxuDnhhAAM2g7YlHDit0Ds23kfD7ivOBdfbEk8vhzUUunilCccrjn+5J8wjXL01YSF3+XQnHBiJ8Qg/kT0Xc1J921LwslMSF/CCakXyHm7PukKignJS6Al8bgZvNlFS9wJw9sBm0Obv9mccOJjLIeT0KcQjuqdlsTjkZiOE+cdlYuz2mlOOFGCaGxJPJHsrNxc1W5LwokajMHJp12Vq5E4LQknShF9zQkn5V4A6OX6jPQ5fXyUQGti1eTmhJMCMf2JGsHXnHDyABK/OeHkEBLfUb6NScd/CuoQbUk1jzkqH2e005RwcgmisSn+5GJn5OXKNpsTTp5BGJyKr/6JK/OdaKzmhJM9iL7m+CqpFwB6u76J9jdf7+MEmhNODjYnVAmj1pJQBW0H1AcMo7Hv+DUl1zzu7m7UDzdqTqi6dicnQ1/jT/yru3U8KH5LQnWmIV2f1ld13oPal/1n+lbN5oSq6xiD49+VVae+QK45oWoU0deUVCX1AkBv1idrXTEviQk0JlbnNSVWCcCw7YAJtU8AsW/lnVCVIQPipsSqRkRLc2JVtgw6xsqhOak6DNHXlHiyYqy2PeF6a0zVX2H6q0ZkPu+hOblmCqhvtHF2oxSLcu9XT96u736aeY0EHkigKanGvymxWkCWUA1tB2xOrB6E4ifV7H+gSBf9sCmxZj2iozmxusxFqRoK0xhf9WtEX2NidZ2hwJI4NSXU/gzR35RYfVoSKfdNozGpOhPUJ/UCQG/Xd99O5UUSeBCBKlPVw02JNSNNiTXCqDUn1EAL8RoTa/KMxr7t93FbUtu3HqTTFT9rSqw2gTqkHkBbUup+DOo744p+cFaMxsTqZzD91VKfAtiUVFOK6auRegGgt+tzVt2zXS8n0JxYcxi68RNqoO2AzUm106D4iTVCH5zd3U1NSXVPgjpG9Qcyd+sYK35dXN1fgvquy/wR+Fi671xvTqyOwfTXSn0KYGNiTQ+irzmpRuoFgN6u706d8isJTIhAU2KduTGxViCmvzucUNC7XqxPeo2JtSNI/KbE2uV3NemWbzujjv15Y2LtDUhHUt2Tbkl+HEH1Ew8bE2uvIfqaE5qlXQT3RQgaEmsWItobE+qkPQWwJbHl0cbE2lFEX1NSncQLAL1b3xfVLn9OAmMSqE+sn9yYWCcgS6qFtgM2JtYdheIn1knx8XljYp0V0dGQWGcas6Mk+EFjQt0Qok+vNQlkGEqhKbFuFaK9KbFO2lMAG5IbpiDaGhPrpF4A6O36DBU0nUjgDoHGxLpBcACAtgPqgyMYX9TF1f3wjh53fW1MrCvDdNSud1fu44nbmFRbi+hrSqr7zXjiyPiaxoS6nYj2hqRaaU8BbEyqzUS0NUryAD5W3Xi7vrF08zoJjItAY2JDXmNSvQAM2g7YkNLwCyD2rbwT691+0lxjYl02qKNhXB3mphc1JNXvgvQl1oW7KXU4bGNSfQ2ivSGxQdpTABuT6ksRbU2J9VIvAPR2fXBxswHfJtCUVO/fmNQgEGtKrje8HVBfHNaY1DCMxG9Iatjl7l7UB3lEQ2NywzX9UCF36xgrfmNS/RpEX1Nig3mstmW/3pjUcAbR3mBqkPYUwMbEhh5EW2NSo+QLAL1bn+z3DvOTnIC+EK8hqWGkIalBGLX6pHpsO2BSY6HR2Lf9rlpN1q+5E3VrWutfgRpEY1LjT92p4UGxG5IaFiH6GhMb33hQ+7L+TH9AbUhquI5ol3UBpL4AsCGpYRTR1pjS+JSsfecIfU1JTdIucJSVO/PyMAINSY2HG5IaBWDQdsD6xKYQIPatvJMbprgbe0NS0zlER31iU6S7NYwVvzGpMQnR1pDYJPVHxWPpvvVgB90b0p4CqC+Qg/o0qVH6BYDerG+smuV1EpgQgYbEJnNDUpNArC6lxfB2QH2feUNS0w0kfn1i86sTEu2EFzckNVYiGhqSmpY5IS2HNFmf3OSHaWs+7JBEXNxIU0LTzzDdTdKeAlif1JgJapNiB85YJeHt+sbSzeskMCEC9Ymtk8GBQOg324SC3vPihqTmWjCHlnuadPl/6xMbXwI1HHF50uMM2JDc8A+Itvqkps5xhpLqZY2Jjc8guhuTmqQ9BbAxqakU0Sb7pzrerk+qG4XJeDaB+uTmwfrkZmHUGpJboO2AdclNi43GvuNXk9T6t+7shbqUlsA7uRj72nJJ1hPzmlOav29M06c1ddGdfWM0dl1ycwykO6lJ2lMA65ObexBtdSnNUi8A9HZ9RmuafiTwOQINya159cktAjBoO2BdUtOTQOybeTektLp1v3V9UtuPUA16G5/rHAkuHIro/zqqrS6u7hsSSJlQCnXJLQsh3SmtUp4CqC+Qq09uGUW01aa0Sr0AENVXl3SKCwAndLfwxR5LoD6p1R8ZDG75threDlgWWPblhuQWDcmhIbnFrX9VTz8ytz655SKiQf8UQdYiqk9uuYBoq01s+YGs2sbKqy6peRWiuSG5RcpTABuSm6cguvTJVeY/Aezt+saqV14nAUMEqkzWh+uTW0fqk1uFYUtpgbYD1iW3bDEc+1beFw5ZDn3FEAAHOdUnnToCanjJQak4vJn65NYORFtjUusvHZ6UkxusSz61E9Hs7k+lxsJTn3IqE9FVn9Qq9wJAL9c3Vr/yOgkYJlCf0na4PvmUMGp1yaeg7YB1yadijMa+41ebcuofDQNwgGNDctuyO7kY+pp0qtIBaTiliYbkU4cMabpTU0mt/k5JzImN1iefqkE0N6S0SXkKYH1yWymiqz75lNTbOr1dnxNLnk37KoG65FPmuuRTAjJgO2CVqfl7dcmnRrH4pxa5s//qU9oiofyTT513Z/4Pil2XcqoE0VaffMrtRzY/SN/9fvbvD6VnEM0NplNSngJYl3yqB9FVl9Iq9QJAb9d3v1rlNRKACOjbAeuS2wRitSnt0HbAupS2ViR+fXJbDQQBdK5Javspkr/uW5PU9hiYhlPc61Pal2DaTi12SmJOalTfkVGX3HYd0SzjKYD6AsC65LZRRJfsCwBRfVwA6KSbis3KTaAupX2wLqVdAIZtB0zpeA2Ired9w52Dbpul7at1Ke0fIxpqJf3YWH+4Q3TVmdrz5K7+z2anP4hBelPapTwFsCG5bQqoS/IFgN6t77NVyv+RgAMJ6IM0ODiM1MX1PmI0pVpT+6/A+KLe1BZsNL4j/OpS2hsgDckd2Y7Iw9Ft1JrawyBdKe0Vjs7Jme3Vmtp+BuqV8hRA+EEupV3qBYDers+ZNc+2fZxAjanDvzalQyBWndxueDug/g66NqXjChK/1tRZ4M5urE1uXwfln9Lh1u2MY7GrTW7/NaKrJrmjbqy2ZbxeZ2p/BtFbm9Ih5SmAdab2UlCX1AsAvV2fjPcKc/ISAvp2wNqUzpHalE5h1OpSOqDtgDUpXRVGY9/2s7nzRL26lA4Tln+XVcZyqkvp+DGiqy6l84yMusbKqS65KwbRW5vSKeUpgLUpnT2IrpqUDqkXAHq7vrHqlddJwCEEalM6DyMDRG1KJ7QdsNbUkQLGF/WpHT93CAwDjdQldT0J5j+qP4gZCO1UlwaT9TugruvufDCbKJya5K6FiN66lE7pTgHUFwDWpnSOIrpqUzqkPgEQ1VeX2skTACd6s/D13kOgLrnTXJvSJRDT3y0aJVKd0vl9JPYt3+5co/FRv7aktm/VpnTdQDToDxFoHo721086rE3pGkF06Q8Rjs7LWe3VpnSuQrTWmbqlOwWwJrlrCqKpNqVrtHF2/7edxRxt19v1oXzoTwJfSKA+rXNyralbQJbSDW0HrDV1W5H4NaZut/5lvTpTdzeSf11qt+kLO8oNL6g1dQ8huvTackPahkLWmrrLEa21JmuUocBOdKpN6c5ENOl17cT04Ka9XR8MiA2QwHgI1Ji6B2tM3QIwaDtgtcm6Aoit533dne9UakxdpVD+qd3rx9NPrn5Njclai+iqMll/4+qcjcarMXXXIFprU7qkOwUQrsuUbqkXAHq7PqO1TD8SmBCBGpM1r8ZkFYBB2wGrk7t/C8S+mXdtSnfAhEQ78MU1qdZsKP8Ua6MD03FYUzUm6y5EV3VqT7jDknFyQzUp1jOQVlOXdKcA1pisPYimmtQeqRcAers+J5c8myeBWwRqTN3+0EBhsorq1B7D2wGb5zZ/s8Zk/RjMAdqNgNRCTWrPv4K5X9O3RCI5OMO3xmRdg+iqNlnNzsjL0W3qixVrTNbriNbjCT3fdXReSHtHEwcfrTFZRxFNtSlWaRcAOkJfVWoPFwAiRUZf7yCgr0KvMfWM1Jh6BGDQBFxj6jkAxNbzHnJXb+iDP5i7qJnd/VN35T9W3JrUnkWYLusbY7Ut0/WapP7HMJ090p0CWJPaOwXUJPcCQC/XJ9P9wVx8gEC1qedwtalXAAZtB6xK7ZsLxL6Zd02y9XF3dVW1qfcskn9VSm+ku3IfK25NSm8SoqkmpVfq3yHf0V1rsv4M0Vlt6pXuFMDqlJ5MUJPUCwC9Xd+d2uRXEnAJgWpTrxkcMMSJlF7D2wFrU3ueQOPXmPoyXALrPkGqU3r3QPmn9C2/T7NuvVRj6vVHNNWY+qDFoa4SX23qfQbRWZ3SK90pgNWmnlJIk6m3xFX8jcRB9XnKw6kRNvQhgQkTqErrm1yd2icw64e2A1an9g0i8WtS+/ZPWLiDHKpNfS8huVen9rl1K+P9MFTPHvgHUFPn/dqV7Vp1al8MpNPUK90pgNWpfb2Ippo09z1Mj6c+UH36J47jicPXkIDPEKhO7R+sTu0XRq3G1A+946tOHcgzGvu238eHktq+5Y4OqzL1TQNzvyTbyXnVKQPfBzVddEdfTDRmlal/IaKzKrVPqlMA9QVy1an9o4imk7P7pV4AiOqrSh3gAsCJ3ih8vXcTcMAEDG0HdMAkKqpNA8+4o5fqTKd/iAy4uu+JOT0/ckfuY8U8FNH/dVRTXdzZb4zVvizXq1P7VyE6a0x9Up0CWJM6OAXRo0+u7jxX44vqwtv1fZF+/pwEnELgpGnAvyp1QCBWnTpgeDugvhuhKnVgBIzvlt+l60fnVqUOXIRyTxsMdErHAo1WpQ5cQDTVzhn8ARDeJa5Vpv5yRGOVaUCqUwCrUwczIT2p/XIvAPRyfS4pegYhgXsJ3JqAB0eqUgeFYTMNQtsBq1IHjxqOfStvtw1eVamD7yG5nzQNvHRvn7j7/1Wpgx2IphOpA790t4Yvin8ydbAG0XgyZUCqUwCrUwdLET1VaQNyLwBE9aUOeMTulC+qW/6cBBxOoDp14DA0eKQOQtsBT5oG5oPxxXHT6R86HMw4GqxKG1wG5Z52unIcYVz6kirT6UOIJv1TJZcmbCBYVergGURjtalPqlMAq1IHexE9VWkDbttNM57ug/WlDnAB4HhA8zW+R+CkadBclXpaIHYiZcjwdsDqlNO/QGLf9k12R8+dNJ2OAHM/7468HxSzKu10CajJLX3xIE13/0xfeFmVevo6olGmUwD1BYBVqadHET0nZw9JvQAQ1VeVeoYLAO++Cfg9CdwhUJU2NPlk2pCALHXI8HZAfUA+mTY0DMVH86c/1v/kR37y1sDoIYn/xPGdcZhfScBtBE6mDQ2CEzC0HfBk2lAhGJ8DsLwDMPuGfePOGnDbGiG3DegMTAITIXAy9f28k2lnBGAjdebeRyYS8+7XVqUNhQCxkbzpi/U7+ZGf7DXABYB3D7b8ngTuJXBy9ln/k2nvC8ROpJ41vB2wLuPsX55Me/8GEp++WP+RH/l5Yw1Upb7PBYD3Dvj8PwncTaDKpD18Mu3sCDgAQNsBT6S9XwvGhx5gGJsTIGvA+2qACwDvHun5PQmMQeDE7LOHT6SdFYBh2wHTzi4GYiN50xfrd/IjP1lrgAsAxxjveZkEPkPgeNo584nZ5wRkc84b3g5YlXr2SSg2mjv9sb4nP/KTrgbOcgHgZ0Z5/ocExiBQlTY8GZ2AT84+Z3g7YFmg+PKJ2ec0NAf6gw9x0g3i1MOaNlYDJ9POcQHgGOM9L5PA5wicmH1+8MTs8wIwaDvgidnDW4DYSN70xfqd/MhPwhoY5gLAz43yvEACYxA4PtuWd3z2sABspM5sN7wd8Njs8zFAbCRv+mL9Tn7kJ10NHEs/xxMAxxjreZkEPkfg2Oxhf3QCPjFn2PB2wCqT9r3js4dH0RzoDz3ESTeQsz/ZnwZqYPTQ7Avf/twgxwskQAL3J6BvBzw+2zZyfLZNGLY5w9B2wOOzba2GYyN509d4n5Md2clXA1wAeP9hnldJYGwCx2crh4/PVgRg0HbAY7OV14DYSN70xfqd/MhPnhpIU7gAcOxhnj8hgfsTOJ6umo/PUQRkqfYn7t/6F189OUf9FRQbzZ3+WN+TH/lJUAMnZitcAPjFwy1fQQKfJXAkzT752BxVIHZ8tmp4O2CbRXz12Bz1ChKfvlj/kR/5eXwNpCtcAPjZoZ3/I4HxETg2Rxs8NkcTxs0ObQc8PketMB4byZu+5M4a8IIa4ALA8Q31fBUJfJ7AsXQtDxwEsO2Ac9QUML44mqH8/PPKnHfl+LyLP0RzPjHH9iPnZTj+lk/MGfpPqJa6uLPfGH9E17zy2Gx7Oagr2jWZPjjK8dn2TETH8Tma1AvkvF3fg3uXPyUBNxM4lqH6H03XBGRzVMPbAd+be/H7UOybuau5rsQoJomHjqZrF8G8A12Z84NiHU3XLiFa9D58UPvu+NnRdK0W0XQsw/60O/K+N+bRDK0U0XE0Q5N6gZy367u3P/l/EpCKgL4d8Ei6NnIkXROAQdsBj6TbrUBs/eHliKuhHknX3kNyPjLH/pKrcx4r3pEMrRPR8l669sux2nbX9ffStTOIpuOzL/zUXbnfHfdIutqD6HgvXZN6gZy367u7L/k9CUhJ4L109fB76ZowbHM0aDvge+n2FYZj38r7uqsPAnkvXVsG5TxHq5SlGOD+z1D9ZdGi5yEs4kvvpWvXkf45Pvf8d92t6WjWxUffS9dGER2HJV4g5+363F0/jE8C4yLw3ly7+XCGJhA7NNf4dsBD6fbfIrF13z+lawHjEuugFx1KVyPAnM87KBW4mcMZ2iZEy3vpajKchAMbODTP9hii53CGNqI/RDgwJUNN/SldnQLqkHqBnLfrM9TpdCIBVxM4Mtc+GRxoxOEMu+HtgO/MPf/Nwxnqx1AO6Rr0a4iJMv9T+oWfQPlmaEKfqCYa1xmvfy9dewPSMldb5Iy8jLZ5ZJ7y95CeDO200diO9NPvKVCH1AsAvV2fI2uBbZGAUwkcTtcGD+mTkmHDtgMeytAOGI99M+8hpwK6p/G6OPFnhzLUj5GcD0uy0OzQXLsZ0XEoQ8u7B49b//unufZnQD1VbhVwO/jhDK0U1CH1AkBv1ydDDTEHEhgXgXfnaXl/mqsJwEYOAH8d8N152lwg9q28zdrj4xLroBe9O1dtwHJWsx2UCtTMoQw1HNHxboZaASXgYOd352qxkJ559h0OTslQc3+aq/ZgOuReAOjt+gx1Op1IwB0E/pSh+r87VxOYGd8OqK8hwGJr4mCGluFKdgcztHVgzmWuzHesWO/O034D6qgbq213XD+YoS1E9Bycq650R953x9QXtb47VxuFdGTKe0KevgDQm/Xd3Zf8ngSkJ1Bp0h4+OFcbOThXE0bt3bnY7+EPztUGjca+6TdP2+9K0O/OVVOQfA/MtVtdme9YsQ7OtU9GdBycq50Zq213XD8wT12F6DmQoc53R953x9yfrk5BNBycq0m9ANDb9d3dl/yeBDyCwLvz1MMH52kCMGg74MF5Wh4QWxycp358yGL7lqtgHzDbn8Ty1Ub1By9X5TtWnHfmnv8uqOO6RYJV83f0HZhnL0f0HJinRd1pyzd8xXwAACAASURBVF1fD86zZyIaDs6T+wRAb9fnrrphXBIwTGB/pt18YJ4mEHsH2A54MFObhsS+6TvX/oxhABN01B82DszTbkA5m+1PTjCsw1+uT94H5mkjiI7K7CvfcXhiBhs8ME+rRbS8K8HizAOZWimiYX+m3CcAers+g6VLNxJwHwH9o+D9mZqAzGx8O6D+bnh/pjaCxH/HbF/uSoL7M7VuJN8D81STK/MdK9Z+s3YG0aHXzlhtu/o6qmWf+cJPXJ3zvfHeyVR7kP44YJZ7AaC367u3P/l/EvAIAu9kaoPvZGrCqO2fh20H3JepHTUa+7afS/c+78/USpF892dq62UojHfmaXWQjnnab2TQoX+a8U6mdh3R4u5PM/TdNO9kaqOIhn0SLwDcnXXxUW/WJ8N9wBxIwBCBfZla3r5MTQAGbQfcO0+dD8S+mXflvIs/NCTegNPeTDUby1dtMBDW4S77MtUKRMc7mWq4w5My0OCeebbHEB37MrURd69neCdL/RdQg9QLAPdmqlO8WZ+BsqULCchBYG+m6r/PrAnE9mYZ3w64P1P5BRL7lq/rjqbdl6X9K5jvtTKL+Kq7e//mgx/S71l2s7s16PH3zVP+HuyPQXfr2Ge2Z2Ia5NhdMhZHXJ/cCxzH0s3rJCA9gUqL9vBeszay16wJo7bPbHw7oP7ua69ZGzYaW/erzHLdwTT6O04kV913zzz3/+W5vWZtMaJjn1l7Q4bi3ptt/zdEx16zVu1uHfsytc2ghlJ3aijPVP78gNn+X/W1FHuzlKf0NwSVWVrUviwtY1+W/cW9Zq0F0afzcac+xiYBryZQmaUertQnUuMGbQfcY1YLgdh63lcrTeJrruqkSrN2Fsl3T6YW6apcx4qzx6wmIxoqzXKsOq80a7Ggju1jMXLV9Uqz2oNo2Jtln4fmWjZn6D/tz1T+ep9Ze3yv2f5kpdn+bKVZDdtj1tL2ZGmWPVnasr1Z9gL9YbsyUztWadbabt8H15Dcx+kr9Z84RtnTnwTcSmB3lt28J0sTiO3OMf7XAXeb7SFIbN13b446xVUQd2dpe5B8K7Ndu3Phflx2Z6v+iIY9Werh+7Xr6mu7zdpCSEe2/U1X53x3PH0B4J4sbRTRUJml/ovepj6Jl3/BJL4ny16wJ0ut2JOlHduTpbXtydLO7snSriHxne27O0feEw7v7kt+TwIeSWCP2f5j9CauzAa2A2Zf+c6eLO0GkkOlWXvNVfB3Z9tfQnLdk6UdcVWuY8XZbdZ+CWroHKttV17fk6WugnSY3XsKoD65QfnrD+5m7cKeLO063A74JsBJ8Ud3WC5825U1xVgk4FMExCTx0O4sbWh3liaMG7YdcHe2Vms89s28W13VaRXZ2jQw10s6c1fle784u7Mu/gDUcPF+7br62u4s+05Qh8NPAdR/J77LbP+vFeYLP6nIUp6qyFL9dmdpUbuztIzdWfYXd2epK3dnaSW7s7S9u7PsVjB/4J5F7ndX+cq9wNHV9c54JOAUAhU5Wl5FtiYAg7YDVmRri4HYN/Pemav9rVPg3NNo5fyLP0RzLc+y/eieZl36X/3jYlRDheXsN1ya9H2C7crWahEde7K0f71Ps59+nL7LrD2+y2x/siLX/mxFjhpWkaOlVeRolopsbVlFtr2gIlut2J2tHdudrbVVZGtnK7K1a0g+9P3cGCT1nzi+X+3wGgl4HIHybNV/V7YmENPbMCq8PNv+j0js277RRuNPxE9/974rW7uE5FuepQVOJKYzXrsrW7uIaNA/RXBGXhNpszxbG0I07MrW3t2Vre3dla1VlWdrXbuyVduubO062CZ0HzH2f4xDFTn4AseJ1BNfSwI+SUDfDlierY2UZ2sCsDVG4R2yiK+UZ2sXgNh63luMxp+oX3m2dgTJdWe2/aWJxnT068uztE5IQ672S0fndG97el3uyb3w33bkXPhpeY7yz7cfVKN3ZWtzdYbl2Vpzebb2CaKDvtA9j4wXX+i76/YCx3vrgv8nARJwMIHyHPVweY4mAIO2A5bnaFuA2HreF/QHCQdjuW9zu7K1ZWCulfdt2IUXd2XbDyEaduVqAeNJ987q9F0LtMd35dqf3Jlrf3Znjhr27/2VVp6jWXSWO3PtBeW5akV5jnasPEdrK8/RzpbnaNeQ/OgL3cvIOOAoXy4AHM8NxteQgCMI7Mi2Z+7M0QRkC+w/NprLjmwtGoqtP7xk2//RaPyJ+O3IUSPAXM9OJJ4zXrszR9uEaCjPUQt36u/Ec+0vleeob91ub9/OHK16R47WvTNHU3bmaJ8gMegL3o/o/exefyl2mjjj3mObJCAdgZ0L7D/ekasJzIxvB9xm0b6Hxb6Z+2JXgNU/kkZzLbPYHnNFrndi3Fmdvn3BhZ/smK88tSNXrUA10B+9X+g/Vg3tzNWW3aldfiUBEnABgR3ztcHtuZowbth2wO25Wqvx2JrYnqPVuADTJP08/+256sdIrjty7E9PNNebH6dblL/eukB7fPvtj9O356hhO+Zradvma5btudqyHbn2gu25asX2+dqx7bla2/Zc7ez2XO0akit9kXuCvgbqZ3Q7cLjYRO8rvp4ESGDSpEnbcpW8bbmqAGykyKI9bBTm1lztNSC2nveN7Zbz3zUafyJ+23LVBiTX7Tnq0i3zlae25ap+W3O0qG05Ssb2+eqL23LVldtztZJtucrebTlq1bZctWtbrmrblqteR+LRF6pr5J6g78THlBUTuRf5WhIgAQcQ2D5f9d82XxWI6W0YTWXLQnUKElv33Z6rBBuNP14//eP07fOVUjRX+mO1Rn7ex297rnpwg6X/6+O9F/k6EiABBxHQ371vna+ObJ2vCuNm/K8DVpqsX9s6X71qPPbNvAvHg0OfxMuet//X7QuGf/LpO/EFWtS2+UrG1tvvxLfO10q2zFf2bp2vVm1doHZtna/ats5Xr4P5AWyRfqEv+03qGrixNVddwcl/PKMXX0MCTiKwZb56aMt8VQA2hKS2Zb5aAcTW87ZtuT2Jb8lVV265PYlvuT2J3/q5eh2MgfChL1Zf5Oc9/K5tma+e2rJAXaava0HGDfqSAAk4gEDpfNVctkAViG22GP/rgGUL1BQkNn2xviM/8jNQAx+VLVDPli1Q28oWKMfKFqgVZfPVAn1iL12oWMrma2lbFqhhpQuVZ8ty7U/qk/0mi/LXFov4kgOGLDZBAiTgKAIlFvvk0gWqAC3TaD5l8y9+H4yN5k5/vP/J0PMYflS6QD1bukBtK709iW+erxaU3jWJb75rEi/hJG50iKMfCchNoHSBOohMwmUL1EOIwtIFqhWJT1/4AY4TuOdN4HqfcRJHBh76kgAJTJq0+Xklb/NCVQA2Uma2P2KU5ebn1RVAbCRv+mL9Tn44v49KF6pnNy9U2zYvVI5tXqBWbF6oFpQ+ry7btFCxbF6opX36Tvx5+5N8J250lKEfCZDAfQlstqj+mxaqAjS/+zY+joubLcpvwdho7vTH+9+XGX60aaF6tmSh2rZpoXJs0wK1YtNCtWDTPZN4yULl2RJO4uMYEfgSEiABlxHQtwOWWNSRkudVYdgsxrcDFsw9/80Si/qx4dhI3vQ13ufew+56iUW1lTyvdpVY1KqS55W9JRatpOR5dWWJRX2xZKGSscmiRW1aqPptsihPbV4w/BN9S+m6TOXPXXaTMhAJkAAJOItAyfPqoeLnVQFYG5Jb8fPqASA2kjd9sX6Xhd/1YotqK35e7SqyqFVFzyt7iyxaSdHz6soii/pi0UIlo8iiRRUtVP0KLcpThQuGf5LPSRy5ZelLAiTgLQSKF6pmaAK2qB8iLIotylwovndMYrJMpu7M46Nii3q2+Hm1rdiiHCt+Xq0otqgFxc+ry4otiqV4oZZWbFHD+HE6crfRlwRIgATuIqBvByyyqAKxu5qb8LcFFvsTSGz6Yn3nYH4fFVnUs0UWta3IohwrsqgVRRa1oMiiLiu0KJbCF7S0Qn0Sf+H278QXcZ/4hG8YOpAACZCAowgIIR4qtKgCMTQXJDZ9sb67h9/1QotqK7SoXYUWtarQouwttGglhRZ1ZYH+cfoLtz9Of+H2x+mLbn+c/gp/J47eA/QnARIgAbcQKLCoAjE0aSQ2fe/bdx8VWNSzBRa1rdCiHCuwqBUFFrWgwKIuy7/rnXjBC8qz+c/bn9zId+JoCdOfBEiABDyTQP4LqkAMVY3E9mLfj/JfUM9ufEFty39BOZa/SK3If+H2JP6CYsl/QUvbuEgNu3sSX8djV9FSpD8JkAAJ+BYBdBJFaaHxJfbnJI4WB/1JgARIgAScR2DjC6pADM0Mie0C34823n4nvvEF5djG2+/EN1rUZRvueie+4a6P0/lOHK0I+pMACZAACbiEwIZFqkAMTRKJPU7fjzYsUs9uWKS2bVh0axLfsFgtWL/o1iS+YfGtj9P1SXzdi7d+J85JHO1V+pMACZAACUhPYP0iVSCGCkRi677rFisZGxZpUeteUP02LFaeWsfV6WiX0J8ESIAESMAXCKxbrE+ixg1lhMTWfdH49CcBEiABEiABnyTg7gnY3fF9stMpmgRIgARIgATWLlYFYihBJLbui8anPwmQAAmQAAn4JIG8F1WBGAoNia37ovHpTwIkQAIkQAI+SWDNi6pADIWGxNZ90fj0JwESIAESIAGfJLD6RVUghkJDYuu+aHz6kwAJkAAJkIBPElj9kioQQ6EhsXVfND79SYAESIAESMAnCbz9kioQQ6EhsXVfND79SYAESIAESMAnCax6SRWIodCQ2LovGp/+JEACJEACJOCTBN76vSoQQ6EhsXVfND79SYAESIAESMAnCbh7AnZ3fJ/sdIomARIgARIggZUvqwIxlCASW/dF49OfBEiABEiABHySwJsvqwIxFBoSW/dF49OfBEiABEiABHySwIqXVYEYCg2Jrfui8elPAiRAAiRAAj5JYPkfVIEYCg2Jrfui8elPAiRAAiRAAj5JwN0TsLvj+2SnUzQJkAAJkAAJLPuDKhBDCSKxdV80Pv1JgARIgARIwCcJLH1FFYih0JDYui8an/4kQAIkQAIk4JME3nhFFYih0JDYui8an/4kQAIkQAIk4JMElryiCsRQaEhs3ReNT38SIAESIAES8EkCS15VBWIoNCS27ovGpz8JkAAJkAAJ+CSBP76qCsRQaEhs3ReNT38SIAESIAES8EkCr7+qCsRQaEhs3ReNT38SIAESIAES8EkCr72mCsRQaEhs3ReNT38SIAESIAES8EkCr76mCsRQaEhs3ReNT38SIAESIAES8EkCr76uCsRQaEhs3ReNT38SIAESIAES8EkCr7yuCsRQaEhs3ReNT38SIAESIAES8EkCf3hdFYih0JDYui8an/4kQAIkQAIk4JMEXv6jKhBDoSGxdV80Pv1JgARIgARIwCcJ/P6PqkAMhYbE1n3R+PQnARIgARIgAZ8k4O4J2N3xfbLTKZoESIAESIAEXlqiCsRQgkhs3ReNT38SIAESIAES8EkCLy5RBWIoNCQ2fbG+Iz/y84IauP7iG6r9xTfUnheXqO+8uERd9tISZablFeWv0bGJ/iTg9QQWL1EFYiggJDZ9sb4jP/Lz4hoYXbxEPfniH7XZljcufBsdp+hPAl5JYNEbqkAMhYLEpi/Wd+RHfj5SA1dfeENd/tLS4b9Cxyv6k4BXEUAHABQGGp/+nMRYA6yBcdbAlcVvqNkWi/gKOm7RnwS8gsALSxWBGAoBiU1frO/Ij/x8tAbqLCvU/4mOXfQnAY8nYFmqCMRQAEhs+mJ9R37k58M1cMmyVPkdOn7RnwQ8msDzSxWBGCoeiU1frO/Ij/x8uQYsS5VRy1I1BR3D6E8CHktg4TJFIIYKR2LTF+s78iM/1oAyunC5Eo+OY/QnAY8kgA4AqOiFy5TLaA7050TGGmANADXwieUNdSo6ltGfBDyOwIJlikAMFbxgmdKGxKcv1n/kR36sgZs1cHn+MtvfoeMZ/UnAowjMX64IxFCx85epS5H49MX6j/zIjzXwaQ3Uxa0Wf4aOafQnAY8hkLtcEYihQnOW2Z/IXa58guRAX6wPyY/8WAO3a2CZMhcd0+hPAh5DIGe5IhBzhNCc5bY3kRzoi/Uh+ZEfa+DTGrg8b6XtMUeMa2yDBKQnkLNCEYg5QqDFIr6as1w5iORBX6wfyY/8WAO3a+BN5XVHjGtsgwSkJ5C9QhGIOUqg/hCQvcK2InuF8gmSD32x/iQ/8mMNKFf5B4QcNbKzHakJZL2pCMQcLc78pvZ41gplSdYKW2vWm8oVJDf6Yn1LfuTnszWwQklw9NjG9khAOgLmNxWBmHSCmBAJkIDPEJj72vlv6m8azCtsaZkrbK3IWHa3b+abthM+A5FCfZfA3UVv5HvfJUflJEACMhEILBNfNr+pJpvfVK4ZGcvu8bmR/eblv5BJH3MhAYcTyFypCMQcnhAbJAESIAGAQNYq9V8y31SuIeOa7jvvLVsgkAZdSUB+AvP0QgdMfoXMkARIwNcIZK5UU5Bx7bbvK77GjXp9jMDclYpAzMdwUS4JkIAHENB/HZCxUjmFjG1zVyp7PUAqUyQB4wQy3lIEYsYj05MESIAEnEcgY6UyBxnbMt5S2pyXHVsmAQkIgDeIkEACUyABEiCBzxGYu8r+BDi+KZ9rlBdIwJsIpL+lCMS8iQW1kAAJeA+BzHXKnyNjW/pbyofeQ4NKSOA+BOasUgRi92mSl0iABEjA7QRMy7WHkbFtzlvKVbeLYAIk4EwCs1cpAjFn5sa2SYAESMAogdRV9ieQsW32KptqNDb9SMAjCKS9rQjEPEIkkyQBEvA5ArPfVtKRsS3tbVurz0GjYN8igN0gChcB+la5UC0JeAQBfRtg2ttKGzS+rVIqPUIskyQBowRS31YEYkbj0o8ESIAEnEXAtNqWioxrN31XKzwIyFkdxHblIGBarQjE5FDBLEiABEjgFgHTGvVXptXKCDKu6b6pa2zTyZQEvJpAympFIObVcCiOBEjAYwjoH/vr7/xTVisjyJh22/eTZP4xII/peyZqkEDyakUgZjAs3UiABEgAJpC00vathFX2J5LfVtKTVyttyFj2Gd81yjE4OTZAArITSF6jCBoZsAZYA6yBu2ogT4mTfexmfiQAE0haowgaGbAGWAOsgU9r4Ercavsj8ODKBkhAdgKJaxRBIwPWAGuANXCrBpLybC/LPm4zPxJwCIGEPEXQyIA1wBpgDSgiYY1yybT+3HccMriyERKQnUB8niJoZMAaYA2wBhQRl6fMln3MZn4kgBMQ4qGENcMBvOk58LMGWAOsgZufANVYLOIr+ODKFkhAYgKx69Vfxa1VauPWKoJGBqwB1gBrQLkSu0b5HxIP20yNBDACMXnKz2PXKkdi1yqCRgasAdYAa+BmDVyPXWd7Ghtd6U0CkhLQD8uIXassiVmnfBKzThE0MmANsAZYAzdrYDRmnS1a0qGbaZEARiB6rfJM9DplIHqdImhkwBpgDbAGPq2BT6LW2SKwEZbeJCAhgYgN/V+PXmdbyZv905udD0B8CGQNsAbu1MBF/c2RhEM3UyIBjEDEBtvfRa1XGqLWK4JGBqwB1gBr4DM1UBObzwV/2CxDbykJRK0bDohcr1yKXK8IGhmwBlgDrIFPa+BS1DplHrf6STl1MSmUQMQGJT1ivXIjYr0iaGTAGmANsAZu1sDliA3KG5E84Q+dYugvIwGLRXwpYoO6NHyDImhkwBpgDbAGlBvhG5Wj4RvV5OAi7WEZx23mRAIwgbjV4s/CN6hlvOE56LMGWAOsgU9roGiSEA/BAywbIAFZCQSWiS/rk3/YBkW4yYbDN9j2h69XXgnbYIsKXT/8/wWv1/6X/lFbUPHFR/UbMLBMfFX/Pmr98A/C8ocnh2zQfh26UU0O22hbofuGbVQUN+WuM1vDQULW6mZeem2GbVTy3Hh/ePT9Hb7B9ibvb95HXklA/9g/ZKNSGLpRES60D0M3KDtvTuAOWkV7U8e64Z+EblTmhG5UKkI3Kh+5UI8I2aD80SsLhKI8nkDYBnWpK++F0I2K193fofnqcj4EePytQAGfISDEQyEblbUhGxXhArsRslHZG5yvhkStU/78M3k44T+Bq+2PhOQrMSEblSMhG5VRF+gTwRuVhU6QwiZJwDCB0I3qi66o/ZCNitff3yEb1JcMdwQdSUA2AqEb1eyQfEU42a7oT89BG2x/5y79IYW2H4XmK2tC8pVrTtaqs4x3l07GJYG7CQTnq0kuqHefur9DC3ji3901xu89lEDIRuV3wfnKjeB8RTjJPgzKV/4YKNGWmeAi7XtB+erS4HzlIydp1lmOzMq3PemhZcG0vYTArALl/9Vr0Yl17qv39zWdrZeUCWX4IoHQAvsTQfnK5aB8RTjH1DJ9spWV7YyNwz8MylcqnaP95gPVOZn1y9ovzMsxBGZuOPffg/IVm7PqOyjft+/voHxF0xk7prfYCgm4kEBowflvzspXumcVKMIJNjAj33P+HGZQgeo/q0AZcgIHnW3108utX3Nh1zIUCUzSa25WgdLgpJrm/f3puGk78dQh8RWWHAl4FIGZBcqamQWKcLgVqltubtnzKBqTJgWW2R+ZWahucTgPnXG+7Q8ehoPpejiBWYXKq06pZd7fnx8z87ko0MNvF99Kf2ah8jsnDA4fzyi0RXo0SSEempGvpM8sUEYczOeTWfnaP3g0GybvMQT0303PLFBuOLiGeX+P/YbpxqwC9V88pkCYqO8S0BfjzShUbDMKFeEom16oDM8sHP6lt1CdXmz7PzMKlQuO4nO7na5nV5/9hrcwog45CejH1M4oVAYcWbu8v8c1VvYGlg39JzmrglmRwG0CMwqVtdMLFeFA6/HGhTCBRed/PL1Qed+BnPQHLh4SxDvRqQSmFypLHFmz0wsV3t/jHi/5qwCnFjcbxwjMKFL/78BC5UZgoSIcYgVKR2C++jdYVvJ66w82gYWK1SGsbjEfCShR/6e8ipmZJxMILNL+V2ChMuKweuX9PdFx8preB55cQ8zdSwnoR+ROK1KqphXZhIPMOqtk+K+8FNensmZuOvffpxXZ3ncQM519xaeN8xsScCCBwCLlgAPrlPe3kbGyePhdB3YpmyIBxxAILB4OdeDgMBxYaPuRYzKTvxX91wHTimwXHMUvsHD41/KrZoaeRCCgRHnWUfU5rcjG+9vI5H/bx794+FeeVDvM1csJ6H/lL6DY1h1QbBMOsI8Ci9X/7eXIPifPv9j2fwKKbSMO4CcCSmxN/IMin0PMC0YJCPFQQLGt3iG1WWzj/Y2Ok0VKFe9vo8VMP4cTCCgZDvEvtgmHWIkS4/AEPaRB/yIlwyEMbw0w/+Yhspmm5AT0d/+Oqkt/3t8OGSf9is8/J3nZMD1fIKC/+/crtnX4FduEAyzfFcz88s/8hX+RbYZfse0l/2Jlh3+xzepXbLPftst+xbaLfiW2Jr+S4XK/4uEl/kXDfvpBPk7PTYiHbsV0CMv3nJ4vA/gEganFtloH3Nv6+OCy+/u5EuVZvyLby37Ftndu3svFtiG/YtuHfsXD127f511+Rba9U0tsb9wcCwrOf9fpnenA+9tf/xSA/0jA3QSmlgwHTC2xCdiKhwd/58Q/3/tM8cVHpxYrcVNLbPunltiuG8j3+nObbMeeKxlO+k3B+W86i3tg2aX/PLXENmQgv8/1gV/JMA8HclZH+Ui7vytW/tkRtTjVyfd3YJntW36bbFFTS2zHp5bYRg3kPPrcJttJ/f7Wxwpnda8j7+/nNp3/f5yVJ9slgXERuD2hfm7ymegN6Fdi+9dxBZzgi25O/JuGF00tsV2aaE4PeL3db5PtD/6Fyn+ZYDrjermjHqr8SmxbxhWQLyKBMQhMLbZtfsB9MO773ln3t/5p3tQS29KpJbbLjsjzdhtXppYMvy77/T21eLh4jG7jZRJwPoFn///2zjy6qfvK4ySdpG3abMY2OxhsjDG2WRwDBgM2NmCDDVmaZjrNdElO0oSkyTTpnC6ncyaZ7k3atJ2kS9KezMmZeJFkLZYteZH3lDaUNltpmpImnSyge58NJgSMIfhNf4ALobYkv/uTF+n7xz229X73d+/9/O73+Ul6y1PB+Tsq+dSOSjYltr2SKnVnq76a2PE0f2lHJfdJcgvj26feMahLIHXnv6OS/WFiR8CcBtQOUndumC8+CFz3VDB5RyUNSPswGvq+/efmJduf5nt3VFKvNL8Q/keurTTuj8bDeHTpO1oHKfHR4ahSRGBHFX9zexWbQuu/tkrvIy/VfNuruFuYV8R17ajiXdttxiIRzAuct9s4bXsV94trqOa7L5gaf4JARAR2VPOXxf1XxVHRd0U179GQW0QaV7GurabUiKBFOEifvo37IgyJYSCgj4B611tRxW9VVLEpse2Vxvf0ZTVlSkUlXVtRxYclOVn0Pbi9xijSWks1/9hiLufWpJr36MwJc8UPgfJqflHaf9r1Xc1lFVXUK83Lgv/h8kqjQufqV+jQdxXv1pkT5gKBiAhUVAdXl1exKbRjZbYDSREFjGDQtkq6ubyKTwpzEtREA9sq+dMRpBrRkB1VvXPKq2hAWs+26p7FEQXEIBA4S2BrtZEu7bvyKtar72rj9vIqPqUhL6saP1lRxbfqahJd+lafJujKCfOAQEQEyqv52+XVbMrM+ElEwSIYtE3tHKr5lCwfaT2n/Qe31eg7CCiv5iekNVVU0RcjQIghIPB3AuXV/GVp35VX69N3RRX960TRt86DAB363lbFX/37wuEXEBgLAtuq+Y/bqtkU2CldR65l1Vy2rZpPCXKR1DGMLw1s0/R1gHontq2aB4W1tY1FTyBG7BDYVs2/FfacNn1X1NC126r5pDCfYXRqef91srxGz9cBWvRdxd2x03moZMITKHfwwq01bMpMz0MtSqsOpGytoV5ZLtJahvU/qMStnO4t4gAAGQ1JREFUYzG31vAzsvpoYLvHuFxHLpgj9glssR1O2FrDp4Q9p+WhNWf0zX2yXIbVp3D/xX1lmk4MlOubT0Dfsa/LCVNhWQ3fUlbDpsiq6VPSgnJ/bl5SWsN7RHlI6wjhX2rjX+m4RLDUZtwur5GulfKGf3wQKLUZ28X9pkHf6lLeshruFucSQqOSudW+R8clgjr0vbXaKI+P7kSV406gtIafKK1hU2BHC238UWkhW2x8ryAHSf4R+26poTukdaqbGZXWcL+k1rIa47vSPOAfHwTKauhhSa+V1rAWfZfV8JeEeUSsU8txbPLL8HToe0sNPxIf3Ykqx51Aqc34Q6mNTYHVS4sodr41tdRGvYIcJPmPxrdvq42nS+vdYmOfsFacByBdhDjxL7XRs8JeE+v79D9FG/cJ8xiNTq2OfWeC6BvnAcSJPse1zELXoau22PjUFhublq2G75IWscXGP7QcX5K7Bd/NNfwtab2ba+iLwnoP6/g6QloH/Cc2AfWx+xYb94t6TYe+7fRfohws6NRqvFK78ZB0VXXoG48Ilq4C/MMSKLFxwWYbmxLb5OCFYQOFGKC+Pths43ckOYytL/VWePdfFqKksJu2VBsrxDk7ejLCBsKAuCZQajMWSftMqm/17n+zjQ9L8xhD/yMqZ0nj6ND3FtwPQLIE8I2EQImdP7vJzqbAeqRHqpsdfIsgviR3674O2bkA6t37Jjv1iuq20XWRrDHGxC+BEjtdL+oxO4v1XeIwbhPmYF2nFvdtJTa6U9I1OvRd4qAbJDnAFwTCEthk52+V2Nm0bDZuDBskzIBNdv6V5fj/mPuLm2x8b5HjwBL1mN9825sf3uzoydjk4LtK7PyCrjjFNu4MU1bYzSV2IyDKx2F8IWwQDIhrAsV24z9EPaZH382iHM7TeLGNn1f/nItsxqIbbeal6qx9pe8SG99dYucXdcUpsfMuaeOI9W3HDb+kawD/MAQ22dkuEU2xnb8TJkTIzYWV+xNL7DwoyeGs73G1Ywj1vbjapsaU2LlfQ7wTZf/be0XI4sJsLLHzY5I8Ntn5R2FCYHOcEyi28xOSHpPqW53cW2Lnk5Iczvr2F9uNz4X6tPH0u24H3aFJ34PS25pD33EuvslQfrGDdxc72LRstcbtkjo3OowKy7HP5X28uDbyB/eoscUOPiaNW2IP7pDUXuzge2Q5GG5JfPjGPoFiB3tFPSbUd3Et3ySKf0bj/Rb03S+Nu9HON0o6RKxvOzsl8eELAmEJbHTwvo0ONq1acS2VhA0SYsBGB3/bauxzfqP/Pn6jg+4852+xfjs9HKK0sJuKnVwqyaHYwb8NGwQD4prARgfvFvWYXN/fkMRXvqff+Y9yFYvstFMat8hB3x9l2PcNh77fhwN/TEQCRbVsFDnYtGqFwjPRC+3cbDW28tvo4BdDfew/EnPlo3wlsQuFR+iFNl4miV/k4D+NVB9eBwFFoMjBb0h6TKrvIofhlsQvcvDzoT72H2mVdei7yM6i+x9I9b3RwX8eqT68DgJyAqZ5UWEtnyysZdOqras1ZkgSKazl563GPu3n4Hutxi908N2S2Btq+XdWYyu/4lpaIIlfWMtvSeLDN/YJFNbyIUmPadD3nyXxNzisn42vQd+vSDoE+pbQg2/UCajr7yXiVL7qLHtJooW1/KYkh2Jbb6bV+MpXEruwlnusxlZ+hd79icL4hyTx4Rv7BApr+V1Jj2nQN0viq7P9ra6SBn2z1djKT4O+D0riwxcEQhJY6zEu3+BkU2JTHjAvDhkkzMYNTj4mia9qCBNixM2bm4IfkcTe4OTDI04ewYYy374PCuOfiCAMhsQxgQ1OGpD0mAZ9H5LEVxqxuny53v2XSWJvcPJxq7GVnwZ9i+JLcodvHBBQR/frnWxKLNNmXipBtd5JA5L4knco6gBAEnu9U/YJgHr6oTD+MQl7+MY+gfVOHpT0mFzffFQSv/DJ1z9kdZVW+XqvkMRe7+SjVmMrPw367pfEhy8IhCSgbqKxzsmmxNRRdsggYTauc3KPJP56Z8/iMCFG3LzO3Zspib3OyftHnDyCDSW2g1cK4+Mjwgg4x/OQdU4+IekxDfo+JIkvOQlxvTuYLYm9zslvSHpHg77xFZ9kAeAbhoBpXrTOxabEij00LUyUkJvXuXifJP56p/UHEa1z8eclsQvc/HLI4sJsVCdYSeKvc8kOQMKkh80xQGCdi3skPaZB389L4kv0XeA07pPEXufi30taQKxvNx+QxIcvCIQlUODiowUuNq2aOsoOGyTEgAI3+63GPu3n5BcsfU/5gHlxgYtfEsV2cW2I0sJuWuMMZgnjvxY2CAbENYECF78m6TGpvte6DLckfoGLX7Sib/UUxAIX7RXFdrNf0jxSfa918euS+PAFgbAE1rr41bUuNq3aOlewOGyQEAPWuvgRq7GH/Na4Rn+pUIGT7xryt/zTTQ+GKC3spgInl1qOfWbN9oQNggFxTWCti5+T9JhY3076gSS+8rWi7zVOvkcat8DN35A0j1Tfa1yyy4wlucM3Tgis8XD3Gjebls1j3CZBtdbNN1mOfS7v/rWeyG8FrMaucfNxDXE/Jql9jce4TZSDC7cClvCPB981Lm4W9ZhQ3/luuk4U/4zGj41G36vdVLLGzSekcde6eaukR8T6dpNHEh++IBCWQL6Ha/LdbFo3+kHYICEGrHEGk/PdPGg9/t9zP7ZafRIQ6rLEB8yL8918V76bj2uId6KgXvbM8NUeeliYx6Mh0GITCExZ7abHZT0m03eu7eCV+W4+KcvhtMb717hpZyh9q4/98z18b76bT2iINzje+l7t5sfQwiAQVQL5Lv6hUCzixwHnu43fCHM4/wDmxXwP373K3Zt5+kZH7a9/SP2+2sWfz3fzSxrj6Kg7IMzny1FtDkw+6Qnke/grwh7T0Of8jDCHYfWtrlBQ9wHJdwez17iM+/PdtFdjnC7p4ue7DZG+V7v5q9Ic4A8CIQms9tAdqz1sWrY66rVyr+7zk1pVRzstx5fkLvKVffWh6l/t4R5J3fl1xifO54jfQeBCAqs8xj9Lemx1nOo7302fupDlaP+W6nt1HX98tDExHgRGRWC1h9au8rApsby6A0tGFfSCwfm2wwmrPHxEksMY+/ZJPx5Un0qIc3Zbvw3yBUuAP2OUwCqXkSvtM6m+c5qCH1nl4YPSPMbQv096/wMd+s739mTEaFuirIlCQN0ta2UdD66sY9OyeUf/ON4L61/lpYctx5fkbsXXQw9cmP9o/87z8j3Ceo+q7zxHGxfj44uAupPfyjo+Luo1DfpeWcffEeVgRacWfdS+SNol0LeUIPzHjEBeHb+eV8emVVtZxw3SZHNrjRkr6/iI1RzG0O+gOrFJWm9eHXuFOf9amgP844NAXh09K+k1XfrOq+M+SR5j5GtIP91TXSXXNz0bH92JKsedwEoP24XiOi55KM8QgDyPcb8wD8sHMRHH9Rj3D+Vr9ac6gMir4/6IYw53cOY1fmI1Pvzii0Cehx8V9Vod69F3He0U5hF1fV/j4bul3aFF33W4AkC6DvCPkECul+64xsumxPK8xicjDDfiMPVsgmu8vEeSR5R920NdhjRiYRdsyPPyZ6V55uEEoQuo4s+RCOTV083iftOgb6Wda7y8S5pLFP13q33QSBwjfV2Lvuvp+kjjYRwIiAis8HBarpdNobWJkjjrnOuj1FwvHxbmIq1lOP9DuXUH5+qo8RqvERDW915+4+EEHblgjtgnkOMMJud6+ZSw57To+xqPsSjXyweFuQynT+lrxkTSd7bwHiOx39WoUCuBFfX8+govmwIbXOblhTqSWuE1KlZ4+aQgF0kdw/meWFFnlOuobbm7N3OFlwcltS334vtBHWsRT3Os8PJuSc+pntWl79x6o2iFlwaE+QynU6uvvbe8nkp09IMOfa+o49/qyAVzgEDEBFbU0+PL69kU2o8jDhhm4PJ6vnV5PQ8K85HWo/zfW+Hlm8KkG/Hm5Q3GT8U1efnrEQfEQBCYMmXK8np6UNx39axN38vq+dMTRd/LGvgzupoE+tZFEvOMKQF1BKxhB3Esr4Gn60r87EHASQ15WT0QeE/nzkGxWV7PR6X1rKg3cnUxxjzxQWBZXU+etO+W17NWfZ85CKABDXlZ1fcJnQf3uvSdUx/Mio+uRJUThoC6pnxZPe9fVs+mzIyHdBaV4zUqltVznywnSzUZuj4WHOKxvJ7/W14H7R2aDz9BYDQEltbzy/L+06vvpfVG0bJ6PijPa9QaP7S0Qc/XekNroEff/NLQfPgJAmNKIMfHjyxtYFNo/Tl1wfk6E8/yUerSBt4jzGs0de3WdULQEIdl/gMpSxv4uIYacP//Iaj4OSoCOQ38FQ39p13fSxuM9KUN/CsNuUWmcR+3T2B9f21Ui4rBIKCLwDJ/T15OA5sarFZXTkPzqMtzljYY9+U08Dsa8hu+Rh/3ZDfwXTouBRrKe+jn0gbDpSHvU1lNvXOG5sRPEBgNAdU7OQ18SkMfate3ukQwx0d35jRwn4b8htd3Ax9c6vvbfTxCPTF0NEDPG6tL37rfPJ2XIn4FgfAEsn28O9vHpgYrCx9t9CMyG3h6js94KNvHRzTkOFRnX46PHo7WpTdZDUa5llz97B89MXiAwDkCWT5u1NKLPo6avrMb+NvZPurVlKfSeF9OAz2wzHXoqnMk9P2mTd8+8ujLCjOBgAUCOX7jE5qE91a0/qGqstTcOX7ame3jXdk+HrSQ82B2A3fl+OhT0gd/hMKsdjrZPvo/C/kNHZyc+9mo51KlUPliW2wTyPLRZi296OOo6ltpMquB7sj2cWe2j09YyPnEmYMd47Zo7od06jvH17MxtrsP1U14Aurj7ywfv5HlY1NqS3z09FgUvNx3ICnbzzcu8dP3s3zckOXjP2X52Mjy8fEsHx89W89z2X72Zzfw17P9vDWaO4Xza872sV3K8az/c+fPi99BwCqBLB8/p6Mnx0rfizzG5dkNwR1ZPno4y8fOLB//LsvHlOXjg2ctmOWjvVk+dizx0YNLfPyxSajvF6yuJ/xAQCuBLB99cYmfTT1GO7UmN4kmy/Qbn9PDkM1Mn/xWy5MIHVKNIgHVS7r6cokf+tbBMstPN0dxyTE1CEROQD2/O9PPBzL9bGqwE5l+Log8emyMzPAZGzL9NKCBn1qDv+TuMS+JDTKoYrwJqF7K9PM+Tb0JfYv3k8YfpuDR3uMtC8Q/n0BmI92x2M+mDsvwM2U0GOnnzx/Lvy9p5LTFfu7RwU7NkennG2OZF2obewLqY3Jd/Ql9C/eTPrp27DsAEUEgFAGb+YHFjfzHxY1s6rCMRn5zccP+eaFCxsI2danV4kZ+TQezs3PsmmKaF8UCG9QwsQgsbuRuXX0KfVvbT2Y08m7oe2LpAtmcJbDYT9dlNJKpz4Ivp/l6Z8cq4HRvz6zFjfSqPl40mN54YGWs8kJd40sgw0/5GY00qK9foe9RsjyV2RRcNb5dgOggEILAIj/XLWokU6P9NRa/Dkhv6slY1Eiva+Rkpvvpf0IsDTaBgJjAosbgL3X27KJGgr4j3F9mNNKj4gXEBCAQTQLprT2z0puoL72JTI1Gi5ppbTTzHsu5M5poTXoT9Wjko1i/PVaXMo0lK8SaWARS2g9dpXpNc+9C3+H3l2+n+XqvmFjdgGxAYBgC6Y3B2xY2kanZBtKa6M5hwk2ql9Ib+e6FTXRcMxtzYVOwfFKBQLKTlkBac3C7/v4l6DvEPjO9CSf+TVrBxF3ipnnRwmZqXNhMpnZroqfn1vddPdmYqndOaS1crZ3HGcZPTjYeyHdyE0hvpqei0svQ93D7zJ9N7m5B9nFHIL19f2JaM7+R1kxmFOyt1Kbo3Fs8Ggul3jGlNdPbUeCg2L6yoOXgldHIG3OCwEgEMtv5o2nNtDdKPQ19n9tvvjR715sfHmkd8DoITFgCaS3B1anNNJDaTGaUrHZRk95HCeuEmdZKqQuayR6l2s3UFnonLXAgU2fOmAsEIiWwsGX/4tRmOhK1/m6m+NZ3Mx1NazywJNL1wDgQmHAEUlv48wtayIyi9acG6OGUdp4+UYqfH6BpC1r4kQUtNBDFugcXtND1E6Vm5BGfBFIDwZsWtJDqxWhpPF71fWpBC90Qn12FqmOKwPwAPTq/hcwoW//pOG3GovGCl9rIaQua6WfzW6g/yrWa81v46+NVJ+KCwPkE5rcEvxb9fqc40zf9+/mM8TsITF4CD5gXz28m+xjsJNRBxuD8lmDH/Ga6eSy+G1/0jHF5SjN/ZkELt81voVNjUmOAn8DdwCavHGIx8wUt9NMx6f140HcLPR6LPYKa4phASvvrH0ppDXakBMgcQxtICZB/XoB2pjYFs7T80zTNi1KaejJSAnxPSoAaUwLUP4b1KHY2PAgkjoU0UUu3mR9ICZBrjLUQe/puDdaoR6xP1GVGXiBgmYB6Rz4vQN3zAmSOk/XODVDj3BZ+ZG4geHtKC22ZH6CceY3GjLndfVcP3WhD5Zna9PacuW0HlqgxKS1057wAfW9eKwXmBejQOOVuqtwzbXsvtbwAcASBKBJI8+374NwAucdLH/MCNKn1PS9A9in45x/FDsXU405gWlPwI3MD1DI3QOofGixCBnMC5FSfooz7AiIBEAhBQD06eG6Aq6Ht0e3b5rRSLR7hHaKxsCl2CJx+p9BKnrmtZMIiYcBP4GP/2On/mK/EZn5gbis9CW1Hou3TBwo/xzv/mFcFCjyfgDranROgx+a0kgkLxYC/oeXchfPh43cQiDYB07xoTmvwa3NaaRD6HlHfg3Nb+UvRXgrMDwITlsCstuDts1tpYHYrmbD3MXh3dlvwXybswiExEIiAwOw2un52K70Lbb9P22pfd3RWG388AoQYAgKxTWBmOxfMaqPgrDYyYacZvDKnPZgV26uO6uKFwKx2XjarjV6Bts/s32a30d7puINnvLQ/6oyEwLSmYPLMNvLMbCMzvi1YMxb3L4hkTTAGBHQRUCf/zmzjX8S3tsmc2UpPzvTuv0wXV8wDAjFFYGZ78NaZ7fTOzHYy48o6iGa188diajFRDAhcQGBGG90ws5164krbZ/Zl+6HvC5oBf4LAcASmdQbnz2wP1s9oJzMurI0qZ7bvTxyOBV4DgVgjoHp9Rjv/YkY7DcaBvgdntNHj6nHgsbaOqAcEokpgegeXTW+nP01vJzNG7ffTWoMbowoRk4PABCWQ3EprZrTT8zGqbbXP+o06v2mC4kdaIDAJCOwxL0nuoPumdRBP6yAzFiy5g96c3smfnmKaF0+CFUCKIBA9AqZ5cXInfXJ6B70SC9pWNahapquv80zzouiBw8wgEEcEZu7Zf9m0zuC9SR38RnIHmZPU9iV30M7Zu978cBwtHUoFgfAE2s1/SmrnzyR30KuTVNtqn/SHpE6+Zcoe85LwBWMECIDAqAlk7t176bTO4K3JncE9k2hH8evkNroB7/hHvdxwiDcCpnlxYpuxLbmD/MkddGoSaHwwuYOak9q5FO/4461ZUe+4EkjupqVJncEfJXdSb1InmRPM3krsou9Ow/X849ojCD55CSR18sKkjuC3kjrpLxNM22ZSF72a2En/mdxKqZOXMDIHgRggoJ4tkNTBZUmd9FhiF/31b8I0x8n2qRwSOmgT7t0fA42FEiYMgakdB/ISO+mhxM7gy+OkbbVPeSGxg76X3EVr8W5/wrQGEgGB9xO4ujOYndAV/EJCB1cldtJrUzvJjIINTj39LiBYM7WDduKdwPvXAH+BQLQIJD5jzPyb9m6e2hn85dRO2ju1k05GQd8n1T98FSOhk29RMaNVD+YFARCIIoGPdh1ISujm0qndfE9CFz+S0EnOqV30+6ldxAlddCShi8wR7FhCF+1P6KJnE7qpNqGbf5jQFfy3xI4DRVfhut4orhimBoHICajHZCd2G7kJ3fzZqZ30nau76KmELmpN6OI/JnRRb0IXvTuMvo8kdFPw6i7al9BNXWd9Hkzo5lsSOigfJ+pGzh8jQWDSE0h8xrj8il1vJlzZ3Xe1uuJg0heEAkAABP6BAA7c/wEJXgABEAABEAABEAABEAABEAABEAABEAABEAABEAABEAABEAABEAABEAABEAABEAABEAABEAABEAABEAABEAABEAABEAABEAABEAABEAABEAABEAABEAABEAABEAABEAABEAABEAABEAABEAABEAABEAABEAABEAABEAABEAABEAABEAABEAABEAABEAABEAABEAABEAABEAABEAABEAABEAABEAABEAABEAABEAABEAABEAABEAABEAABEAABEAABEAABEAABEAABEAABEAABEAABEAABEAABEAABEAABEAABEAABEAABEAABEAABEAABEAABEAABEAABEAABEAABEAABEAABEAABEAABEAABEAABEAABEAABEAABEAABEAABEAABEAABEAABEAABEAABEAABEAABEAABEAABEAABEAABEAABEAABEAABEAABEAABEAABEAABEAABEAABEAABEAABEAABEAABEAABEAABEAABKYH/Bw/QBadLT9xmAAAAAElFTkSuQmCC;" vertex="1" parent="1">
                    <mxGeometry x="150" y="585" width="20" height="20" as="geometry"/>
                </mxCell>
                <mxCell id="43" value="" style="shape=image;verticalLabelPosition=bottom;labelBackgroundColor=default;verticalAlign=top;aspect=fixed;imageAspect=0;image=data:image/png,iVBORw0KGgoAAAANSUhEUgAAAgAAAAIACAYAAAD0eNT6AAAAAXNSR0IArs4c6QAAIABJREFUeAHsvQl4VNeV74uTdJKbpO34dift252+92bo++537ZCkk3ff12n3fe4myWu34xhJiEHzPJcEEqg0AC6DHcdDMIMxBjFpBIlRCAQGHDCj5hGNpRFhQHXOKUYPCKP9+jC4MUZYOv8adlX9+b71SRzV2mv9f3udvU+V9t6aNIn/SIAESIAESIAESIAESIAESIAESIAESIAESIAESIAESIAESIAESIAESIAESIAESIAESIAESIAESIAESIAESIAESIAESIAESIAESIAESIAESIAESIAESIAESIAESIAESIAESIAESIAESIAESIAESIAESIAESIAESIAESIAESIAESIAESIAESIAESIAESIAESIAESIAESIAESIAESIAESIAESIAESIAESIAESIAESIAESIAESIAESIAESIAESIAESIAESIAESIAESIAESIAESIAESIAESIAESIAESIAESIAESIAESIAESIAESIAESIAESIAESIAESIAESIAESIAESIAESIAESIAESIAESIAESIAESIAESIAESIAESIAESIAESIAESIAESIAESIAESIAESIAESIAESIAESIAESIAESIAESIAESIAESIAESIAESIAESIAESIAESIAESIAESIAESIAESIAESIAESIAESIAESIAESIAESIAESIAESIAESMBDCFz9t8DHPnpuZtCHzwUt++C5oHc+fG6m9cPnZtk/fG7WyIfPzRI0hzLQmdo/eG5W20fPzdrzwdRZv/9g6qyp9sDARzykXJgmCZAACZCAJxO47Bf2Fx8+F5T64XNBtR8+FyRobmcw8uFzQQc/mhoUKp6N+4Yn1xZzJwESIAESkJDAh/7B37s6NWjpB88Ff/DBc8GCJiUD5YPfBc3Xng5+WMISYkokQAIkQAKeREDExf3ZVb/grA+mBl/9YGqwoHkAg+eCz12dGhQhJk16yJNqjbmSAAmQAAlIQuDy70L+rw+mhjR9MDVE0DySwZ6rgRGPSVJOTIMESIAESMATCHw4NSTgg6mhVz6YGiponswg7P0Pp4b9b0+oOeZIAiRAAiTgZgIf+IUmfDA19BNO/J488X8m9w8/mBr2tJvLiuFJgARIgARkJqBP/lenhgma1zG49sFzof8mc+0xNxIgARIgATcRuDI1PODq1PBPrk4NFzSvZHD1g9+F/sJN5cWwJEACJEACMhK49LuQH12dGn6JE79XTvx3P9ANXX521l/KWIPMiQRIgARIwMUERGDgV6/6RTRd9YsQNO9ncMUvYqeLS4zhSIAESIAEZCRw2S8q64pfpKD5EAP/yGky1iJzIgESIAEScBGBDwPD/uaqf+RVTv4+NPnrD3tTIwfF06avuajMGIYESIAESEA2Alf8Ipde8YsSNN9jcHVqdJps9ch8SIAESIAEXEBA/8M+V/yiP7jiFy1ovsfgql90vwgM/LILSo0hSIAESIAEZCJwxT/KxInf9yb+u/v88nPRz8pUk8yFBEiABEjABQQu+8fUXvaPEQ6xgJiWSwGxaVcCYh8/Hxr6TRekD4VANUPBDTjbApO+ddUv6ieX/WLNl/1j+tD87/hf8YspMZAOXUiABEiABDyVwAf+cf/lsn/s6GX/WAHax1cC4hKFxfIlT2IBahbu1Kpv27zkH7Posn/sDVTHZf/Yy1wM6M7eZGwSIAEScDGBSwExsxwweXx8xT/un12cukPCododkgTYyCX/2FBHPMRdnRY/BUyF7iRAAiRAAp5C4EpA3LLL/nECsSt+8QmeovfePBHduu+97bnr/5cD4l9DtVz2i3vVXfkzLgmQAAmQgIsJXPKLf+eSf7wwahcD4ls87WP/uxEb1X3H7+623Pm9vjbgkn/88J28jHzV+9KdGhibBEiABEjAhQQu+cf3GpksPvUJiPfoPeSf6jD4EOTCrvrCUBf9E14H9Yx+GJjwN18YiC8gARIgARLwfAKX/BO0S/4JwqhdCYz/X55MwajuO34yab/sF/fknbyMfr3sHx8tkybmQgIkQAIk4CQClwISr10KSBRGTf/o2UmpuaRZo7rv+LkkyXEGEU9ZvnIpIPHCndyMfL0ckFg2znB8GQmQAAmQgCcTQB8AlN9F/bmH6zf88KNPsLJpvxyQuNXIxH+XzwX9QUI2XcyHBEiABEjAwQQuBiRrFwOShFHz9F8BGNV9x8/B3QE3d3Facsyd3Ix+veyf8o9wImyABEiABEhAbgIXA5J7LgYkC6N2ISDFoxcBGtV9x0+23tX8Td+7k5vRrxf8UxbJpov5kAAJkAAJOJjAxYDkfUYnilt+Ka2e/IdkMO3J0v0KQC+PiwEpraCuGgeXGZsjARIgARKQjcCFgORlFwNSBGKXApKTZdM13nwQ3brveOO48nUXpyW/Duq6cSXQ9B1X5sxYJEACJEACLiZgDzDNuhCQIkC7dnFaskceIwvqlvMBwN/0K1SXfZop2MWlyHAkQAIkQAKuJGALTHrswjTT6IVpJgHaNXugKcXTfh0AapbyAUD/oz4XppmuQtoCTAWurEPGIgESIAEScAOBC4GpNRempQrHmOnUhYC0OXa/1Cc84YwAVLMbumtcIS9MS60AtZ335COexwWJLyIBEiABXydwYVqqCZwsHPTw4KiHELe2c/3CtFT7xWmpHRenpVXap6W+cmGayf9S4Jz/7Mo6swempaB9ejEw9eeuzJmxSIAESIAEXEzgsl/yX1yYlnb1wrQ0QXMag+sXpqUduhAwO8oVn4xcCpzzI7Qv7YGzc11cigxHAiRAAiTgagLatNlv2KfNFjSXMLigTZu96GJQ4qPO7Gf7tNlWsD+PODM/tk0CJEACJCABATVwzt/Yp82+Ck4YfICY2EOUag+Yk+Cs37Xbp81+E+zP6/ZA8yMSlCdTIAESIAEScCYB+7TZmfbAOYLmWgZa4Jx3tZnpf+vovrVPS/8t2pfa9PQAR+fF9kiABEiABCQjIOLi/swemN5gD0wXNJczsNmnzfknR5bE+dC537QHpn8M9eW09DWOzIltkQAJkAAJSEpAmZH+P7TA9MtaYLqguZzBNXVahr8jS0MLzDgA9uNpR+bDtkiABEiABCQmoAbO9dMCMz7RAjMEzeUMrjvyY3dtevpcuA8D5jwucbkyNRIgARIgAUcS0AIz4rTAuYLmFgYf2afNc8ivA+wz5j4B9+G0jAxH1hbbIgESIAESkJyAGjgvQgucex2eQPggYeRBaliZmfnXjigRLXDuaawP5+13RB5sgwRIgARIwIMIqNMzp2qB8y5rgfMEzeUMDopJkx5Cy0ULzFwL9t1H+oJCNA/6kwAJkAAJeBgBW8C8v1MDMxvU6ZmC5loG2vR5UWi5aIGZ09B+UwLNz6B50J8ESIAESMADCYinLF/RAuelqdMzL6OTCf3H/xChTM9UtGDTw0jJXJg6+9vq9MzrGHfzciQH+pIACZAACXg4AcU/578o081L1Onmq+p0s6A5n4E2PXMBWjbKdPNRqK9mmLvRHOhPAiRAAiTgBQQu+2X/hRqYlaIGZlWp07NG1elZguY0BsPWp01fQ8pGnW6ej/bP8Ix5P0RyoC8JkAAJkICXETjvN/e7tsCsGcp08xvK9Ky9yvSsTmV6tqZMz7qmTM8SNAcwmJEVjJSNMjPzF2g/qNPNyUgO9CUBEiABEiABryVw8/jdGTlPKNNzMpQZWd3K9GzhGMvajUDT/+CQMj17GMslaxeSA31JgARIgARIwCcI6Asn1RnZWcqMnE+UGTkCtGtasAVaDKjMzCkEc7iC/irCJzqeIkmABEiABEhAJ6DOzPVzxEOAOiMb+jsB6vScEPABQKgzc6awV0mABEiABEiABMZJQJmRu1CZkStAyxtnuPu+7Hyo5bvKjNwbWA7zX71v47xIAiRAAiRAAiTweQL6R+fKjPkDthnzhWGbPn8IPRnQNmN+reH4t3Jv+bw6XiEBEiABEiABEhiTgP4pADj5iuFZOZPHDDCOH9hmLlgM5jCqBub+zThC8SUkQAIkQAIkQAI6geFZlsm2GQsEYsPTF2QiNG0zF/wTEv+m78yF0UgO9CUBEiABEiABnyNgm7HwtG3GQmHcFhxCoOk7E2wzFl4wHv9m7mVIDvQlARIgARIgAZ8jYJvxfN7wzIUCsBF7oPkRBNzwjIVbgfhieMbCC/qDBJIDfUmABEiABEjApwgMz7D4D898XkA2wwJtBzw/c2EsFF/Pf/qCf/SpjqNYEiABEiABEkAI6If5DM+0jAzPtAijZpthgbYDasGW7xmNfZffIoQDfUmABEiABEjA5wicn2k5fNdEauRBYEhMEg8h4IZnWk4hOdhmPl+DxKcvCZAACZAACfgcgXMzXzCfn/mCgCx40Y8RcOdmvPA6FH/mCzf0g4WQHOhLAiRAAiRAAj5FQN8OeH7mIoHYuVmLoO2Aw7Ne+DUSX/cdnvEC9BcKfarTKZYESIAESIAEdALnZy46DU7A0HZA69PLv3Z+5qIrSA7nZi4uYG+SAAmQAAmQAAlMgMD5WS/mnZ+1WAA2Yg/8A7Qd8PysRbuB+HruNv3PDE9ANl9KAiRAAiRAAr5NYDhosf/5WS8KxPQ2EIrnZy02IfF137NBi36O5EBfEiABEiABEvApAvp2wHOzXhw5N+tFYdTOznoR2g5oC1r8d0Zj3/E7O+ulXJ/qOIolARIgARIgAZTAuVkvHT436yUBGLwd8Nysl3qA+HruR1AO9CcBEiABEiABnyJwLuhl87lZvxeInQ/+A7YdMOj3byLxz836/fX+CMu3farjKJYESIAESIAEEALDs16aDE6++sMDtB3w/KwXn0VzODvr5QCEA31JgARIgARIwOcInA16+fTZoJeFYZv1MrQd8Hzoa988G/Tyx4bj67nP+sMan+s4CiYBEiABEiABhMDZoFfyzgb9QQAGbwc8F/SHg0B8PfchhAF9SYAESIAESMDnCJwNesUfnHyF3gYC7tysl+ehOZyb9YfHkRzoSwIkQAIkQAI+RUALXv7w2aBXRs4GvaJP5EYN2g6oLyQEYt/M+VzwKxk+1XEUSwIkQAIkQAIogbNBrx4+G/SqAAzeDng26NVBIL6e+36UA/1JgARIgARIwKcIvB/0ivn9oFcFYkPgdsD3g17NQ+K/H/Tqx7ZAy7d8quMolgRIgARIgAQQAkOzXpv8ftBrArLgV6HtgGeCX58GxQ96TZyZ+dozCAf6kgAJkAAJkIDPEXg/+PXT7we/Loza2eDXoe2AN9ciBL8+YjT+bb/lPtdxFEwCJEACJEACCIH3g17PQybfs8Gvj/SCfx3w/ZDXjyI5vB/8ejfCgL4kQAIkQAIk4HMEhoJe9z8T/EeBmN4GAu5M0JL5SHzd9/SMV3+I5EBfEiABEiABEvApAvpH8GeCl4ycCV4ijNr7QX+EtgOeDl3yC6Ox7/i9H/xGsk91HMWSAAmQAAmQAErgTPCSQ3cmUoNfoe2AwmL50pngJcMGYxt+cGE84w99ZEd2rAH31cBQ8JJLZ4KXtJwJeuOPp0OXPYHOAfT3YQLvB7+ReSb4DYHY0KylkxGEZ4KXFCLx6Yv1H/mRH2vAY2vgk/eDlyyzPr38a8gYTF8fJTAUtnTymZClArGhkKVmBN9Q8NIQJD59sf4jP/JjDXh8DVT2R2z4OjIO09dHCQyFLj09FLJUAAZtBzw76/W/HApZegOIj+ROX6zvyY/8WAMS1MDpkKVLfHQKo2yEwFDIsryhkGUCsBFr8PKHsRyW1gLxkdzpi/U9+ZEfa0COGvhkMHwJ/0AaMhH5ou9Q6HJ/ePINXY5tBwxeuhjOQY6bkIMh+4E1wBpwSw2cCV3+ui/OYdQMENDfvQ+FLB8ZClkuAIO2Aw6GLn0SiI3kTV+s38mP/FgD8tRAEzAV0NVXCZwOWXHodMgKARi2HfApy1dOh6y4AMRHcqcv1vfkR36sAQlqYDDkzcu+OodRN0BgMORNMzr5DgWv+DGQwqShkDe3oDnQH3qI4yAuwSDOGmYNG66B0BUaMgbT10cJDIW9Nfl06JsCMf0hAsE3FPJmDBKfvlj/kR/5sQY8vgbakTGYvj5M4HToytOnQ1cK4/YWtB3wTPDy750OXTlqPD6SO33JnTXAGvD0Gnhrkw9PYZSOEBgMeysPHABGegNXP4LkcDp0ZSuYA/AA4+k3P/Nn7bAGfLoGQlbORcZf+vowgYHQlf6DoW8JxAbCVvkhCE+HvfUaEp++WP+RH/mxBjy3BgbCVv4zMv7S14cJ6NsBB0NXjQyGrhKArUEQDoa99SsgNpI3fbF+Jz/yYw24twZG+yPe+DYy/tLXxwkMhK46DE7A0HbAtsCyrw6GrroC5sCByL0DEfmTP2vA1TUQtqrbx6cvykcJDIa8bR4MfVsgNhS8GtoOOBj6dgUSn75Y/5Ef+bEGPK8GBkJXcwEgOgH6un9fWN7kgbDVArHB0NWZCMeBsNUpSHzddzA87+dIDs72HQx9+/egxqPOztFZ7Q+ErPklqL3TWbnJ3u5A2OozCLu+kLd/IrvGsfIbCF3di2gfCF8j9QK5gbDVPd6sb6x+5XXJCAyGrT4NFWLoGmg74EBo3veh+PoDTOjqXMmwfiadwdDVgaDGy8Ji+dJnGvWQ/zigfy95iFSHpqn390DY6utI3Vgj13/HoUm5qLHBoLceHQhbPYpoHwhbLe0Cud641Y94sz4XlQnDOILAQFhe3kDYGgHYiF7QSC4DYWusQHzRH77mCBLf2b5DEW//HaJP99XbcHaezmhf/7vlqPazcau/4YzcZG6zP2LlYyC3EU99aBwMW/MrUPtof8QGaRfIDYa/PcWb9cl8XzG3ewgMhOb5D4TlCczWQNsBB8LWrMDi512X+YYXk8RDA2FrLiEaB0PXBt7TdR7z34HQvIuQ9qj1P/AYsQ5KdCBs7c8gZmF5px2UisubGQxbY0a094etlXqB3GDo2kxv1ufygmFA4wSswUUPD4TljSAFORC2FtwOuOa3WPw8MRC+JsA4Bed7DoStPYpoHAxd83vnZ+mcCANheR2Idn0dgXMyk7fVgfC1z0DMwtZWyavuwZkNhOeVQdrD10q9QK4/LK/Um/U9uHf5U+kI9IflHe4PWyuM2kDYWmg74PnQgm/2h6392Gh83Q99CHF2pwyE5S1H9PWHrt3r7Byd1X5/6NpDiPaB8HVSP9w5g1tf6LpYhFl/+NodzsjLFW32h67tRbT3ha+VegFgf9jaHm/W54oaYQwHEugPW2vuD18nEOuN2ABtBxwIX3cAiT8Qvm7IgUgc3tRAxNooRF9/+Lphhyflogb7w9dtQrQPhK9LdlGq0oTpD1+/EGHWF7FupTRiJpCIvgCwP3zdKKJ9IGyd1AsAvVnfBLqaL5WFgL4dELnhbvmuh7YD6k/taA6D4Wsel4XpvXnov9NF9fVHbHjs3nY94f/94WuXINoHwtcv9gSdjsyxP3zdKoRZX/ja+Y7Mx1VtDYavnYLovjm5Sr0A0Lv1uapOGMfBBPrD15/uD18vAIO2A/aErn0CiH0z74HwdRkOxuKw5vRTD/vD119DNA6ErXvaYQm5sKH+8PWZkO7w9XkuTFeKUP3h68shZhEboqQQMsEk+sM2mBHd/eHrpV4AiN4LsuubYHfz5bIQ6AvfmNcXvkEABm8H7AvfMAjE13PfLwvP++XRF76hEdIXtiHnfu3Kfq0vfGMYpDt8w27ZNTo6v77wDTUIs4GwfI98WOwL31CG6O4N3yD1AsC+8PWl3qzP0fcB23MRgd6IDf5IYeq+A2H50HZABzyEfNwWuPJbLkI24TD94RvXg4zLJhxUAoe+8I2/AXXXSSDDpSn0hm84AzGLWueRpwD2hW/ohXSHr5d7AWD4hh5v1ufSm4TBHEdA3w7YF75xpC98ozBsYfnQdsC+sPxphmPfzrs3fOMzjqPi2Jb6wzemgvqsjs3INa3pC0QR3b3hG8+4JlM5ougH+PSFb7yOMOsJLfiuHGrGn8VgUPGjfeEbRxHdA2H50i4A1M8q8WZ94+9pvlJKAn0R+Yf7wvMFYNB2wFsPIfkjQHzRF5a/XEq4kyZN6oso/CdIW3j+KHrqojvY6EfSgrqve+qpdkZ464s9QV4eeQpgb/jGKaBuqU8A9HZ9RmqdPhIR6I/IN/dF5AvE0O2AfeH5R5H4fRH50i4CuvmAE5F/A9NX+E8Slcy4UtFPQuyLyB9BdHviO9pxwbnPiwbC8n+GsOqLyPfIUwAdMP5Ie+/r3dwfXpAJ9qvU+u5TyrzkSQT6wvIn90YUCMR6wgug7YA9kQXzkfi6rzV84w9l5d4bXmBF9PWEF6TKqu1BefWGFwwhuvXafFD73vSz3vDCZxBWvREFHnkKYG9EQRmoW+oFgD2R+aXerM+b7kGf1dIbUXC6N6JQGLW+iEJoO2BvVMEvjMa+49cXXiDtwTG9EUVld/I09DW8cL0nFue/T2q1hvTersW+8KLfeKJuIzn3RRTFIqx6Iwo98hTAvojCXkR3X2Sh1AsAeyMKe7xZn5Fap49kBHrCC/OQIu2NKBzpjSsz/NcB9d/19kYUDoM57JIM66fp9EUU5oDaGj9tzIO+6Q0vqEB090QWhXuQXCjV3vCihQir3ohCjzsFUF8A2BtROIro7gkrlnYBoLfrgwqezvIQ6I0o9u+NKBKI9YQVQdsBe8OLCpH4vRFFV62myq/JQ/U/MukJK3oa1HZNVm3/ofLz3/VEFK3BdBebP9+qd17pjShahbDqiSz2uFMAe8OLpiCaeyOKJF8A6N36vPNO9EFV+kK1nojikZ6IYmHcSqDtgNbIkhDjsW/lrQ8oMnZfX0zJX6HarGGbfiajtgfl1BNRvAjRbY0oeeNB7XvTz3oiS8ohVuHF0Z7Gozei2Ixo7okolnqBXE94UaY36/O0emO+DyDQE1l8uCeyWAAGbQfsiiv5y57I4htAfNETUfTqAyS69Uc9kUXnEG29kSWRbhVgILg1oiQJ0dwTVSz1Ai8DSMZ06YksrsFYFXncKYC9UcVlmGa566MnsqjUm/WNWcz8gecRuPk0HlkiegDrjSiC/jpgT2RJLRK/J7KkRVbyPVEleyFtUSXSnnUwFnP9V0uQ5sgSaHHpWHnJeL0nsuQMwqovarPHnQLYE1nSi2juidwk9QLAnsiSHm/WJ+N9xJwMEugLK5ncE7lJYFYCbgfctBiLfzP/vzWIwKluvZGbfg9qO+rUBJ3QuDWq5B8wzSWdTkhLuib1RbA9kZuuQ6w87BRAfYFcT+SmUUhzVKnUCwC9WZ90NxETwgn0RG46Dd2QkZugd2y9USVPgvGFNWqTlL8LtUZsDsS0lVz2tJPxOmPKvo9p3nQRr2r5W+iPKHsM5ORxpwD2hm+aAmqWfAGgd+uT/65ihhMmYI3cnGeN3CwAw7YDBpZ92Rq5WQPiC2vUZin/eE5PdNmPIF2Rm4XexoQ71Y0O/REbvo5qPhtX8Q03SnBJaGv0pp+BnDzuFMDuyNJMULPUCwC9XZ9LbgwGcS2B7ojN/tbIUoFYT1QZtB3QGlm6BYlvjSy9cMhy6CuuJffF0fSjca2RpZcgbRGbA784klyv0PsD0dwdte0HcilyfDbd0WXPIIyskWUedwqgNbK0FNHcHVUq9QJRb9fn+LuALbqdgL4d0BpZOoLcmNaoUnA74OYYKH5kqegJL/1Ht8O8TwLdkaVHQW2/v0+zUl+yRm7uQDT3RG76pdQCHZBcT0RpLMLIGlXqcacAWiM39yKaeyJLpV4AaI0s7fFmfQ4oezYhIwFrVNlha1SZAAzaDmiN2fY9a1TZKBBf9ERtWSQj2+6o0uWILmtUWaWMuh6UkzWy7BCiuTtmi/+D2veGn1kjyxYijKxRpR51CuBgYvGj+D0u8QJAL9fnDfccNYxBwBq9xdwdtUUg1hFRBm0H7I4qa0Xid0eV1Ywhz62XuyO3RGK6tpx3qwADwbujtpQgmruitkr7Nx4M4LivS3fUllUIo+7oLR51CmBX9JYpkN6oLaP9ETu+fV+YElz0dn0SIGYKziLQGbN1Mnhziu7ILdB2wO7ILa+BOdzoCd3+XWcxMtquNXrrz0BdQl8xbjS+O/y6orcsATVL+WmOI1l2R20pRxhZo8qk3PkyFiN9fED0dkdtkXwBoHfrG6tfed1LCHRHbh3sjtoqDFvkVmg7YHfUtl8Zjn07b2vUlmDZuqMtsOyr3VFbryHauqK2eNSJb92R2zIRvdbobXmy9aOj87FGba1FGHlaTXRFbS1F9HZHbZN6AaC363N0/bM9yQjog2531DYBGLQd8NZEue0KEF90RW0rkAzrzXS6o7c2grpyZNQ1Vk5dUdvDEL3dUVsrxmrbW653R207AzGK2PFTT2LRHbWtF9IbvV3qBYDd0dt6vFmfJ9UaczVAoDtmuz9UwFHb9AkY2g6oD/xgDjYZD87pjtq2HtQl5TkHY5VZd8z2XyN6rVHbasdq2xuu6zXaHbXtOsJIxl93jdU3g4m7H+2O2jYK6Y3aJu8JgF6ub6x+5XUvImANrny4K3r7SFf0dgEYtB2wK3pHChD7Zt4dMTt+Llu3dMdsT8V0bbPKpulB+XRE7PwxpDdm+5kHte/pP2uLKHsM4hO93aNOAeyK3jEF1Cv5AkDv1ufp9xvzHyeBzpgdh7uidwjAoO2AnTG7vg/Evpl3d8z23HHKddnLumJ2/hOoa7Q3ruwRlyUMBrJGln0H1Htdxk9yQCyfulsjt/09yMejTgHsjN6Riejtjt4h9QJAb9f3aeHyG+8m0Bm904zcqLqv/u4PodQVvcMK5nAEie8M31ufruy4AemK2flPzsjNGW3qJyB2Re+4hujVHyKckZsMbXZHb3sGYdMVvaNaBh3jzaErZkcppnen3AsAvVzfePuZr/NwAp0x5ZO7oncKxPSnYQRDV/SOFUj8ruid12XcL9wVvdOK6OqO2mFCuLqFD1A4AAAgAElEQVTatyt65xCiF32QdLXeicTriiqPRdh0Re/0qFMAu6LLexG93dE7pV4A2BW9s8eb9U2ktvlaDyfQGV0+2BldLozbLmg7YEfsrt8aj30r746oXQGydUNndHkZpCtq13rZND0on87o8lpEb0dUxW8e1L4n/6wreudChE1n9E6POQWwJXH3o53R5aOQ3qhyaRcAers+T77PmLsBAp3Ru/KgmzW6HNoO2Bz6zjc7o8s/RnLoiC6HFiMawPaFLh1Ru3IQTZ3R5Y1fGESiF3RG79qF6O2K2hkmkRyHptIZU74KYdMZXe4xpwB2RVdMAbVKvgDQu/U5tPDZmPwEOmLK/TujdwnEuqIqoO2AHTEVB5D4ndHlQ7KR7ora9TSmadc1/awE2XSNlY/+EIbpLYd+lTRWXjJc74yuKIfYRO3ymFMAO6PLMyGt0bskXwDo3fpkuF+YgwsJ6AvWOmMqRjpjKoRR64iugN6Bd0Tvmms09h2/tthdj7sQ2xeGao0p/6s7uRn92h27x2MOf+mMqVhkVKfu1xG7e8kXQvXQF3TG7KpF2HTF7vKYkyE7Y3aXIlo7oiukXgDo7fo89BZj2giBzpiKw8hN2xlTAW0HbI/e/QQYX3TE7M5AGDjDtzOm4hyoK9IZeTmjza7YXUmIVtkHfoRZZ0zFGYSNhz0I9iBa9TcDCGtn+3bGVHi1PmfzY/sSEmiP3W3uiNmtT6LGLW4PtB2wI2b3IBQ/Zvd+2dC2R1dUgpqWy6ZprHzaYyv8QK3QYtKx8nL3df18g46Y3dcRNj0J70j3R6/ux1VfINcRs3sU0doRU/HU/dqW4Zoj9HVG7ZZ2gaMMjJmDGwh0xuyd3BGzRyDWHl0J/Q63M2ZPHhK/I2bPx21Jh77lBnxjhuyI3fN7RFNnzB7pzjgYS2xHVMU/IFo7YvZ0jNW2J19vi9jzGMjFY04BbIveOwXUOtoo8Z8A9nZ9nnyfMXeQQEfMnkHs5q2E3sF1xlROw+LvEe3Ru58BMTjUvTN6dyCkKXbPJU85IU8/1RHSGrPnokPhS9JYe9yuv0e4dMbs8ZhTAPU3AYjWjug9Ui8A9HZ9ktwyTMMdBDpj9uZ1xFQKwEZ64w4YPr5WX4zYEVM5AsTXc5fqI/O26H0/AvUIvQ131MNEY/ZHHPo6qrUuruIbE40r++vbo/c9g3Bpj9njMacAtsfsLUW0dkRXSr0A0Nv1yX4vMT8nEuiI2evfHlMpIIvdC20HbI+uPArFj66U6h2EfkRue2zlJURTW/TeQCd2u0Obbo+pvIBo7Yx55/sOTUiCxjpiK2MRJu2xlR5zCmB7TGUPorUtulLqBYDerk+C24UpuIuA1VT5cHvs3pH22L3CuO2DtgO2x+6dbzz2rbxb4yp/6C6G94vbHrv3KKKpI67ypfu1K+O1tti9HZDW+L3/IKMuJKeO2MqFCJP2mH1vIfFd5asvkGuP3TuKaO2I2Sv1AkBUX2fcPi4AdFVBMs7ECbTHvnO4PXafMGodsfug7YCd8ft/YTT2p34x+5Inrtx5Hh2xe5d/mpsxtpXOy86xLbfF7vsTolX/FMqxGbm/tfbYfasQJu1x+xa4X8UXZ9AWv3cKpDN232hjxKFvf3Ek97zC2/W5hyqjSkWgPXafGbyJRQewHfDmlqnYfcNoDvQ3/hBHdmTHGnBKDUj160mpJh4mIwcBfTtge+w7ArK4/dB2wPa4dwqh+Gj+9Mf6n/zIjzVwvxqQeoGjHDMQs3A7gbbY/YNtsfuFUWuP3Q9tB2yL2R9iNDb9jPcb2ZEda8CZNXBA6gWObp94mIAcBE7F7M8DBwJoO2BX3KG/bIvdfwPMwfADDOM6cxBk26wv36yBU1wAKMcExyweTKA1/oB/W9wBgVh77H5sO2DcgVokPn2x/iM/8mMNOLQGpF7g+OAZgT/1KQL6dsC2uIMjbXEHhVFrj38X2g54KvbdxUZj0894v5Ed2bEGnFIDXADoU7Ooh4tti3v38Km4gwIwaDtgW9yBJ4HYSN70xfqd/MiPNfD5GuACQA+fE30q/VPx75pPxb0rEGuJO2D4rwOWBZZ9+VTcuxoSn75Y/5Ef+bEGHFMDrbHvcgGgT82gHi62Nebg5FNxfxKgQdsBT8W+uwWMj+ZPf7wGyJAMWQNxB3kCoIfPiT6X/qm4Pw1CE3Dsn6DtgKfiDsVA8TnwcuBlDbAG3F8DXADoc7OnFwg+FXco71TcIQHYSB3w1wGbYw5971TcoVEgPpI7fbG+Jz/yYw3cqgEuAPSC+dDnJLTGv+ffGn9YQJZwGNoO2Bp/uBWKj+ZPf6z/yY/8fL0G4g5zAaDPzZ5eINhqqnq4Nf7wCDIBt8QfhrYDtsa/9xoSn77gA5yvD97UzwcYuAYOcQGgF8yHPimhNeG9w63x7wnAoO2ALbGHfgXERvKmL9bv5Ed+rIH498SpuMNcAOiTs6cXiG6JP2pujT8iEGuJe8/wdsC2wLavtsYfuYLEpy/Wf+RHfqwBwzXABYBeMA/6rITWxCOTW+KPCMgSjkDbAZvjj1RA8dH86Y/1P/mRn4/WQGv8ES4A9NnZ00uEt8QfHWyJPyoAg7YDtiQcSwFi38o78ejPZeiOlrijgaCWS8IiviSDlrFyaI557/ugxotjte1J11vjjjwDcqiSXW9L/NFSRGNr3FGpF8h5uz7Z64v5SUCgNeFYXkvCMQHYSF1c3SNGpdycULD4ojnheK7R+I70a0s68SOA480+0NtwZE6Obqs/4tDXUY11cXXfcHRerm6vOfFYDMQh/vgOV+c80XgtCcd6EI2t8cekXiDn7fom2t98vQ8SaI0/5o/c5Lpva8JRaDtgS8IxK5jDERm6TkwSD7UkHLsEaUk8GiiDlgfl0BJ/7AKo8QcPat8TftYSf2whwqA14fhKmXW2JB59tCXh2Cii8VTSMWkXyHm7Pplri7lJREDfDtiScHykJeG4AAzaDtiScGIFEFvP+3rj7EPflgFra+Lxo4iW1oTjL8mg40E5tCQc74A0Jp345YPa94SfNSeeWIUwaEk8Pl9mnc3xJ6ZA+hKOj8pyT96Ps7fru59mXiOB+xJoTjhxuDnhhAAM2g7YlHDit0Ds23kfD7ivOBdfbEk8vhzUUunilCccrjn+5J8wjXL01YSF3+XQnHBiJ8Qg/kT0Xc1J921LwslMSF/CCakXyHm7PukKignJS6Al8bgZvNlFS9wJw9sBm0Obv9mccOJjLIeT0KcQjuqdlsTjkZiOE+cdlYuz2mlOOFGCaGxJPJHsrNxc1W5LwokajMHJp12Vq5E4LQknShF9zQkn5V4A6OX6jPQ5fXyUQGti1eTmhJMCMf2JGsHXnHDyABK/OeHkEBLfUb6NScd/CuoQbUk1jzkqH2e005RwcgmisSn+5GJn5OXKNpsTTp5BGJyKr/6JK/OdaKzmhJM9iL7m+CqpFwB6u76J9jdf7+MEmhNODjYnVAmj1pJQBW0H1AcMo7Hv+DUl1zzu7m7UDzdqTqi6dicnQ1/jT/yru3U8KH5LQnWmIV2f1ld13oPal/1n+lbN5oSq6xiD49+VVae+QK45oWoU0deUVCX1AkBv1idrXTEviQk0JlbnNSVWCcCw7YAJtU8AsW/lnVCVIQPipsSqRkRLc2JVtgw6xsqhOak6DNHXlHiyYqy2PeF6a0zVX2H6q0ZkPu+hOblmCqhvtHF2oxSLcu9XT96u736aeY0EHkigKanGvymxWkCWUA1tB2xOrB6E4ifV7H+gSBf9sCmxZj2iozmxusxFqRoK0xhf9WtEX2NidZ2hwJI4NSXU/gzR35RYfVoSKfdNozGpOhPUJ/UCQG/Xd99O5UUSeBCBKlPVw02JNSNNiTXCqDUn1EAL8RoTa/KMxr7t93FbUtu3HqTTFT9rSqw2gTqkHkBbUup+DOo744p+cFaMxsTqZzD91VKfAtiUVFOK6auRegGgt+tzVt2zXS8n0JxYcxi68RNqoO2AzUm106D4iTVCH5zd3U1NSXVPgjpG9Qcyd+sYK35dXN1fgvquy/wR+Fi671xvTqyOwfTXSn0KYGNiTQ+irzmpRuoFgN6u706d8isJTIhAU2KduTGxViCmvzucUNC7XqxPeo2JtSNI/KbE2uV3NemWbzujjv15Y2LtDUhHUt2Tbkl+HEH1Ew8bE2uvIfqaE5qlXQT3RQgaEmsWItobE+qkPQWwJbHl0cbE2lFEX1NSncQLAL1b3xfVLn9OAmMSqE+sn9yYWCcgS6qFtgM2JtYdheIn1knx8XljYp0V0dGQWGcas6Mk+EFjQt0Qok+vNQlkGEqhKbFuFaK9KbFO2lMAG5IbpiDaGhPrpF4A6O36DBU0nUjgDoHGxLpBcACAtgPqgyMYX9TF1f3wjh53fW1MrCvDdNSud1fu44nbmFRbi+hrSqr7zXjiyPiaxoS6nYj2hqRaaU8BbEyqzUS0NUryAD5W3Xi7vrF08zoJjItAY2JDXmNSvQAM2g7YkNLwCyD2rbwT691+0lxjYl02qKNhXB3mphc1JNXvgvQl1oW7KXU4bGNSfQ2ivSGxQdpTABuT6ksRbU2J9VIvAPR2fXBxswHfJtCUVO/fmNQgEGtKrje8HVBfHNaY1DCMxG9Iatjl7l7UB3lEQ2NywzX9UCF36xgrfmNS/RpEX1Nig3mstmW/3pjUcAbR3mBqkPYUwMbEhh5EW2NSo+QLAL1bn+z3DvOTnIC+EK8hqWGkIalBGLX6pHpsO2BSY6HR2Lf9rlpN1q+5E3VrWutfgRpEY1LjT92p4UGxG5IaFiH6GhMb33hQ+7L+TH9AbUhquI5ol3UBpL4AsCGpYRTR1pjS+JSsfecIfU1JTdIucJSVO/PyMAINSY2HG5IaBWDQdsD6xKYQIPatvJMbprgbe0NS0zlER31iU6S7NYwVvzGpMQnR1pDYJPVHxWPpvvVgB90b0p4CqC+Qg/o0qVH6BYDerG+smuV1EpgQgYbEJnNDUpNArC6lxfB2QH2feUNS0w0kfn1i86sTEu2EFzckNVYiGhqSmpY5IS2HNFmf3OSHaWs+7JBEXNxIU0LTzzDdTdKeAlif1JgJapNiB85YJeHt+sbSzeskMCEC9Ymtk8GBQOg324SC3vPihqTmWjCHlnuadPl/6xMbXwI1HHF50uMM2JDc8A+Itvqkps5xhpLqZY2Jjc8guhuTmqQ9BbAxqakU0Sb7pzrerk+qG4XJeDaB+uTmwfrkZmHUGpJboO2AdclNi43GvuNXk9T6t+7shbqUlsA7uRj72nJJ1hPzmlOav29M06c1ddGdfWM0dl1ycwykO6lJ2lMA65ObexBtdSnNUi8A9HZ9RmuafiTwOQINya159cktAjBoO2BdUtOTQOybeTektLp1v3V9UtuPUA16G5/rHAkuHIro/zqqrS6u7hsSSJlQCnXJLQsh3SmtUp4CqC+Qq09uGUW01aa0Sr0AENVXl3SKCwAndLfwxR5LoD6p1R8ZDG75threDlgWWPblhuQWDcmhIbnFrX9VTz8ytz655SKiQf8UQdYiqk9uuYBoq01s+YGs2sbKqy6peRWiuSG5RcpTABuSm6cguvTJVeY/Aezt+saqV14nAUMEqkzWh+uTW0fqk1uFYUtpgbYD1iW3bDEc+1beFw5ZDn3FEAAHOdUnnToCanjJQak4vJn65NYORFtjUusvHZ6UkxusSz61E9Hs7k+lxsJTn3IqE9FVn9Qq9wJAL9c3Vr/yOgkYJlCf0na4PvmUMGp1yaeg7YB1yadijMa+41ebcuofDQNwgGNDctuyO7kY+pp0qtIBaTiliYbkU4cMabpTU0mt/k5JzImN1iefqkE0N6S0SXkKYH1yWymiqz75lNTbOr1dnxNLnk37KoG65FPmuuRTAjJgO2CVqfl7dcmnRrH4pxa5s//qU9oiofyTT513Z/4Pil2XcqoE0VaffMrtRzY/SN/9fvbvD6VnEM0NplNSngJYl3yqB9FVl9Iq9QJAb9d3v1rlNRKACOjbAeuS2wRitSnt0HbAupS2ViR+fXJbDQQBdK5Javspkr/uW5PU9hiYhlPc61Pal2DaTi12SmJOalTfkVGX3HYd0SzjKYD6AsC65LZRRJfsCwBRfVwA6KSbis3KTaAupX2wLqVdAIZtB0zpeA2Ired9w52Dbpul7at1Ke0fIxpqJf3YWH+4Q3TVmdrz5K7+z2anP4hBelPapTwFsCG5bQqoS/IFgN6t77NVyv+RgAMJ6IM0ODiM1MX1PmI0pVpT+6/A+KLe1BZsNL4j/OpS2hsgDckd2Y7Iw9Ft1JrawyBdKe0Vjs7Jme3Vmtp+BuqV8hRA+EEupV3qBYDers+ZNc+2fZxAjanDvzalQyBWndxueDug/g66NqXjChK/1tRZ4M5urE1uXwfln9Lh1u2MY7GrTW7/NaKrJrmjbqy2ZbxeZ2p/BtFbm9Ih5SmAdab2UlCX1AsAvV2fjPcKc/ISAvp2wNqUzpHalE5h1OpSOqDtgDUpXRVGY9/2s7nzRL26lA4Tln+XVcZyqkvp+DGiqy6l84yMusbKqS65KwbRW5vSKeUpgLUpnT2IrpqUDqkXAHq7vrHqlddJwCEEalM6DyMDRG1KJ7QdsNbUkQLGF/WpHT93CAwDjdQldT0J5j+qP4gZCO1UlwaT9TugruvufDCbKJya5K6FiN66lE7pTgHUFwDWpnSOIrpqUzqkPgEQ1VeX2skTACd6s/D13kOgLrnTXJvSJRDT3y0aJVKd0vl9JPYt3+5co/FRv7aktm/VpnTdQDToDxFoHo721086rE3pGkF06Q8Rjs7LWe3VpnSuQrTWmbqlOwWwJrlrCqKpNqVrtHF2/7edxRxt19v1oXzoTwJfSKA+rXNyralbQJbSDW0HrDV1W5H4NaZut/5lvTpTdzeSf11qt+kLO8oNL6g1dQ8huvTackPahkLWmrrLEa21JmuUocBOdKpN6c5ENOl17cT04Ka9XR8MiA2QwHgI1Ji6B2tM3QIwaDtgtcm6Aoit533dne9UakxdpVD+qd3rx9NPrn5Njclai+iqMll/4+qcjcarMXXXIFprU7qkOwUQrsuUbqkXAHq7PqO1TD8SmBCBGpM1r8ZkFYBB2wGrk7t/C8S+mXdtSnfAhEQ78MU1qdZsKP8Ua6MD03FYUzUm6y5EV3VqT7jDknFyQzUp1jOQVlOXdKcA1pisPYimmtQeqRcAers+J5c8myeBWwRqTN3+0EBhsorq1B7D2wGb5zZ/s8Zk/RjMAdqNgNRCTWrPv4K5X9O3RCI5OMO3xmRdg+iqNlnNzsjL0W3qixVrTNbriNbjCT3fdXReSHtHEwcfrTFZRxFNtSlWaRcAOkJfVWoPFwAiRUZf7yCgr0KvMfWM1Jh6BGDQBFxj6jkAxNbzHnJXb+iDP5i7qJnd/VN35T9W3JrUnkWYLusbY7Ut0/WapP7HMJ090p0CWJPaOwXUJPcCQC/XJ9P9wVx8gEC1qedwtalXAAZtB6xK7ZsLxL6Zd02y9XF3dVW1qfcskn9VSm+ku3IfK25NSm8SoqkmpVfq3yHf0V1rsv4M0Vlt6pXuFMDqlJ5MUJPUCwC9Xd+d2uRXEnAJgWpTrxkcMMSJlF7D2wFrU3ueQOPXmPoyXALrPkGqU3r3QPmn9C2/T7NuvVRj6vVHNNWY+qDFoa4SX23qfQbRWZ3SK90pgNWmnlJIk6m3xFX8jcRB9XnKw6kRNvQhgQkTqErrm1yd2icw64e2A1an9g0i8WtS+/ZPWLiDHKpNfS8huVen9rl1K+P9MFTPHvgHUFPn/dqV7Vp1al8MpNPUK90pgNWpfb2Ippo09z1Mj6c+UH36J47jicPXkIDPEKhO7R+sTu0XRq3G1A+946tOHcgzGvu238eHktq+5Y4OqzL1TQNzvyTbyXnVKQPfBzVddEdfTDRmlal/IaKzKrVPqlMA9QVy1an9o4imk7P7pV4AiOqrSh3gAsCJ3ih8vXcTcMAEDG0HdMAkKqpNA8+4o5fqTKd/iAy4uu+JOT0/ckfuY8U8FNH/dVRTXdzZb4zVvizXq1P7VyE6a0x9Up0CWJM6OAXRo0+u7jxX44vqwtv1fZF+/pwEnELgpGnAvyp1QCBWnTpgeDugvhuhKnVgBIzvlt+l60fnVqUOXIRyTxsMdErHAo1WpQ5cQDTVzhn8ARDeJa5Vpv5yRGOVaUCqUwCrUwczIT2p/XIvAPRyfS4pegYhgXsJ3JqAB0eqUgeFYTMNQtsBq1IHjxqOfStvtw1eVamD7yG5nzQNvHRvn7j7/1Wpgx2IphOpA790t4Yvin8ydbAG0XgyZUCqUwCrUwdLET1VaQNyLwBE9aUOeMTulC+qW/6cBBxOoDp14DA0eKQOQtsBT5oG5oPxxXHT6R86HMw4GqxKG1wG5Z52unIcYVz6kirT6UOIJv1TJZcmbCBYVergGURjtalPqlMAq1IHexE9VWkDbttNM57ug/WlDnAB4HhA8zW+R+CkadBclXpaIHYiZcjwdsDqlNO/QGLf9k12R8+dNJ2OAHM/7468HxSzKu10CajJLX3xIE13/0xfeFmVevo6olGmUwD1BYBVqadHET0nZw9JvQAQ1VeVeoYLAO++Cfg9CdwhUJU2NPlk2pCALHXI8HZAfUA+mTY0DMVH86c/1v/kR37y1sDoIYn/xPGdcZhfScBtBE6mDQ2CEzC0HfBk2lAhGJ8DsLwDMPuGfePOGnDbGiG3DegMTAITIXAy9f28k2lnBGAjdebeRyYS8+7XVqUNhQCxkbzpi/U7+ZGf7DXABYB3D7b8ngTuJXBy9ln/k2nvC8ROpJ41vB2wLuPsX55Me/8GEp++WP+RH/l5Yw1Upb7PBYD3Dvj8PwncTaDKpD18Mu3sCDgAQNsBT6S9XwvGhx5gGJsTIGvA+2qACwDvHun5PQmMQeDE7LOHT6SdFYBh2wHTzi4GYiN50xfrd/IjP1lrgAsAxxjveZkEPkPgeNo584nZ5wRkc84b3g5YlXr2SSg2mjv9sb4nP/KTrgbOcgHgZ0Z5/ocExiBQlTY8GZ2AT84+Z3g7YFmg+PKJ2ec0NAf6gw9x0g3i1MOaNlYDJ9POcQHgGOM9L5PA5wicmH1+8MTs8wIwaDvgidnDW4DYSN70xfqd/MhPwhoY5gLAz43yvEACYxA4PtuWd3z2sABspM5sN7wd8Njs8zFAbCRv+mL9Tn7kJ10NHEs/xxMAxxjreZkEPkfg2Oxhf3QCPjFn2PB2wCqT9r3js4dH0RzoDz3ESTeQsz/ZnwZqYPTQ7Avf/twgxwskQAL3J6BvBzw+2zZyfLZNGLY5w9B2wOOzba2GYyN509d4n5Md2clXA1wAeP9hnldJYGwCx2crh4/PVgRg0HbAY7OV14DYSN70xfqd/MhPnhpIU7gAcOxhnj8hgfsTOJ6umo/PUQRkqfYn7t/6F189OUf9FRQbzZ3+WN+TH/lJUAMnZitcAPjFwy1fQQKfJXAkzT752BxVIHZ8tmp4O2CbRXz12Bz1ChKfvlj/kR/5eXwNpCtcAPjZoZ3/I4HxETg2Rxs8NkcTxs0ObQc8PketMB4byZu+5M4a8IIa4ALA8Q31fBUJfJ7AsXQtDxwEsO2Ac9QUML44mqH8/PPKnHfl+LyLP0RzPjHH9iPnZTj+lk/MGfpPqJa6uLPfGH9E17zy2Gx7Oagr2jWZPjjK8dn2TETH8Tma1AvkvF3fg3uXPyUBNxM4lqH6H03XBGRzVMPbAd+be/H7UOybuau5rsQoJomHjqZrF8G8A12Z84NiHU3XLiFa9D58UPvu+NnRdK0W0XQsw/60O/K+N+bRDK0U0XE0Q5N6gZy367u3P/l/EpCKgL4d8Ei6NnIkXROAQdsBj6TbrUBs/eHliKuhHknX3kNyPjLH/pKrcx4r3pEMrRPR8l669sux2nbX9ffStTOIpuOzL/zUXbnfHfdIutqD6HgvXZN6gZy367u7L/k9CUhJ4L109fB76ZowbHM0aDvge+n2FYZj38r7uqsPAnkvXVsG5TxHq5SlGOD+z1D9ZdGi5yEs4kvvpWvXkf45Pvf8d92t6WjWxUffS9dGER2HJV4g5+363F0/jE8C4yLw3ly7+XCGJhA7NNf4dsBD6fbfIrF13z+lawHjEuugFx1KVyPAnM87KBW4mcMZ2iZEy3vpajKchAMbODTP9hii53CGNqI/RDgwJUNN/SldnQLqkHqBnLfrM9TpdCIBVxM4Mtc+GRxoxOEMu+HtgO/MPf/Nwxnqx1AO6Rr0a4iJMv9T+oWfQPlmaEKfqCYa1xmvfy9dewPSMldb5Iy8jLZ5ZJ7y95CeDO200diO9NPvKVCH1AsAvV2fI2uBbZGAUwkcTtcGD+mTkmHDtgMeytAOGI99M+8hpwK6p/G6OPFnhzLUj5GcD0uy0OzQXLsZ0XEoQ8u7B49b//unufZnQD1VbhVwO/jhDK0U1CH1AkBv1ydDDTEHEhgXgXfnaXl/mqsJwEYOAH8d8N152lwg9q28zdrj4xLroBe9O1dtwHJWsx2UCtTMoQw1HNHxboZaASXgYOd352qxkJ559h0OTslQc3+aq/ZgOuReAOjt+gx1Op1IwB0E/pSh+r87VxOYGd8OqK8hwGJr4mCGluFKdgcztHVgzmWuzHesWO/O034D6qgbq213XD+YoS1E9Bycq650R953x9QXtb47VxuFdGTKe0KevgDQm/Xd3Zf8ngSkJ1Bp0h4+OFcbOThXE0bt3bnY7+EPztUGjca+6TdP2+9K0O/OVVOQfA/MtVtdme9YsQ7OtU9GdBycq50Zq213XD8wT12F6DmQoc53R953x9yfrk5BNBycq0m9ANDb9d3dl/yeBDyCwLvz1MMH52kCMGg74MF5Wh4QWxycp358yGL7lqtgHzDbn8Ty1Ub1By9X5TtWnHfmnv8uqOO6RYJV83f0HZhnL0f0HJinRd1pyzd8xXwAACAASURBVF1fD86zZyIaDs6T+wRAb9fnrrphXBIwTGB/pt18YJ4mEHsH2A54MFObhsS+6TvX/oxhABN01B82DszTbkA5m+1PTjCsw1+uT94H5mkjiI7K7CvfcXhiBhs8ME+rRbS8K8HizAOZWimiYX+m3CcAers+g6VLNxJwHwH9o+D9mZqAzGx8O6D+bnh/pjaCxH/HbF/uSoL7M7VuJN8D81STK/MdK9Z+s3YG0aHXzlhtu/o6qmWf+cJPXJ3zvfHeyVR7kP44YJZ7AaC367u3P/l/EvAIAu9kaoPvZGrCqO2fh20H3JepHTUa+7afS/c+78/USpF892dq62UojHfmaXWQjnnab2TQoX+a8U6mdh3R4u5PM/TdNO9kaqOIhn0SLwDcnXXxUW/WJ8N9wBxIwBCBfZla3r5MTQAGbQfcO0+dD8S+mXflvIs/NCTegNPeTDUby1dtMBDW4S77MtUKRMc7mWq4w5My0OCeebbHEB37MrURd69neCdL/RdQg9QLAPdmqlO8WZ+BsqULCchBYG+m6r/PrAnE9mYZ3w64P1P5BRL7lq/rjqbdl6X9K5jvtTKL+Kq7e//mgx/S71l2s7s16PH3zVP+HuyPQXfr2Ge2Z2Ia5NhdMhZHXJ/cCxzH0s3rJCA9gUqL9vBeszay16wJo7bPbHw7oP7ua69ZGzYaW/erzHLdwTT6O04kV913zzz3/+W5vWZtMaJjn1l7Q4bi3ptt/zdEx16zVu1uHfsytc2ghlJ3aijPVP78gNn+X/W1FHuzlKf0NwSVWVrUviwtY1+W/cW9Zq0F0afzcac+xiYBryZQmaUertQnUuMGbQfcY1YLgdh63lcrTeJrruqkSrN2Fsl3T6YW6apcx4qzx6wmIxoqzXKsOq80a7Ggju1jMXLV9Uqz2oNo2Jtln4fmWjZn6D/tz1T+ep9Ze3yv2f5kpdn+bKVZDdtj1tL2ZGmWPVnasr1Z9gL9YbsyUztWadbabt8H15Dcx+kr9Z84RtnTnwTcSmB3lt28J0sTiO3OMf7XAXeb7SFIbN13b446xVUQd2dpe5B8K7Ndu3Phflx2Z6v+iIY9Werh+7Xr6mu7zdpCSEe2/U1X53x3PH0B4J4sbRTRUJml/ovepj6Jl3/BJL4ny16wJ0ut2JOlHduTpbXtydLO7snSriHxne27O0feEw7v7kt+TwIeSWCP2f5j9CauzAa2A2Zf+c6eLO0GkkOlWXvNVfB3Z9tfQnLdk6UdcVWuY8XZbdZ+CWroHKttV17fk6WugnSY3XsKoD65QfnrD+5m7cKeLO063A74JsBJ8Ud3WC5825U1xVgk4FMExCTx0O4sbWh3liaMG7YdcHe2Vms89s28W13VaRXZ2jQw10s6c1fle784u7Mu/gDUcPF+7br62u4s+05Qh8NPAdR/J77LbP+vFeYLP6nIUp6qyFL9dmdpUbuztIzdWfYXd2epK3dnaSW7s7S9u7PsVjB/4J5F7ndX+cq9wNHV9c54JOAUAhU5Wl5FtiYAg7YDVmRri4HYN/Pemav9rVPg3NNo5fyLP0RzLc+y/eieZl36X/3jYlRDheXsN1ya9H2C7crWahEde7K0f71Ps59+nL7LrD2+y2x/siLX/mxFjhpWkaOlVeRolopsbVlFtr2gIlut2J2tHdudrbVVZGtnK7K1a0g+9P3cGCT1nzi+X+3wGgl4HIHybNV/V7YmENPbMCq8PNv+j0js277RRuNPxE9/974rW7uE5FuepQVOJKYzXrsrW7uIaNA/RXBGXhNpszxbG0I07MrW3t2Vre3dla1VlWdrXbuyVduubO062CZ0HzH2f4xDFTn4AseJ1BNfSwI+SUDfDlierY2UZ2sCsDVG4R2yiK+UZ2sXgNh63luMxp+oX3m2dgTJdWe2/aWJxnT068uztE5IQ672S0fndG97el3uyb3w33bkXPhpeY7yz7cfVKN3ZWtzdYbl2Vpzebb2CaKDvtA9j4wXX+i76/YCx3vrgv8nARJwMIHyHPVweY4mAIO2A5bnaFuA2HreF/QHCQdjuW9zu7K1ZWCulfdt2IUXd2XbDyEaduVqAeNJ987q9F0LtMd35dqf3Jlrf3Znjhr27/2VVp6jWXSWO3PtBeW5akV5jnasPEdrK8/RzpbnaNeQ/OgL3cvIOOAoXy4AHM8NxteQgCMI7Mi2Z+7M0QRkC+w/NprLjmwtGoqtP7xk2//RaPyJ+O3IUSPAXM9OJJ4zXrszR9uEaCjPUQt36u/Ec+0vleeob91ub9/OHK16R47WvTNHU3bmaJ8gMegL3o/o/exefyl2mjjj3mObJCAdgZ0L7D/ekasJzIxvB9xm0b6Hxb6Z+2JXgNU/kkZzLbPYHnNFrndi3Fmdvn3BhZ/smK88tSNXrUA10B+9X+g/Vg3tzNWW3aldfiUBEnABgR3ztcHtuZowbth2wO25Wqvx2JrYnqPVuADTJP08/+256sdIrjty7E9PNNebH6dblL/eukB7fPvtj9O356hhO+Zradvma5btudqyHbn2gu25asX2+dqx7bla2/Zc7ez2XO0akit9kXuCvgbqZ3Q7cLjYRO8rvp4ESGDSpEnbcpW8bbmqAGykyKI9bBTm1lztNSC2nveN7Zbz3zUafyJ+23LVBiTX7Tnq0i3zlae25ap+W3O0qG05Ssb2+eqL23LVldtztZJtucrebTlq1bZctWtbrmrblqteR+LRF6pr5J6g78THlBUTuRf5WhIgAQcQ2D5f9d82XxWI6W0YTWXLQnUKElv33Z6rBBuNP14//eP07fOVUjRX+mO1Rn7ex297rnpwg6X/6+O9F/k6EiABBxHQ371vna+ObJ2vCuNm/K8DVpqsX9s6X71qPPbNvAvHg0OfxMuet//X7QuGf/LpO/EFWtS2+UrG1tvvxLfO10q2zFf2bp2vVm1doHZtna/ats5Xr4P5AWyRfqEv+03qGrixNVddwcl/PKMXX0MCTiKwZb56aMt8VQA2hKS2Zb5aAcTW87ZtuT2Jb8lVV265PYlvuT2J3/q5eh2MgfChL1Zf5Oc9/K5tma+e2rJAXaava0HGDfqSAAk4gEDpfNVctkAViG22GP/rgGUL1BQkNn2xviM/8jNQAx+VLVDPli1Q28oWKMfKFqgVZfPVAn1iL12oWMrma2lbFqhhpQuVZ8ty7U/qk/0mi/LXFov4kgOGLDZBAiTgKAIlFvvk0gWqAC3TaD5l8y9+H4yN5k5/vP/J0PMYflS6QD1bukBtK709iW+erxaU3jWJb75rEi/hJG50iKMfCchNoHSBOohMwmUL1EOIwtIFqhWJT1/4AY4TuOdN4HqfcRJHBh76kgAJTJq0+Xklb/NCVQA2Uma2P2KU5ebn1RVAbCRv+mL9Tn44v49KF6pnNy9U2zYvVI5tXqBWbF6oFpQ+ry7btFCxbF6opX36Tvx5+5N8J250lKEfCZDAfQlstqj+mxaqAjS/+zY+joubLcpvwdho7vTH+9+XGX60aaF6tmSh2rZpoXJs0wK1YtNCtWDTPZN4yULl2RJO4uMYEfgSEiABlxHQtwOWWNSRkudVYdgsxrcDFsw9/80Si/qx4dhI3vQ13ufew+56iUW1lTyvdpVY1KqS55W9JRatpOR5dWWJRX2xZKGSscmiRW1aqPptsihPbV4w/BN9S+m6TOXPXXaTMhAJkAAJOItAyfPqoeLnVQFYG5Jb8fPqASA2kjd9sX6Xhd/1YotqK35e7SqyqFVFzyt7iyxaSdHz6soii/pi0UIlo8iiRRUtVP0KLcpThQuGf5LPSRy5ZelLAiTgLQSKF6pmaAK2qB8iLIotylwovndMYrJMpu7M46Nii3q2+Hm1rdiiHCt+Xq0otqgFxc+ry4otiqV4oZZWbFHD+HE6crfRlwRIgATuIqBvByyyqAKxu5qb8LcFFvsTSGz6Yn3nYH4fFVnUs0UWta3IohwrsqgVRRa1oMiiLiu0KJbCF7S0Qn0Sf+H278QXcZ/4hG8YOpAACZCAowgIIR4qtKgCMTQXJDZ9sb67h9/1QotqK7SoXYUWtarQouwttGglhRZ1ZYH+cfoLtz9Of+H2x+mLbn+c/gp/J47eA/QnARIgAbcQKLCoAjE0aSQ2fe/bdx8VWNSzBRa1rdCiHCuwqBUFFrWgwKIuy7/rnXjBC8qz+c/bn9zId+JoCdOfBEiABDyTQP4LqkAMVY3E9mLfj/JfUM9ufEFty39BOZa/SK3If+H2JP6CYsl/QUvbuEgNu3sSX8djV9FSpD8JkAAJ+BYBdBJFaaHxJfbnJI4WB/1JgARIgAScR2DjC6pADM0Mie0C34823n4nvvEF5djG2+/EN1rUZRvueie+4a6P0/lOHK0I+pMACZAACbiEwIZFqkAMTRKJPU7fjzYsUs9uWKS2bVh0axLfsFgtWL/o1iS+YfGtj9P1SXzdi7d+J85JHO1V+pMACZAACUhPYP0iVSCGCkRi677rFisZGxZpUeteUP02LFaeWsfV6WiX0J8ESIAESMAXCKxbrE+ixg1lhMTWfdH49CcBEiABEiABnyTg7gnY3fF9stMpmgRIgARIgATWLlYFYihBJLbui8anPwmQAAmQAAn4JIG8F1WBGAoNia37ovHpTwIkQAIkQAI+SWDNi6pADIWGxNZ90fj0JwESIAESIAGfJLD6RVUghkJDYuu+aHz6kwAJkAAJkIBPElj9kioQQ6EhsXVfND79SYAESIAESMAnCbz9kioQQ6EhsXVfND79SYAESIAESMAnCax6SRWIodCQ2LovGp/+JEACJEACJOCTBN76vSoQQ6EhsXVfND79SYAESIAESMAnCbh7AnZ3fJ/sdIomARIgARIggZUvqwIxlCASW/dF49OfBEiABEiABHySwJsvqwIxFBoSW/dF49OfBEiABEiABHySwIqXVYEYCg2Jrfui8elPAiRAAiRAAj5JYPkfVIEYCg2Jrfui8elPAiRAAiRAAj5JwN0TsLvj+2SnUzQJkAAJkAAJLPuDKhBDCSKxdV80Pv1JgARIgARIwCcJLH1FFYih0JDYui8an/4kQAIkQAIk4JME3nhFFYih0JDYui8an/4kQAIkQAIk4JMElryiCsRQaEhs3ReNT38SIAESIAES8EkCS15VBWIoNCS27ovGpz8JkAAJkAAJ+CSBP76qCsRQaEhs3ReNT38SIAESIAES8EkCr7+qCsRQaEhs3ReNT38SIAESIAES8EkCr72mCsRQaEhs3ReNT38SIAESIAES8EkCr76mCsRQaEhs3ReNT38SIAESIAES8EkCr76uCsRQaEhs3ReNT38SIAESIAES8EkCr7yuCsRQaEhs3ReNT38SIAESIAES8EkCf3hdFYih0JDYui8an/4kQAIkQAIk4JMEXv6jKhBDoSGxdV80Pv1JgARIgARIwCcJ/P6PqkAMhYbE1n3R+PQnARIgARIgAZ8k4O4J2N3xfbLTKZoESIAESIAEXlqiCsRQgkhs3ReNT38SIAESIAES8EkCLy5RBWIoNCQ2fbG+Iz/y84IauP7iG6r9xTfUnheXqO+8uERd9tISZablFeWv0bGJ/iTg9QQWL1EFYiggJDZ9sb4jP/Lz4hoYXbxEPfniH7XZljcufBsdp+hPAl5JYNEbqkAMhYLEpi/Wd+RHfj5SA1dfeENd/tLS4b9Cxyv6k4BXEUAHABQGGp/+nMRYA6yBcdbAlcVvqNkWi/gKOm7RnwS8gsALSxWBGAoBiU1frO/Ij/x8tAbqLCvU/4mOXfQnAY8nYFmqCMRQAEhs+mJ9R37k58M1cMmyVPkdOn7RnwQ8msDzSxWBGCoeiU1frO/Ij/x8uQYsS5VRy1I1BR3D6E8CHktg4TJFIIYKR2LTF+s78iM/1oAyunC5Eo+OY/QnAY8kgA4AqOiFy5TLaA7050TGGmANADXwieUNdSo6ltGfBDyOwIJlikAMFbxgmdKGxKcv1n/kR36sgZs1cHn+MtvfoeMZ/UnAowjMX64IxFCx85epS5H49MX6j/zIjzXwaQ3Uxa0Wf4aOafQnAY8hkLtcEYihQnOW2Z/IXa58guRAX6wPyY/8WAO3a2CZMhcd0+hPAh5DIGe5IhBzhNCc5bY3kRzoi/Uh+ZEfa+DTGrg8b6XtMUeMa2yDBKQnkLNCEYg5QqDFIr6as1w5iORBX6wfyY/8WAO3a+BN5XVHjGtsgwSkJ5C9QhGIOUqg/hCQvcK2InuF8gmSD32x/iQ/8mMNKFf5B4QcNbKzHakJZL2pCMQcLc78pvZ41gplSdYKW2vWm8oVJDf6Yn1LfuTnszWwQklw9NjG9khAOgLmNxWBmHSCmBAJkIDPEJj72vlv6m8azCtsaZkrbK3IWHa3b+abthM+A5FCfZfA3UVv5HvfJUflJEACMhEILBNfNr+pJpvfVK4ZGcvu8bmR/eblv5BJH3MhAYcTyFypCMQcnhAbJAESIAGAQNYq9V8y31SuIeOa7jvvLVsgkAZdSUB+AvP0QgdMfoXMkARIwNcIZK5UU5Bx7bbvK77GjXp9jMDclYpAzMdwUS4JkIAHENB/HZCxUjmFjG1zVyp7PUAqUyQB4wQy3lIEYsYj05MESIAEnEcgY6UyBxnbMt5S2pyXHVsmAQkIgDeIkEACUyABEiCBzxGYu8r+BDi+KZ9rlBdIwJsIpL+lCMS8iQW1kAAJeA+BzHXKnyNjW/pbyofeQ4NKSOA+BOasUgRi92mSl0iABEjA7QRMy7WHkbFtzlvKVbeLYAIk4EwCs1cpAjFn5sa2SYAESMAogdRV9ieQsW32KptqNDb9SMAjCKS9rQjEPEIkkyQBEvA5ArPfVtKRsS3tbVurz0GjYN8igN0gChcB+la5UC0JeAQBfRtg2ttKGzS+rVIqPUIskyQBowRS31YEYkbj0o8ESIAEnEXAtNqWioxrN31XKzwIyFkdxHblIGBarQjE5FDBLEiABEjgFgHTGvVXptXKCDKu6b6pa2zTyZQEvJpAympFIObVcCiOBEjAYwjoH/vr7/xTVisjyJh22/eTZP4xII/peyZqkEDyakUgZjAs3UiABEgAJpC00vathFX2J5LfVtKTVyttyFj2Gd81yjE4OTZAArITSF6jCBoZsAZYA6yBu2ogT4mTfexmfiQAE0haowgaGbAGWAOsgU9r4Ercavsj8ODKBkhAdgKJaxRBIwPWAGuANXCrBpLybC/LPm4zPxJwCIGEPEXQyIA1wBpgDSgiYY1yybT+3HccMriyERKQnUB8niJoZMAaYA2wBhQRl6fMln3MZn4kgBMQ4qGENcMBvOk58LMGWAOsgZufANVYLOIr+ODKFkhAYgKx69Vfxa1VauPWKoJGBqwB1gBrQLkSu0b5HxIP20yNBDACMXnKz2PXKkdi1yqCRgasAdYAa+BmDVyPXWd7Ghtd6U0CkhLQD8uIXassiVmnfBKzThE0MmANsAZYAzdrYDRmnS1a0qGbaZEARiB6rfJM9DplIHqdImhkwBpgDbAGPq2BT6LW2SKwEZbeJCAhgYgN/V+PXmdbyZv905udD0B8CGQNsAbu1MBF/c2RhEM3UyIBjEDEBtvfRa1XGqLWK4JGBqwB1gBr4DM1UBObzwV/2CxDbykJRK0bDohcr1yKXK8IGhmwBlgDrIFPa+BS1DplHrf6STl1MSmUQMQGJT1ivXIjYr0iaGTAGmANsAZu1sDliA3KG5E84Q+dYugvIwGLRXwpYoO6NHyDImhkwBpgDbAGlBvhG5Wj4RvV5OAi7WEZx23mRAIwgbjV4s/CN6hlvOE56LMGWAOsgU9roGiSEA/BAywbIAFZCQSWiS/rk3/YBkW4yYbDN9j2h69XXgnbYIsKXT/8/wWv1/6X/lFbUPHFR/UbMLBMfFX/Pmr98A/C8ocnh2zQfh26UU0O22hbofuGbVQUN+WuM1vDQULW6mZeem2GbVTy3Hh/ePT9Hb7B9ibvb95HXklA/9g/ZKNSGLpRES60D0M3KDtvTuAOWkV7U8e64Z+EblTmhG5UKkI3Kh+5UI8I2aD80SsLhKI8nkDYBnWpK++F0I2K193fofnqcj4EePytQAGfISDEQyEblbUhGxXhArsRslHZG5yvhkStU/78M3k44T+Bq+2PhOQrMSEblSMhG5VRF+gTwRuVhU6QwiZJwDCB0I3qi66o/ZCNitff3yEb1JcMdwQdSUA2AqEb1eyQfEU42a7oT89BG2x/5y79IYW2H4XmK2tC8pVrTtaqs4x3l07GJYG7CQTnq0kuqHefur9DC3ji3901xu89lEDIRuV3wfnKjeB8RTjJPgzKV/4YKNGWmeAi7XtB+erS4HzlIydp1lmOzMq3PemhZcG0vYTArALl/9Vr0Yl17qv39zWdrZeUCWX4IoHQAvsTQfnK5aB8RTjH1DJ9spWV7YyNwz8MylcqnaP95gPVOZn1y9ovzMsxBGZuOPffg/IVm7PqOyjft+/voHxF0xk7prfYCgm4kEBowflvzspXumcVKMIJNjAj33P+HGZQgeo/q0AZcgIHnW3108utX3Nh1zIUCUzSa25WgdLgpJrm/f3puGk78dQh8RWWHAl4FIGZBcqamQWKcLgVqltubtnzKBqTJgWW2R+ZWahucTgPnXG+7Q8ehoPpejiBWYXKq06pZd7fnx8z87ko0MNvF99Kf2ah8jsnDA4fzyi0RXo0SSEempGvpM8sUEYczOeTWfnaP3g0GybvMQT0303PLFBuOLiGeX+P/YbpxqwC9V88pkCYqO8S0BfjzShUbDMKFeEom16oDM8sHP6lt1CdXmz7PzMKlQuO4nO7na5nV5/9hrcwog45CejH1M4oVAYcWbu8v8c1VvYGlg39JzmrglmRwG0CMwqVtdMLFeFA6/HGhTCBRed/PL1Qed+BnPQHLh4SxDvRqQSmFypLHFmz0wsV3t/jHi/5qwCnFjcbxwjMKFL/78BC5UZgoSIcYgVKR2C++jdYVvJ66w82gYWK1SGsbjEfCShR/6e8ipmZJxMILNL+V2ChMuKweuX9PdFx8preB55cQ8zdSwnoR+ROK1KqphXZhIPMOqtk+K+8FNensmZuOvffpxXZ3ncQM519xaeN8xsScCCBwCLlgAPrlPe3kbGyePhdB3YpmyIBxxAILB4OdeDgMBxYaPuRYzKTvxX91wHTimwXHMUvsHD41/KrZoaeRCCgRHnWUfU5rcjG+9vI5H/bx794+FeeVDvM1csJ6H/lL6DY1h1QbBMOsI8Ci9X/7eXIPifPv9j2fwKKbSMO4CcCSmxN/IMin0PMC0YJCPFQQLGt3iG1WWzj/Y2Ok0VKFe9vo8VMP4cTCCgZDvEvtgmHWIkS4/AEPaRB/yIlwyEMbw0w/+Yhspmm5AT0d/+Oqkt/3t8OGSf9is8/J3nZMD1fIKC/+/crtnX4FduEAyzfFcz88s/8hX+RbYZfse0l/2Jlh3+xzepXbLPftst+xbaLfiW2Jr+S4XK/4uEl/kXDfvpBPk7PTYiHbsV0CMv3nJ4vA/gEganFtloH3Nv6+OCy+/u5EuVZvyLby37Ftndu3svFtiG/YtuHfsXD127f511+Rba9U0tsb9wcCwrOf9fpnenA+9tf/xSA/0jA3QSmlgwHTC2xCdiKhwd/58Q/3/tM8cVHpxYrcVNLbPunltiuG8j3+nObbMeeKxlO+k3B+W86i3tg2aX/PLXENmQgv8/1gV/JMA8HclZH+Ui7vytW/tkRtTjVyfd3YJntW36bbFFTS2zHp5bYRg3kPPrcJttJ/f7Wxwpnda8j7+/nNp3/f5yVJ9slgXERuD2hfm7ymegN6Fdi+9dxBZzgi25O/JuGF00tsV2aaE4PeL3db5PtD/6Fyn+ZYDrjermjHqr8SmxbxhWQLyKBMQhMLbZtfsB9MO773ln3t/5p3tQS29KpJbbLjsjzdhtXppYMvy77/T21eLh4jG7jZRJwPoFn///2zjy6qfvK4ySdpG3abMY2OxhsjDG2WRwDBgM2NmCDDVmaZjrNdElO0oSkyTTpnC6ncyaZ7k3atJ2kS9KezMmZeJFkLZYteZH3lDaUNltpmpImnSyge58NJgSMIfhNf4ALobYkv/uTF+n7xz229X73d+/9/O73+Ul6y1PB+Tsq+dSOSjYltr2SKnVnq76a2PE0f2lHJfdJcgvj26feMahLIHXnv6OS/WFiR8CcBtQOUndumC8+CFz3VDB5RyUNSPswGvq+/efmJduf5nt3VFKvNL8Q/keurTTuj8bDeHTpO1oHKfHR4ahSRGBHFX9zexWbQuu/tkrvIy/VfNuruFuYV8R17ajiXdttxiIRzAuct9s4bXsV94trqOa7L5gaf4JARAR2VPOXxf1XxVHRd0U179GQW0QaV7GurabUiKBFOEifvo37IgyJYSCgj4B611tRxW9VVLEpse2Vxvf0ZTVlSkUlXVtRxYclOVn0Pbi9xijSWks1/9hiLufWpJr36MwJc8UPgfJqflHaf9r1Xc1lFVXUK83Lgv/h8kqjQufqV+jQdxXv1pkT5gKBiAhUVAdXl1exKbRjZbYDSREFjGDQtkq6ubyKTwpzEtREA9sq+dMRpBrRkB1VvXPKq2hAWs+26p7FEQXEIBA4S2BrtZEu7bvyKtar72rj9vIqPqUhL6saP1lRxbfqahJd+lafJujKCfOAQEQEyqv52+XVbMrM+ElEwSIYtE3tHKr5lCwfaT2n/Qe31eg7CCiv5iekNVVU0RcjQIghIPB3AuXV/GVp35VX69N3RRX960TRt86DAB363lbFX/37wuEXEBgLAtuq+Y/bqtkU2CldR65l1Vy2rZpPCXKR1DGMLw1s0/R1gHontq2aB4W1tY1FTyBG7BDYVs2/FfacNn1X1NC126r5pDCfYXRqef91srxGz9cBWvRdxd2x03moZMITKHfwwq01bMpMz0MtSqsOpGytoV5ZLtJahvU/qMStnO4t4gAAGQ1JREFUYzG31vAzsvpoYLvHuFxHLpgj9glssR1O2FrDp4Q9p+WhNWf0zX2yXIbVp3D/xX1lmk4MlOubT0Dfsa/LCVNhWQ3fUlbDpsiq6VPSgnJ/bl5SWsN7RHlI6wjhX2rjX+m4RLDUZtwur5GulfKGf3wQKLUZ28X9pkHf6lLeshruFucSQqOSudW+R8clgjr0vbXaKI+P7kSV406gtIafKK1hU2BHC238UWkhW2x8ryAHSf4R+26poTukdaqbGZXWcL+k1rIa47vSPOAfHwTKauhhSa+V1rAWfZfV8JeEeUSsU8txbPLL8HToe0sNPxIf3Ykqx51Aqc34Q6mNTYHVS4sodr41tdRGvYIcJPmPxrdvq42nS+vdYmOfsFacByBdhDjxL7XRs8JeE+v79D9FG/cJ8xiNTq2OfWeC6BvnAcSJPse1zELXoau22PjUFhublq2G75IWscXGP7QcX5K7Bd/NNfwtab2ba+iLwnoP6/g6QloH/Cc2AfWx+xYb94t6TYe+7fRfohws6NRqvFK78ZB0VXXoG48Ilq4C/MMSKLFxwWYbmxLb5OCFYQOFGKC+Pths43ckOYytL/VWePdfFqKksJu2VBsrxDk7ejLCBsKAuCZQajMWSftMqm/17n+zjQ9L8xhD/yMqZ0nj6ND3FtwPQLIE8I2EQImdP7vJzqbAeqRHqpsdfIsgviR3674O2bkA6t37Jjv1iuq20XWRrDHGxC+BEjtdL+oxO4v1XeIwbhPmYF2nFvdtJTa6U9I1OvRd4qAbJDnAFwTCEthk52+V2Nm0bDZuDBskzIBNdv6V5fj/mPuLm2x8b5HjwBL1mN9825sf3uzoydjk4LtK7PyCrjjFNu4MU1bYzSV2IyDKx2F8IWwQDIhrAsV24z9EPaZH382iHM7TeLGNn1f/nItsxqIbbeal6qx9pe8SG99dYucXdcUpsfMuaeOI9W3HDb+kawD/MAQ22dkuEU2xnb8TJkTIzYWV+xNL7DwoyeGs73G1Ywj1vbjapsaU2LlfQ7wTZf/be0XI4sJsLLHzY5I8Ntn5R2FCYHOcEyi28xOSHpPqW53cW2Lnk5Iczvr2F9uNz4X6tPH0u24H3aFJ34PS25pD33EuvslQfrGDdxc72LRstcbtkjo3OowKy7HP5X28uDbyB/eoscUOPiaNW2IP7pDUXuzge2Q5GG5JfPjGPoFiB3tFPSbUd3Et3ySKf0bj/Rb03S+Nu9HON0o6RKxvOzsl8eELAmEJbHTwvo0ONq1acS2VhA0SYsBGB3/bauxzfqP/Pn6jg+4852+xfjs9HKK0sJuKnVwqyaHYwb8NGwQD4prARgfvFvWYXN/fkMRXvqff+Y9yFYvstFMat8hB3x9l2PcNh77fhwN/TEQCRbVsFDnYtGqFwjPRC+3cbDW28tvo4BdDfew/EnPlo3wlsQuFR+iFNl4miV/k4D+NVB9eBwFFoMjBb0h6TKrvIofhlsQvcvDzoT72H2mVdei7yM6i+x9I9b3RwX8eqT68DgJyAqZ5UWEtnyysZdOqras1ZkgSKazl563GPu3n4Hutxi908N2S2Btq+XdWYyu/4lpaIIlfWMtvSeLDN/YJFNbyIUmPadD3nyXxNzisn42vQd+vSDoE+pbQg2/UCajr7yXiVL7qLHtJooW1/KYkh2Jbb6bV+MpXEruwlnusxlZ+hd79icL4hyTx4Rv7BApr+V1Jj2nQN0viq7P9ra6SBn2z1djKT4O+D0riwxcEQhJY6zEu3+BkU2JTHjAvDhkkzMYNTj4mia9qCBNixM2bm4IfkcTe4OTDI04ewYYy374PCuOfiCAMhsQxgQ1OGpD0mAZ9H5LEVxqxuny53v2XSWJvcPJxq7GVnwZ9i+JLcodvHBBQR/frnWxKLNNmXipBtd5JA5L4knco6gBAEnu9U/YJgHr6oTD+MQl7+MY+gfVOHpT0mFzffFQSv/DJ1z9kdZVW+XqvkMRe7+SjVmMrPw367pfEhy8IhCSgbqKxzsmmxNRRdsggYTauc3KPJP56Z8/iMCFG3LzO3Zspib3OyftHnDyCDSW2g1cK4+Mjwgg4x/OQdU4+IekxDfo+JIkvOQlxvTuYLYm9zslvSHpHg77xFZ9kAeAbhoBpXrTOxabEij00LUyUkJvXuXifJP56p/UHEa1z8eclsQvc/HLI4sJsVCdYSeKvc8kOQMKkh80xQGCdi3skPaZB389L4kv0XeA07pPEXufi30taQKxvNx+QxIcvCIQlUODiowUuNq2aOsoOGyTEgAI3+63GPu3n5BcsfU/5gHlxgYtfEsV2cW2I0sJuWuMMZgnjvxY2CAbENYECF78m6TGpvte6DLckfoGLX7Sib/UUxAIX7RXFdrNf0jxSfa918euS+PAFgbAE1rr41bUuNq3aOlewOGyQEAPWuvgRq7GH/Na4Rn+pUIGT7xryt/zTTQ+GKC3spgInl1qOfWbN9oQNggFxTWCti5+T9JhY3076gSS+8rWi7zVOvkcat8DN35A0j1Tfa1yyy4wlucM3Tgis8XD3Gjebls1j3CZBtdbNN1mOfS7v/rWeyG8FrMaucfNxDXE/Jql9jce4TZSDC7cClvCPB981Lm4W9ZhQ3/luuk4U/4zGj41G36vdVLLGzSekcde6eaukR8T6dpNHEh++IBCWQL6Ha/LdbFo3+kHYICEGrHEGk/PdPGg9/t9zP7ZafRIQ6rLEB8yL8918V76bj2uId6KgXvbM8NUeeliYx6Mh0GITCExZ7abHZT0m03eu7eCV+W4+KcvhtMb717hpZyh9q4/98z18b76bT2iINzje+l7t5sfQwiAQVQL5Lv6hUCzixwHnu43fCHM4/wDmxXwP373K3Zt5+kZH7a9/SP2+2sWfz3fzSxrj6Kg7IMzny1FtDkw+6Qnke/grwh7T0Of8jDCHYfWtrlBQ9wHJdwez17iM+/PdtFdjnC7p4ue7DZG+V7v5q9Ic4A8CIQms9tAdqz1sWrY66rVyr+7zk1pVRzstx5fkLvKVffWh6l/t4R5J3fl1xifO54jfQeBCAqs8xj9Lemx1nOo7302fupDlaP+W6nt1HX98tDExHgRGRWC1h9au8rApsby6A0tGFfSCwfm2wwmrPHxEksMY+/ZJPx5Un0qIc3Zbvw3yBUuAP2OUwCqXkSvtM6m+c5qCH1nl4YPSPMbQv096/wMd+s739mTEaFuirIlCQN0ta2UdD66sY9OyeUf/ON4L61/lpYctx5fkbsXXQw9cmP9o/87z8j3Ceo+q7zxHGxfj44uAupPfyjo+Luo1DfpeWcffEeVgRacWfdS+SNol0LeUIPzHjEBeHb+eV8emVVtZxw3SZHNrjRkr6/iI1RzG0O+gOrFJWm9eHXuFOf9amgP844NAXh09K+k1XfrOq+M+SR5j5GtIP91TXSXXNz0bH92JKsedwEoP24XiOi55KM8QgDyPcb8wD8sHMRHH9Rj3D+Vr9ac6gMir4/6IYw53cOY1fmI1Pvzii0Cehx8V9Vod69F3He0U5hF1fV/j4bul3aFF33W4AkC6DvCPkECul+64xsumxPK8xicjDDfiMPVsgmu8vEeSR5R920NdhjRiYRdsyPPyZ6V55uEEoQuo4s+RCOTV083iftOgb6Wda7y8S5pLFP13q33QSBwjfV2Lvuvp+kjjYRwIiAis8HBarpdNobWJkjjrnOuj1FwvHxbmIq1lOP9DuXUH5+qo8RqvERDW915+4+EEHblgjtgnkOMMJud6+ZSw57To+xqPsSjXyweFuQynT+lrxkTSd7bwHiOx39WoUCuBFfX8+govmwIbXOblhTqSWuE1KlZ4+aQgF0kdw/meWFFnlOuobbm7N3OFlwcltS334vtBHWsRT3Os8PJuSc+pntWl79x6o2iFlwaE+QynU6uvvbe8nkp09IMOfa+o49/qyAVzgEDEBFbU0+PL69kU2o8jDhhm4PJ6vnV5PQ8K85HWo/zfW+Hlm8KkG/Hm5Q3GT8U1efnrEQfEQBCYMmXK8np6UNx39axN38vq+dMTRd/LGvgzupoE+tZFEvOMKQF1BKxhB3Esr4Gn60r87EHASQ15WT0QeE/nzkGxWV7PR6X1rKg3cnUxxjzxQWBZXU+etO+W17NWfZ85CKABDXlZ1fcJnQf3uvSdUx/Mio+uRJUThoC6pnxZPe9fVs+mzIyHdBaV4zUqltVznywnSzUZuj4WHOKxvJ7/W14H7R2aDz9BYDQEltbzy/L+06vvpfVG0bJ6PijPa9QaP7S0Qc/XekNroEff/NLQfPgJAmNKIMfHjyxtYFNo/Tl1wfk6E8/yUerSBt4jzGs0de3WdULQEIdl/gMpSxv4uIYacP//Iaj4OSoCOQ38FQ39p13fSxuM9KUN/CsNuUWmcR+3T2B9f21Ui4rBIKCLwDJ/T15OA5sarFZXTkPzqMtzljYY9+U08Dsa8hu+Rh/3ZDfwXTouBRrKe+jn0gbDpSHvU1lNvXOG5sRPEBgNAdU7OQ18SkMfate3ukQwx0d35jRwn4b8htd3Ax9c6vvbfTxCPTF0NEDPG6tL37rfPJ2XIn4FgfAEsn28O9vHpgYrCx9t9CMyG3h6js94KNvHRzTkOFRnX46PHo7WpTdZDUa5llz97B89MXiAwDkCWT5u1NKLPo6avrMb+NvZPurVlKfSeF9OAz2wzHXoqnMk9P2mTd8+8ujLCjOBgAUCOX7jE5qE91a0/qGqstTcOX7ame3jXdk+HrSQ82B2A3fl+OhT0gd/hMKsdjrZPvo/C/kNHZyc+9mo51KlUPliW2wTyPLRZi296OOo6ltpMquB7sj2cWe2j09YyPnEmYMd47Zo7od06jvH17MxtrsP1U14Aurj7ywfv5HlY1NqS3z09FgUvNx3ICnbzzcu8dP3s3zckOXjP2X52Mjy8fEsHx89W89z2X72Zzfw17P9vDWaO4Xza872sV3K8az/c+fPi99BwCqBLB8/p6Mnx0rfizzG5dkNwR1ZPno4y8fOLB//LsvHlOXjg2ctmOWjvVk+dizx0YNLfPyxSajvF6yuJ/xAQCuBLB99cYmfTT1GO7UmN4kmy/Qbn9PDkM1Mn/xWy5MIHVKNIgHVS7r6cokf+tbBMstPN0dxyTE1CEROQD2/O9PPBzL9bGqwE5l+Log8emyMzPAZGzL9NKCBn1qDv+TuMS+JDTKoYrwJqF7K9PM+Tb0JfYv3k8YfpuDR3uMtC8Q/n0BmI92x2M+mDsvwM2U0GOnnzx/Lvy9p5LTFfu7RwU7NkennG2OZF2obewLqY3Jd/Ql9C/eTPrp27DsAEUEgFAGb+YHFjfzHxY1s6rCMRn5zccP+eaFCxsI2danV4kZ+TQezs3PsmmKaF8UCG9QwsQgsbuRuXX0KfVvbT2Y08m7oe2LpAtmcJbDYT9dlNJKpz4Ivp/l6Z8cq4HRvz6zFjfSqPl40mN54YGWs8kJd40sgw0/5GY00qK9foe9RsjyV2RRcNb5dgOggEILAIj/XLWokU6P9NRa/Dkhv6slY1Eiva+Rkpvvpf0IsDTaBgJjAosbgL3X27KJGgr4j3F9mNNKj4gXEBCAQTQLprT2z0puoL72JTI1Gi5ppbTTzHsu5M5poTXoT9Wjko1i/PVaXMo0lK8SaWARS2g9dpXpNc+9C3+H3l2+n+XqvmFjdgGxAYBgC6Y3B2xY2kanZBtKa6M5hwk2ql9Ib+e6FTXRcMxtzYVOwfFKBQLKTlkBac3C7/v4l6DvEPjO9CSf+TVrBxF3ipnnRwmZqXNhMpnZroqfn1vddPdmYqndOaS1crZ3HGcZPTjYeyHdyE0hvpqei0svQ93D7zJ9N7m5B9nFHIL19f2JaM7+R1kxmFOyt1Kbo3Fs8Ggul3jGlNdPbUeCg2L6yoOXgldHIG3OCwEgEMtv5o2nNtDdKPQ19n9tvvjR715sfHmkd8DoITFgCaS3B1anNNJDaTGaUrHZRk95HCeuEmdZKqQuayR6l2s3UFnonLXAgU2fOmAsEIiWwsGX/4tRmOhK1/m6m+NZ3Mx1NazywJNL1wDgQmHAEUlv48wtayIyi9acG6OGUdp4+UYqfH6BpC1r4kQUtNBDFugcXtND1E6Vm5BGfBFIDwZsWtJDqxWhpPF71fWpBC90Qn12FqmOKwPwAPTq/hcwoW//pOG3GovGCl9rIaQua6WfzW6g/yrWa81v46+NVJ+KCwPkE5rcEvxb9fqc40zf9+/mM8TsITF4CD5gXz28m+xjsJNRBxuD8lmDH/Ga6eSy+G1/0jHF5SjN/ZkELt81voVNjUmOAn8DdwCavHGIx8wUt9NMx6f140HcLPR6LPYKa4phASvvrH0ppDXakBMgcQxtICZB/XoB2pjYFs7T80zTNi1KaejJSAnxPSoAaUwLUP4b1KHY2PAgkjoU0UUu3mR9ICZBrjLUQe/puDdaoR6xP1GVGXiBgmYB6Rz4vQN3zAmSOk/XODVDj3BZ+ZG4geHtKC22ZH6CceY3GjLndfVcP3WhD5Zna9PacuW0HlqgxKS1057wAfW9eKwXmBejQOOVuqtwzbXsvtbwAcASBKBJI8+374NwAucdLH/MCNKn1PS9A9in45x/FDsXU405gWlPwI3MD1DI3QOofGixCBnMC5FSfooz7AiIBEAhBQD06eG6Aq6Ht0e3b5rRSLR7hHaKxsCl2CJx+p9BKnrmtZMIiYcBP4GP/2On/mK/EZn5gbis9CW1Hou3TBwo/xzv/mFcFCjyfgDranROgx+a0kgkLxYC/oeXchfPh43cQiDYB07xoTmvwa3NaaRD6HlHfg3Nb+UvRXgrMDwITlsCstuDts1tpYHYrmbD3MXh3dlvwXybswiExEIiAwOw2un52K70Lbb9P22pfd3RWG388AoQYAgKxTWBmOxfMaqPgrDYyYacZvDKnPZgV26uO6uKFwKx2XjarjV6Bts/s32a30d7puINnvLQ/6oyEwLSmYPLMNvLMbCMzvi1YMxb3L4hkTTAGBHQRUCf/zmzjX8S3tsmc2UpPzvTuv0wXV8wDAjFFYGZ78NaZ7fTOzHYy48o6iGa188diajFRDAhcQGBGG90ws5164krbZ/Zl+6HvC5oBf4LAcASmdQbnz2wP1s9oJzMurI0qZ7bvTxyOBV4DgVgjoHp9Rjv/YkY7DcaBvgdntNHj6nHgsbaOqAcEokpgegeXTW+nP01vJzNG7ffTWoMbowoRk4PABCWQ3EprZrTT8zGqbbXP+o06v2mC4kdaIDAJCOwxL0nuoPumdRBP6yAzFiy5g96c3smfnmKaF0+CFUCKIBA9AqZ5cXInfXJ6B70SC9pWNahapquv80zzouiBw8wgEEcEZu7Zf9m0zuC9SR38RnIHmZPU9iV30M7Zu978cBwtHUoFgfAE2s1/SmrnzyR30KuTVNtqn/SHpE6+Zcoe85LwBWMECIDAqAlk7t176bTO4K3JncE9k2hH8evkNroB7/hHvdxwiDcCpnlxYpuxLbmD/MkddGoSaHwwuYOak9q5FO/4461ZUe+4EkjupqVJncEfJXdSb1InmRPM3krsou9Ow/X849ojCD55CSR18sKkjuC3kjrpLxNM22ZSF72a2En/mdxKqZOXMDIHgRggoJ4tkNTBZUmd9FhiF/31b8I0x8n2qRwSOmgT7t0fA42FEiYMgakdB/ISO+mhxM7gy+OkbbVPeSGxg76X3EVr8W5/wrQGEgGB9xO4ujOYndAV/EJCB1cldtJrUzvJjIINTj39LiBYM7WDduKdwPvXAH+BQLQIJD5jzPyb9m6e2hn85dRO2ju1k05GQd8n1T98FSOhk29RMaNVD+YFARCIIoGPdh1ISujm0qndfE9CFz+S0EnOqV30+6ldxAlddCShi8wR7FhCF+1P6KJnE7qpNqGbf5jQFfy3xI4DRVfhut4orhimBoHICajHZCd2G7kJ3fzZqZ30nau76KmELmpN6OI/JnRRb0IXvTuMvo8kdFPw6i7al9BNXWd9Hkzo5lsSOigfJ+pGzh8jQWDSE0h8xrj8il1vJlzZ3Xe1uuJg0heEAkAABP6BAA7c/wEJXgABEAABEAABEAABEAABEAABEAABEAABEAABEAABEAABEAABEAABEAABEAABEAABEAABEAABEAABEAABEAABEAABEAABEAABEAABEAABEAABEAABEAABEAABEAABEAABEAABEAABEAABEAABEAABEAABEAABEAABEAABEAABEAABEAABEAABEAABEAABEAABEAABEAABEAABEAABEAABEAABEAABEAABEAABEAABEAABEAABEAABEAABEAABEAABEAABEAABEAABEAABEAABEAABEAABEAABEAABEAABEAABEAABEAABEAABEAABEAABEAABEAABEAABEAABEAABEAABEAABEAABEAABEAABEAABEAABEAABEAABEAABEAABEAABEAABEAABEAABEAABEAABEAABEAABEAABEAABEAABEAABEAABEAABEAABEAABEAABEAABEAABEAABEAABEAABEAABEAABEAABEAABEAABKYH/Bw/QBadLT9xmAAAAAElFTkSuQmCC;" vertex="1" parent="1">
                    <mxGeometry x="400" y="255" width="20" height="20" as="geometry"/>
                </mxCell>
                <mxCell id="24" value="" style="endArrow=classic;html=1;fontSize=10;" edge="1" parent="1">
                    <mxGeometry width="50" height="50" relative="1" as="geometry">
                        <mxPoint x="300" y="320" as="sourcePoint"/>
                        <mxPoint x="410" y="320" as="targetPoint"/>
                    </mxGeometry>
                </mxCell>
                <mxCell id="44" style="edgeStyle=none;html=1;fontSize=8;entryX=0.5;entryY=0;entryDx=0;entryDy=0;" edge="1" parent="1" source="32" target="42">
                    <mxGeometry relative="1" as="geometry">
                        <mxPoint x="-80" y="265" as="targetPoint"/>
                    </mxGeometry>
                </mxCell>
                <mxCell id="46" value="" style="swimlane;startSize=0;fontSize=10;fillColor=#000000;gradientColor=none;swimlaneFillColor=default;" vertex="1" parent="1">
                    <mxGeometry x="150" y="610" width="180" height="200" as="geometry"/>
                </mxCell>
                <mxCell id="47" value="&lt;h1 style=&quot;&quot;&gt;&lt;font style=&quot;font-size: 16px;&quot;&gt;Carrinho&lt;br&gt;&lt;/font&gt;&lt;font style=&quot;font-size: 10px;&quot;&gt;Pizza........................Preço&lt;br&gt;&lt;/font&gt;&lt;/h1&gt;&lt;h1&gt;&lt;font style=&quot;font-size: 10px;&quot;&gt;Pizza........................Preço&lt;/font&gt;&lt;/h1&gt;&lt;div&gt;&lt;font style=&quot;font-size: 10px;&quot;&gt;&lt;h1&gt;&lt;font style=&quot;font-size: 10px;&quot;&gt;Pizza........................Preço&lt;/font&gt;&lt;/h1&gt;&lt;/font&gt;&lt;/div&gt;&lt;h1 style=&quot;&quot;&gt;&lt;br&gt;&lt;/h1&gt;" style="text;html=1;strokeColor=none;fillColor=none;spacing=5;spacingTop=-20;whiteSpace=wrap;overflow=hidden;rounded=0;" vertex="1" parent="46">
                    <mxGeometry y="5" width="170" height="175" as="geometry"/>
                </mxCell>
                <mxCell id="49" value="&lt;font style=&quot;font-size: 8px;&quot;&gt;Enviar pedido&lt;/font&gt;" style="rounded=1;whiteSpace=wrap;html=1;fontSize=10;fillColor=#000000;gradientColor=none;" vertex="1" parent="46">
                    <mxGeometry x="110" y="180" width="70" height="20" as="geometry"/>
                </mxCell>
                <mxCell id="50" value="&lt;font style=&quot;font-size: 8px;&quot;&gt;Limpar carrinho&lt;/font&gt;" style="rounded=1;whiteSpace=wrap;html=1;fontSize=10;fillColor=#000000;gradientColor=none;" vertex="1" parent="46">
                    <mxGeometry y="180" width="70" height="20" as="geometry"/>
                </mxCell>
            </root>
        </mxGraphModel>
    </diagram>
</mxfile>